<svg xmlns="http://www.w3.org/2000/svg" width="773.182" height="442.163" viewBox="0 0 204.571 116.989"  fill="none" stroke="#000" stroke-width=".265"><path d="M69.388 2.906L77.63.158l25.46 39.747 2.381 1.465 5.495.183 4.213 2.931 7.51-1.099 7.876 2.564 22.713-31.321 6.228-3.663-17.95 36.267 26.559-1.465 20.698 4.945-5.312 3.846-37.183 1.648 30.039 4.396 18.317 5.312 9.708 5.678-4.579 6.594-52.569 1.282c-3.355 11.278-17.435 18.221-27.658 25.826-3.158.558-4.811 1.868-10.624 1.099-.743-4.249 2.427-7.939 4.945-11.723l11.723-10.074 1.832-5.312-16.851-1.099-31.688 21.247-2.381.916-5.312.183-16.302-1.465c-12.833 6.1-25.021 13.703-39.197 16.668-5.19.168-10.379 2.43-15.569 0 .618-2.87.184-5.739 2.564-8.609C9.07 98.989 14.57 94.266 20.483 87.895c-2.767.492-3.737 2.106-10.074.366 1.158-4.802 3.182-8.564 6.777-10.44l12.638-8.792 2.747-4.945L5.829 46.865l7.51-5.678 15.752-.916 20.148.183-5.129 2.564 4.213-.183 2.564-1.282 27.475 3.297-12.638-8.059 7.143-3.846 3.114 2.198z"/><path d="M75.799 34.593c-.183 1.465 3.114 15.386 3.114 15.386l25.46-9.525m26.192 5.312l-8.242 11.173 4.396.733 11.723-3.663 3.663-7.327M20.3 88.078c-.258-.387 11.811-15.143 15.203-19.416 2.128-2.68 15.991-3.793 15.935-3.48 1.608.804 33.225-4.64 32.237-3.663-.452.447-15.071 14.645-17.218 14.287l1.465 10.99-2.015 3.297-7.693-1.648C43.663 98.32 27.219 106.776 8.76 113.721l-8.242 1.465m123.453-29.123l2.381.366 3.114-4.03 3.48-2.015 1.649-1.465h12.638"/><path d="M22.498 85.33c1.045.168 2.105.309 2.198 2.381 1.982-2.057 4.51-1.381 6.96-1.099 6.026-1.422 11.246-3.652 14.836-7.51 4.318-1.854 6.906-4.746 8.792-8.059 1.329-2.61-1.447-4.4-4.945-6.044m17.217 24.178l9.158 1.465-5.129 9.891-15.569-1.832 10.44-4.579z"/><path d="M67.007 93.023l3.48 2.015 3.663.733M56.2 69.578l3.846 5.312 6.411 1.465"/></svg>