<svg xmlns="http://www.w3.org/2000/svg" width="493.931" height="354.029" viewBox="0 0 130.686 93.67"  fill="none" stroke="#000" stroke-width=".265"><path d="M40.994 48.081l2.59-1.166 5.051.518 5.375-.13.907-.194 1.036-.777 1.23-.259 1.489-.777 1.684-.777 13.923-11.916 4.468-4.468 1.36-1.878 2.461-1.813 11.98-7.512 7.706-5.569 5.051-4.533 4.792-4.792v1.36l-1.554 2.461-2.849 3.173-5.958 4.598.453.194 3.691-1.943 9.066-6.152 6.8-5.375-.389 1.425-2.137 3.044-4.468 3.886-7.836 4.533-.324.389 1.748-.518 6.994-2.785 12.11-5.375-1.554 1.684-2.59 2.072-12.498 5.569.907.13 12.693-3.691 5.828-1.23-2.267 2.072-6.346 2.137-7.577 2.072-.065.324.907.194 7.706-1.425 2.849-.194 5.181-.518-3.691 2.072-9.843 2.008 1.295.389 10.556.065-6.67 2.331 1.943.777-.712.648-2.461 1.23-1.23-.389.453 1.554-3.238 2.008-.712 1.166-2.137.971.13 1.036-3.238 1.554-.324 1.619-1.166.842.324.971-.648-.324-.259.907-.907.518-.453 1.425-1.748 1.295-.324 1.36-4.598 2.331-.065 1.489-3.108 1.295-.971 2.072-3.691 1.489-.518.453-.13.842-.842.777-1.166.194-1.425 2.137-.971-.324-1.166 1.878-1.748.259-.971 1.619-.712-.971-.518.712-1.489 2.202-.389.583.712 1.295.13.648 1.878 2.849 12.757 5.44.13.518-1.295 1.23.194.583-.518.389.389.842.065.842-.065.583-.648.453-.324.777-.842.259-1.489.842-1.101-.259-1.101-.389-2.331-.453-3.432-.648-1.943.907-8.807-6.411.13-.583-7.577-1.23-.453.712-.971-.518-.777 1.295v.389h-1.425l-.712 1.036-1.943.324-.583.971-.842-.194-.648 1.036-3.432.842-.648.065-.648 1.036-.712.065-.453-.194v.259l-2.461.842-.259-.13-1.425.971-1.166-.13-1.23.648-1.489.324-1.878 1.23h-1.748l-1.23.842-1.554.324-.389.842-1.619 1.166-1.684.194-1.813 1.295-.971.194-1.166 1.554-2.526 1.23-3.044 2.59-.518-.518-1.101-1.295-.777 2.137-.453-.259-.583 1.489-1.489 2.137-.259-.13-.518-7.642h-.194l-.324.971-.907 2.979-3.367 4.792-.389-.324-.13-1.619.971-6.605-1.166 2.072-1.878 2.785-2.526 1.619.259-2.526 2.526-7.512-1.036 1.489-2.526 3.691-3.497 1.813.065-.971 4.857-8.742-1.23 1.23-3.562 3.044-3.95.13 2.331-1.878 4.857-3.756.065-.907-2.137 1.295H4.47l-1.36-.453 1.166-.712 5.44-3.238 2.267-2.137 3.886-3.367 5.116-4.274 13.729-5.051s9.843-3.238 9.649-3.497-3.238-2.914-3.238-2.914l-1.684-.194-.648.259-.518-1.166.194-1.101.453-1.554.712-.194z"/><path d="M81.922 61.162h0l-1.554.259 1.295 3.562.065 1.619 2.008 1.295.065.842-.324 1.748-1.489-.583-.389.453-1.425.518h-1.166l-.194.389-1.684-.259-3.562-2.072 1.231-1.23 3.626.518-.648-1.619 1.295-.971 1.878 1.166.907-.065"/><path d="M78.425 68.221l3.173 2.137m2.202-6.347l1.231 2.202.907 1.878h-.389l1.554 2.202s-.194.389-.648.453-1.101-.389-1.101-.389l.389.777-2.266-.648M44.362 55.075c2.118 2.338 3.715 4.989 6.605 6.864.362.579 5.699 2.886 6.411 3.173.756.305 8.695 2.645 8.613 2.59"/><path d="M45.528 56.305l2.785 2.202-.259-.712h.583l-.259-1.036 1.813 1.295-.842-2.202.518.065.518.194.259-.648.842.777v-.842l1.878 1.166-.842-1.554 1.295.971-.518-.907 2.655.389-.583-.971.389-.583-.583-.518.518.065-.648-.907 1.36-.712-.777-.777.324-.13-.583-.389.777-.971h-1.684l.453-2.461-.907.194m-14.57 4.663h0l.971-1.101 2.137-.518"/></svg>