<svg xmlns="http://www.w3.org/2000/svg" width="259.491" height="449.027" viewBox="0 0 68.657 118.805"  fill="none" stroke="#000" stroke-width=".265"><path d="M31.154 32.373l-4.579 4.03-16.485 3.48-1.465 6.411C8.052 60.116.268 70.383.382 83.843c-1.363 9.464 3.224 18.927 4.945 28.391l6.777-5.495-.366-8.242.183-4.03L10.64 83.66l4.03-13.005 1.648 6.044-1.832 13.737-1.832 6.594-.366 16.119 8.792 5.495c10.379-7.963 14.645-20.756 19.232-31.138 5.736 9.843 5.626 21.008 17.584 29.49l6.228-6.594-6.044-10.257 1.465-2.747-2.381-6.044-1.832-3.846 2.198-3.846 2.381 2.015-2.198 4.396 1.465 10.257 2.931 4.396 4.579 2.198.366-3.297.366-7.327-.183-7.327 1.282-6.228-2.747-8.242s.183-5.678-.366-6.777-.916-7.143-.916-7.143v-8.059l-.366-9.158c-5.719-2.526-11.064-3.181-17.218-7.876l-2.381-2.747 2.015 11.906c.541 4.945.665 9.891-.733 14.836l-5.861 19.232-5.495-21.797c-1.177-8.148-4.474-17.25-3.297-24.544z"/><path d="M31.154 32.556l8.059 6.594 5.495-6.777 1.099 11.356c-1.831-.974-2.115-4.188-6.594-4.945-3.324-.064-5.214 1.664-6.594 4.03-1.327-3.419-2.965-6.838-1.465-10.257z"/><path d="M35.001 40.066c1.659-1.058 2.958-2.692 6.96 0l-1.648 2.747 3.297 24.178-3.297 11.173-6.044-22.896c.475-4.841 1.723-8.652 3.663-11.539zm1.648 57.331l1.282 1.282 5.129-4.762-2.747-6.411z"/><path d="M31.154 32.556l-8.242 6.777 4.03 1.099-4.03 1.832L39.763 79.08c-2.368-14.047-9.283-29.328-8.609-46.524zm13.371 0l8.975 7.876-2.564 1.648 3.846 1.648c-2.612 13.77-9.101 25.213-15.02 36.999 2.416-12.045 9.336-22.755 6.777-36.084zM13.984 93.369l12.693.518-1.813 5.44-12.175.518zm20.982 6.217l11.398.518 1.295 4.145-15.283-.259zm-.777-66.572c2.311.455 4.026.553 5.116.275 2.488-1.136 3.411-2.897 4.762-4.488l.916-4.762 1.007.641 2.198-3.755c.153-.887.763-2.167.916-3.297l-.641-2.473-.824-8.792c-1.278-1.27-2.159-2.62-4.579-3.663C41.674 1.432 39.098.674 36.008.136c-3 .939-5.909 2.287-8.426 5.403l-1.191 5.495.275 5.495v3.48l.824 3.205 2.29 2.931 1.282 3.846z"/><path d="M31.246 30.267v2.381l7.968 6.319 5.312-6.228-.641-3.846-4.396 4.304-5.312-.183zm-4.504-12.342l.453-1.425.583.777.13 1.619.453.583v-3.95l-.13-6.476 1.101.194.648-1.36 1.943.712 1.101-1.101 3.173.712 1.748-1.101 1.295.065.777-1.23 2.331.194 1.619 3.173-.194 3.108 1.295 1.489.13 2.202-.453 3.432 1.101.324.777-3.95.842-.648 1.36 1.23"/></svg>