<svg xmlns="http://www.w3.org/2000/svg" xmlns:xlink="http://www.w3.org/1999/xlink" viewBox="0 0 2400 1496"><style><![CDATA[.K05R{fill:#a6a7aa}.anaP{fill:#5ba59b}.BcJX{fill:#dcdcdb}.F2m6{fill:#595a5c}.hG7C{fill:#fff}.glJ6{fill:#88c2ec}.eBOE{fill:#e6e6e6}.Hl8Q{fill:#6892b2}.eNnx{fill:#f2f2f2}.cAX1{fill:#6d6e70}.c6gt{fill:#6ca4cc}.MToD{fill:#dadada}.BjKh{fill:#c3e0f5}.aNpf{fill:#68abe3}.raN6{fill:#a5a7a9}.ZWuD{fill:#569d93}.pSYV{fill:#497397}]]></style><defs><clipPath id="WTB1"><path d="M16592.7 6588.21h326.801v653.629H16592.7z"/></clipPath><clipPath id="BCw1"><path d="M12465.4 6801.7h141.199v282.223H12465.4z"/></clipPath><clipPath id="JxwH"><path d="M14293.9 6785.4h157.398v314.82H14293.9z"/></clipPath><clipPath id="GVXl"><path d="M12899.9 7569.3h176.598v353.23H12899.9z"/></clipPath><clipPath id="xV1A"><path d="M13871.2 7633.86h107.703v215.5H13871.2z"/></clipPath><clipPath id="K5HI"><path d="M13740.6 5905.69h238.301v476.648H13740.6z"/></clipPath><clipPath id="clSE"><path d="M12928.4 5986.6h157.402v314.828H12928.4z"/></clipPath><clipPath id="d2Qy"><path d="M10986.8 9408.85h206v411.898h-206z"/></clipPath><clipPath id="XOJs"><path d="M15604.7 2626.98h239v477.871h-239z"/></clipPath><clipPath id="Eyyp"><path d="M7717.28 9845.33h123.988v247.98H7717.28z"/></clipPath><clipPath id="CYn1"><path d="M15860.3 739.5h124.098v248.102H15860.3z"/></clipPath><clipPath id="qH5M"><path d="M15774 5028.35h308.699v617.219H15774z"/></clipPath><clipPath id="DUWN"><path d="M9744.68 696.801h308.621v617.25H9744.68z"/></clipPath><clipPath id="K1yE"><path d="M1910.61 9208.92h288.082v144.059H1910.61z"/></clipPath><clipPath id="JevO"><path d="M1910.61 10271h288.082v144.059H1910.61z"/></clipPath><clipPath id="FBn6"><path d="M1219.66 8497.34h288.078v144.063H1219.66z"/></clipPath><clipPath id="avGF"><path d="M5925.62 3313.49h201.309v402.539H5925.62z"/></clipPath><clipPath id="uXbE"><path d="M5651.54 9839.12h201.301v402.539H5651.54z"/></clipPath><clipPath id="QP7F"><path d="M648.996 6031.29h201.309v402.551H648.996z"/></clipPath><clipPath id="DcjT"><path d="M4558.2 1195.2h125.281v250.492H4558.2z"/></clipPath><clipPath id="qGvv"><path d="M1517.14 3298.3h125.281v250.52H1517.14z"/></clipPath><path id="k6SK" d="M3557.41 7294.01c-39.43 0-71.4-31.96-71.4-71.39 0-39.44 31.97-71.4 71.4-71.4 39.44 0 71.4 31.96 71.4 71.4 0 39.43-31.96 71.39-71.4 71.39"/><path id="toiO" d="M2918.01 5950.38h-138.13v-138.13h138.13v138.13"/><path id="JI1E" d="M2918.01 5712.73h-138.13V5574.6h138.13v138.13"/></defs><g transform="matrix(.133333 0 0 -.133333 0 1496)"><path d="M17999.927 0H0v11219.918h17999.927V0" class="hG7C"/><g class="BcJX"><path d="M12122.6 3820.57c-252.3 0-457.6-205.27-457.6-457.59 0-252.31 205.3-457.58 457.6-457.58s457.6 205.27 457.6 457.58c0 252.32-205.3 457.59-457.6 457.59zm0-965c-279.8 0-507.4 227.62-507.4 507.41s227.6 507.42 507.4 507.42 507.4-227.63 507.4-507.42-227.6-507.41-507.4-507.41"/><path d="M11741.8 3941.74c-105.9 0-192.1-86.18-192.1-192.11 0-105.92 86.2-192.1 192.1-192.1 106 0 192.2 86.18 192.2 192.1 0 105.93-86.2 192.11-192.2 192.11zm0-434.04c-133.4 0-241.9 108.53-241.9 241.93s108.5 241.94 241.9 241.94 242-108.54 242-241.94-108.6-241.93-242-241.93"/></g><path d="M8080.09 8695.49l-12.54 51.9c46.01 11.11 92.88 21.38 139.31 30.53l10.33-52.38c-45.71-9.01-91.83-19.11-137.1-30.05m-202.96-55.89l-15.81 50.99c45.2 14.01 91.33 27.24 137.1 39.33l13.63-51.62a3343.58 3343.58 0 0 1-134.92-38.7m-199.02-68.68l-19.01 49.88c44.22 16.85 89.41 32.99 134.33 47.96l16.88-50.64a3337.48 3337.48 0 0 1-132.2-47.2m-194.27-81.22l-22.15 48.58c43.06 19.63 87.14 38.61 131.02 56.41l20.07-49.47a3335.67 3335.67 0 0 1-128.94-55.52m-188.72-93.43l-25.2 47.06c41.72 22.34 84.5 44.09 127.17 64.66l23.18-48.09c-41.99-20.24-84.1-41.65-125.15-63.63m-182.38-105.31l-28.16 45.36c40.21 24.96 81.52 49.41 122.79 72.65l26.2-46.51a3289.41 3289.41 0 0 1-120.83-71.5m-175.28-116.78l-31.01 43.46c38.51 27.49 78.18 54.53 117.88 80.38l29.13-44.74a3294.13 3294.13 0 0 1-116-79.1m-167.45-127.82l-33.75 41.37c36.69 29.92 74.54 59.46 112.5 87.81l31.94-42.78a3291.3 3291.3 0 0 1-110.69-86.4M6611.12 7908l-36.34 39.11a3341.71 3341.71 0 0 0 106.62 94.88l34.63-40.63c-35.48-30.23-70.78-61.64-104.91-93.36m-149.67-148.35l-38.79 36.68c32.55 34.42 66.3 68.59 100.3 101.58l37.17-38.32c-33.45-32.45-66.65-66.08-98.68-99.94m-139.82-157.74l-41.07 34.11c30.28 36.46 61.76 72.75 93.55 107.85l39.57-35.84c-31.29-34.54-62.26-70.24-92.05-106.12m-129.42-166.45l-43.18 31.39a3354.88 3354.88 0 0 0 86.44 113.67l41.79-33.21a3303.7 3303.7 0 0 1-85.05-111.85m-118.43-174.3l-45.09 28.58c25.36 40.01 51.91 79.98 78.89 118.81l43.84-30.47a3339.75 3339.75 0 0 1-77.64-116.92m-107.03-181.29l-46.8 25.68c22.81 41.56 46.76 83.13 71.2 123.56l45.68-27.62a3376.13 3376.13 0 0 1-70.08-121.62m-95.41-187.63l-48.32 22.69a3396.08 3396.08 0 0 0 63.28 127.75l47.33-24.7c-21.57-41.35-42.53-83.65-62.29-125.74m-83.31-193.18l-49.67 19.57c17.33 43.98 35.85 88.22 55.06 131.49l48.79-21.66a3334.38 3334.38 0 0 1-54.18-129.4m-70.82-198.11l-50.82 16.35c14.47 44.98 30.14 90.32 46.55 134.76l50.08-18.51a3305.55 3305.55 0 0 1-45.81-132.6m-57.97-202.26l-51.77 13.05c11.56 45.86 24.29 92.12 37.81 137.48l51.17-15.26a3275.67 3275.67 0 0 1-37.21-135.27m-44.84-205.6l-52.5 9.7a3339.67 3339.67 0 0 0 28.89 139.64l52.04-11.94c-10.42-45.38-19.97-91.6-28.43-137.4m-31.49-208.06l-53.02 6.29a3359.81 3359.81 0 0 0 19.83 141.23l52.7-8.57a3279.88 3279.88 0 0 1-19.51-138.95m-18.05-209.67l-53.31 2.86a3348.54 3348.54 0 0 0 10.7 142.21l53.14-5.14c-4.48-46.36-8.03-93.44-10.53-139.93m-57.92-211.01l-.18 35.08a3350.99 3350.99 0 0 0 1.73 107.55l53.36-1.72a3273.41 3273.41 0 0 1-1.71-105.82l.18-34.53-53.38-.56m9.09-213.64c-3.52 47.2-6.07 95.09-7.58 142.35l53.36 1.7a3330.21 3330.21 0 0 1 7.46-140.08l-53.24-3.97m22.71-212.6c-6.53 46.89-12.13 94.52-16.65 141.61l53.14 5.1a3297.89 3297.89 0 0 1 16.39-139.34l-52.88-7.37m36.21-210.75c-9.49 46.36-18.12 93.56-25.64 140.27l52.71 8.49c7.4-45.98 15.89-92.43 25.23-138.05l-52.3-10.71m49.55-208.05a3392.46 3392.46 0 0 0-34.51 138.37l52.07 11.82c10.31-45.42 21.74-91.24 33.96-136.18l-51.52-14.01m62.68-204.53c-15.3 44.8-29.85 90.52-43.23 135.92l51.2 15.1a3312.31 3312.31 0 0 1 42.55-133.76l-50.52-17.26m75.57-200.16c-18.12 43.74-35.55 88.46-51.8 132.92l50.15 18.32a3315.23 3315.23 0 0 1 50.96-130.8l-49.31-20.44m88.16-194.98a3403.61 3403.61 0 0 0-60.16 129.36l48.88 21.49c18.76-42.69 38.67-85.52 59.2-127.31l-47.92-23.54m100.45-188.99c-23.53 41.04-46.51 83.19-68.3 125.28l47.4 24.55a3324.94 3324.94 0 0 1 67.22-123.28l-46.32-26.55m112.35-182.22c-26.12 39.48-51.76 80.08-76.19 120.67l45.74 27.53c24.04-39.95 49.27-79.9 74.97-118.75l-44.52-29.45m123.84-174.69c-28.64 37.75-56.83 76.63-83.8 115.56l43.88 30.4c26.54-38.3 54.28-76.56 82.45-113.7l-42.53-32.26m134.85-166.4c-30.99 35.82-61.64 72.81-91.07 109.94l41.83 33.17c28.97-36.54 59.12-72.93 89.61-108.17l-40.37-34.94m145.35-157.4a3350.35 3350.35 0 0 0-98.01 103.86l39.61 35.8c31.28-34.6 63.72-68.99 96.43-102.19l-38.03-37.47M6623 3002.2a3350.61 3350.61 0 0 0-104.53 97.34l37.22 38.29a3263.88 3263.88 0 0 1 102.84-95.78L6623 3002.2m164.51-137.46c-37.35 29.22-74.57 59.64-110.61 90.42l34.66 40.6a3280.01 3280.01 0 0 1 108.85-88.97l-32.9-42.05m172.61-126.35c-39.09 26.75-78.12 54.67-115.97 83.01l31.99 42.74c37.25-27.88 75.65-55.37 114.12-81.68l-30.14-44.07m180.31-115.07c-40.74 24.22-81.46 49.6-121.02 75.45l29.2 44.69a3336.31 3336.31 0 0 1 119.1-74.25l-27.28-45.89" class="anaP"/><path d="M6325.38 3662.86c-247.03 334.31-421.2 707.01-517.66 1107.75-93.17 387.06-110.31 783.84-50.93 1179.31s192.28 769.72 395.01 1112.35c209.89 354.75 485.82 659.86 820.13 906.89s707.02 421.19 1107.75 517.66c387.06 93.17 783.84 110.3 1179.31 50.93 395.48-59.38 769.71-192.28 1112.31-395.01 354.8-209.89 659.9-485.83 906.9-820.13 151.2-204.65 276.6-426.6 372.5-659.7 93.2-226.37 159.1-464.07 195.8-706.49 72-475.7 30.5-969.25-120-1427.29l-40.5 13.33c148.4 451.72 189.3 938.45 118.2 1407.56-36.2 239.05-101.1 473.43-193 696.63-94.6 229.86-218.2 448.75-367.3 650.58-243.6 329.68-544.5 601.79-894.3 808.76-337.9 199.91-706.94 330.97-1096.95 389.52-390 58.56-781.28 41.66-1162.97-50.22-395.15-95.12-762.68-266.87-1092.37-510.48-329.68-243.61-601.79-544.49-808.76-894.29-199.91-337.87-330.97-706.94-389.52-1096.94-58.56-390.01-41.67-781.29 50.21-1162.97 95.12-395.16 266.87-762.68 510.48-1092.37l-34.34-25.38" class="K05R"/><g class="eBOE"><path d="M17500.006 7070.7h-525.537v525.548h525.537V7070.7"/><path d="M17006.875 7103.085h460.694v460.737h-460.694v-460.737"/></g><path d="M16937.33 6722.426h-35.641v71.178h35.641v-71.178m0-106.778h-35.641v71.178h35.641v-71.178m0-106.768h-35.641v71.168h35.641v-71.168m0-106.768h-35.641v71.178h35.641v-71.178m0-106.778h-35.641v71.178h35.641v-71.178m0-106.778h-35.641v71.178h35.641v-71.178m0-106.768h-35.641v71.178h35.641v-71.178m0-106.778h-35.641v71.189h35.641v-71.189m0-106.768h-35.641v71.178h35.641v-71.178m0-106.768h-35.641v71.178h35.641v-71.178m0-106.778h-35.641v71.178h35.641v-71.178m0-106.768h-35.641v71.178h35.641v-71.178m0-106.778h-35.641v71.189h35.641v-71.189m0-106.778h-35.641v71.199h35.641v-71.199m0-106.768h-35.641v71.178h35.641v-71.178m0-106.768h-35.641v71.178h35.641v-71.178m0-106.778h-35.641v71.189h35.641v-71.189m0-106.768h-35.641v71.178h35.641v-71.178m0-106.768h-35.641v71.178h35.641v-71.178m0-106.778h-35.641v71.189h35.641v-71.189M10313.2 987.602h-71.2v35.598h71.2zm106.8 0h-71.2v35.598h71.2zm106.8 0h-71.2v35.598h71.2zm106.7 0h-71.1v35.598h71.1zm106.8 0h-71.2v35.598h71.2zm106.8 0h-71.2v35.598h71.2zm106.8 0h-71.2v35.598h71.2zm106.7 0h-71.1v35.598h71.1zm106.8 0h-71.2v35.598h71.2zm106.8 0h-71.2v35.598h71.2zm106.7 0h-71.1v35.598h71.1zm106.8 0h-71.2v35.598h71.2zm106.8 0h-71.2v35.598h71.2zm106.8 0h-71.2v35.598h71.2zm106.7 0h-71.1v35.598h71.1zm106.8 0h-71.2v35.598h71.2zm106.8 0h-71.2v35.598h71.2zm106.7 0h-71.1v35.598h71.1zm106.8 0h-71.2v35.598h71.2zm106.8 0h-71.2v35.598h71.2v-35.598" class="F2m6"/><path d="M6347.52 1095c-105.92 0-192.1-86.2-192.1-192.098 0-106.004 86.18-192.101 192.1-192.101 105.93 0 192.11 86.097 192.11 192.101 0 105.898-86.18 192.098-192.11 192.098zm0-434.102c-133.39 0-241.92 108.602-241.92 242.004s108.53 241.898 241.92 241.898c133.41 0 241.94-108.5 241.94-241.898s-108.53-242.004-241.94-242.004M1313.93 2975.72c-241.93 0-438.754-196.82-438.754-438.75S1072 2098.23 1313.93 2098.23c241.92 0 438.74 196.81 438.74 438.74s-196.82 438.75-438.74 438.75zm0-927.32c-269.41 0-488.578 219.17-488.578 488.57s219.168 488.58 488.578 488.58c269.4 0 488.57-219.18 488.57-488.58s-219.17-488.57-488.57-488.57M16009.242 868.8h722.105v936.258h-722.105V868.8m771.934-49.801h-821.763v1035.888h821.763V818.999" class="BcJX"/><g class="F2m6"><path d="M15341.8 2178.56l-28.5 21.39 42.8 56.89 28.5-21.4zm-64.2-85.33l-28.4 21.39 42.8 56.89 28.4-21.39zm-64.2-85.33l-28.4 21.39 42.8 56.89 28.4-21.39zm-64.1-85.33l-28.5 21.39 42.8 56.89 28.4-21.39zm-64.2-85.33l-28.5 21.4 42.8 56.88 28.5-21.39zm-64.2-85.33l-28.5 21.4 42.8 56.88 28.5-21.39zm-64.2-85.33l-28.4 21.4 42.7 56.88 28.5-21.39zm-64.2-85.33l-28.4 21.4 42.8 56.88 28.4-21.39zm-64.2-85.32l-28.4 21.39 42.8 56.88 28.4-21.39zm-64.1-85.33l-28.5 21.39 42.8 56.89 28.5-21.39zm-64.2-85.33l-28.5 21.39 42.8 56.88 28.5-21.39zm-64.2-85.33l-28.4 21.39 42.7 56.89 28.5-21.39zm-64.2-85.34l-28.4 21.4 42.8 56.89 28.4-21.39zm-64.2-85.3l-28.4 21.4 42.8 56.9 28.4-21.4zm-64.1-85.3l-28.5 21.3 42.8 56.9 28.5-21.4zm-28.9-38.398L14386 967l7.4 9.898 28.5-21.398-7.5-9.898"/><path d="M14111.7 2993.42l-9.5 8.03 23 27.15 9.5-8.02zm81.4-69.04l-54.3 46.03 23 27.15 54.3-46.02zm81.5-69.03l-54.3 46.02 23 27.16 54.3-46.03zm81.4-69.03l-54.3 46.02 23 27.15 54.3-46.02zm81.5-69.04l-54.3 46.03 23 27.14 54.3-46.02zm81.4-69.03l-54.3 46.02 23.1 27.15 54.3-46.02zm81.5-69.04l-54.3 46.02 23 27.15 54.3-46.02zm81.4-69.03l-54.3 46.02 23.1 27.15 54.3-46.03zm81.5-69.04l-54.3 46.02 23 27.16 54.3-46.03zm81.4-69.04l-54.3 46.02 23.1 27.16 54.3-46.03zm81.5-69.03l-54.3 46.02 23 27.15 54.3-46.02zm81.4-69.04l-54.3 46.02 23.1 27.16 54.3-46.03zm81.5-69.03l-54.3 46.02 23 27.15 54.3-46.02zm81.5-69.04l-54.3 46.02 23 27.16 54.3-46.02zm81.4-69.04l-54.3 46.03 23 27.15 54.3-46.03zm81.5-69.03l-54.3 46.03 23 27.14 54.3-46.02-23-27.15m972.423-792.789l-1298.953 957.897 21.135 28.637 1298.953-957.938-21.135-28.597M15246.1 1718.92l-1048 468.92 14.5 32.48 1048-468.92-14.5-32.48"/><path d="M15030.4 1828.71l-28.8 20.84 679.3 939.94 28.9-20.85-679.4-939.93"/></g><g class="BcJX"><path d="M7056.29 9287.46h994.39v1038.74h-994.39V9287.46m1044.22-49.82H7006.46V10376h1094.05V9237.64M9366.05 1005.5h472.28v434.89h-472.28V1005.5m522.11-49.898h-571.94v534.608h571.94V955.602M1338.84 1418.09h608.31v1058.82h-608.31zm658.14-49.83h-707.97v1158.48h707.97V1368.26m424.28 5417.15c-318.8 0-578.17-259.37-578.17-578.17s259.37-578.17 578.17-578.17c318.81 0 578.17 259.37 578.17 578.17s-259.36 578.17-578.17 578.17zm0-1227.52c-358.05 0-649.36 291.29-649.36 649.35 0 358.05 291.31 649.35 649.36 649.35 358.06 0 649.36-291.3 649.36-649.35 0-358.06-291.3-649.35-649.36-649.35M14937 7816.34c-77.9 0-156.4-9.16-234.1-27.7-260-62.04-480.3-221.61-620.2-449.31-140-227.71-182.9-496.3-120.9-756.3 62-259.98 221.6-480.25 449.3-620.22 227.7-139.98 496.3-182.91 756.3-120.87s480.3 221.6 620.2 449.32c140 227.7 182.9 496.29 120.9 756.28s-221.6 480.26-449.3 620.23c-159.7 98.14-339.4 148.57-522.2 148.57m-3.8-2073.31c-195.8-.01-388.4 54.01-559.4 159.13-243.9 149.93-414.8 385.88-481.2 664.36-66.5 278.49-20.5 566.18 129.4 810.08 150 243.91 385.9 414.83 664.4 481.28 278.5 66.44 566.2 20.46 810.1-129.46 243.9-149.94 414.8-385.88 481.2-664.36 66.5-278.48 20.5-566.18-129.4-810.08-150-243.91-385.9-414.82-664.4-481.27-83.2-19.86-167.3-29.68-250.7-29.68"/><path d="M14152.3 8082.54c-44.3 0-88.9-5.21-133-15.74-305-72.76-493.9-380.04-421.1-684.98 62.2-260.74 295.9-436.64 553-436.64 43.6-.01 87.8 5.04 132 15.58 147.7 35.25 272.8 125.91 352.4 255.28 79.5 129.38 103.9 281.98 68.6 429.69-35.2 147.72-125.9 272.87-255.3 352.4-90.7 55.76-192.8 84.41-296.6 84.41m-1.1-1208.55c-289.3-.03-552.2 197.9-622.2 491.32-81.9 343.11 130.6 688.85 473.7 770.73 166.3 39.65 338 12.21 483.5-77.27 145.6-89.49 247.6-230.31 287.3-396.51 39.6-166.21 12.2-337.92-77.3-483.49s-230.3-247.58-396.5-287.25c-49.7-11.85-99.5-17.53-148.5-17.53"/></g><path d="M3439.39 5452.62h-42.71v35.59h42.71zm85.41 0h-42.7v35.59h42.7zm85.42 0h-42.71v35.59h42.71zm85.42 0h-42.71v35.59h42.71zm85.42 0h-42.71v35.59h42.71zm85.41 0h-42.7v35.59h42.7zm85.42 0h-42.71v35.59h42.71zm85.42 0h-42.71v35.59h42.71zm85.42 0h-42.71v35.59h42.71zm73.12-12.3h-35.59v30.09h5.17v17.8h30.42zm0-85.42h-35.59v42.71h35.59zm0-85.42h-35.59v42.71h35.59zm0-85.41h-35.59v42.7h35.59zm0-85.42h-35.59v42.71h35.59zm0-85.42h-35.59v42.71h35.59zm0-85.42h-35.59v42.71h35.59zm0-85.41h-35.59v42.7h35.59zm0-85.42h-35.59v42.71h35.59zm0-85.42h-35.59v42.71h35.59zm0-85.42h-35.59v42.71h35.59zm0-85.41h-35.59v42.71h35.59zm0-85.42h-35.59v42.71h35.59zm0-85.42h-35.59v42.71h35.59zm0-85.42h-35.59v42.71h35.59zm0-85.41h-35.59v42.71h35.59zm0-85.42h-35.59v42.71h35.59zm0-85.42h-35.59v42.71h35.59zm0-85.42h-35.59v42.71h35.59v-42.71m-545.31-1761.13h-35.59v42.71h35.59zm0-85.42h-35.59v42.71h35.59zm0-85.42h-35.59v42.71h35.59zm0-85.41h-35.59v42.71h35.59zm0-85.42h-35.59v42.71h35.59zm0-85.42h-35.59v42.71h35.59zm0-85.41h-35.59v42.7h35.59zm0-85.42h-35.59v42.71h35.59zm0-85.42h-35.59v42.71h35.59zm-1542.69-73.12h-42.71v35.59h42.71zm85.42 0h-42.71v35.59h42.71zm85.41 0h-42.7v35.59h42.7zm85.42 0h-42.71v35.59h42.71zm85.42 0h-42.71v35.59h42.71zm85.42 0h-42.71v35.59h42.71zm85.41 0h-42.7v35.59h42.7zm85.42 0h-42.71v35.59h42.71zm85.42 0h-42.71v35.59h42.71zm85.42 0h-42.71v35.59h42.71zm85.41 0h-42.7v35.59h42.7zm85.42 0h-42.71v35.59h42.71zm85.42 0h-42.71v35.59h42.71zm85.42 0h-42.71v35.59h42.71zm85.41 0h-42.7v35.59h42.7zm85.42 0h-42.71v35.59h42.71zm85.42 0h-42.71v35.59h42.71zm85.42 0h-42.71v35.59h42.71zm90.59 0h-47.89v35.59h30.09v-5.18h17.8v-30.41m4389.74 157.82h1.47l1.45-.24c17.28-2.88 34.64-4.34 51.58-4.34 172.42 0 312.7 140.27 312.7 312.69 0 65.34-20.48 128.37-59.22 182.24-38.66 53.77-91.72 93.22-153.47 114.1l-9.21 3.12-2.35 9.44c-23.03 92.68-77.82 176.67-154.27 236.5-76.57 59.92-171.47 92.92-267.23 92.92-144.94 0-279.68-71.74-360.43-191.9l-9.91-14.74-14.76 9.88c-31.55 21.1-68.28 32.27-106.19 32.27-93.2 0-172.31-66.42-188.1-157.91l-2.47-14.33-14.54-.43c-79.32-2.35-153.61-35.12-209.18-92.26-55.68-57.25-86.34-132.65-86.34-212.32 0-162.61 132.23-299.18 294.76-304.45l2.42-.25zm54.5-40.17c-18.42 0-37.23 1.54-55.96 4.58H7067.1a37.66 37.66 0 0 0-4.7.29c-181.05 6.43-328.18 158.73-328.18 339.99 0 88.99 34.24 173.2 96.42 237.14 58.74 60.4 136.24 96.41 219.51 102.31 24.09 101.29 114.55 173.39 220.29 173.39 39.15 0 77.22-10.03 111.11-29.13 88.23 121.55 229.09 193.62 380.18 193.62 103.67 0 206.36-35.68 289.16-100.48 80.11-62.7 138.24-149.97 164.45-246.61 64.92-23.99 120.71-66.63 161.82-123.8 43.12-59.97 65.91-130.18 65.91-203.02 0-192.04-156.24-348.28-348.29-348.28M11489.5 9282.8l-172.3 165.16 24.6 25.7 172.3-165.17-24.6-25.69m636.5 703.64l-34.9 6.99 13.9 69.77 34.9-7zm-21-104.69l-34.9 6.99 14 69.8 34.9-7zm-21-104.69l-34.9 6.99 14 69.79 34.9-6.99zm-21-104.69l-34.9 6.99 14 69.8 34.9-7zm-21-104.69l-34.9 6.99 14 69.79 34.9-6.99zm-17.1-85.59l-34.9 7 10.2 50.68 34.9-6.99-10.2-50.69m206.9-125.3l-25.4 24.97 382.9 388.76 25.3-24.97-382.8-388.76m549-897.24l-527.8 297.37 17.5 31.01 527.8-297.37-17.5-31.01m-1783.8-58.7l-20.3 29.26 515 356.94 20.3-29.25-515-356.95" class="F2m6"/><g fill="#272525"><path d="M6029.17 1763.43l-11.29 18.13 15.1 9.41 11.29-18.13-15.1-9.41m-260.21 417.77l-22.62 36.33 15.1 9.41 22.63-36.33zm45.26-72.66l-22.62 36.33 15.1 9.41 22.63-36.33zm45.26-72.67l-22.63 36.34 15.11 9.41 22.62-36.34zm45.26-72.66l-22.63 36.34 15.11 9.41 22.62-36.34zm45.26-72.66l-22.63 36.33 15.1 9.41 22.63-36.33zm45.25-72.66l-22.63 36.33 15.11 9.41 22.63-36.34-15.11-9.4m-271.54 435.98l-11.29 18.12 15.1 9.41 11.29-18.13-15.1-9.4m-433.08-683.35l-15.11 9.41 11.29 18.13 15.11-9.41-11.29-18.13"/><path d="M5672.63 2183.84l-15.11 9.41 21.81 35.02 15.1-9.41zm-43.62-70.02l-15.1 9.41 21.8 35.01 15.11-9.41zm-43.61-70.02l-15.11 9.41 21.81 35.01 15.11-9.41zm-43.61-70.03l-15.11 9.41 21.81 35.01 15.1-9.4zm-43.62-70.02l-15.1 9.41 21.81 35.01 15.1-9.41zm-43.61-70.02l-15.1 9.41 21.8 35.01 15.11-9.41zm-43.61-70.02l-15.11 9.41 21.81 35 15.1-9.4zm-43.61-70.03l-15.11 9.41 21.81 35.02 15.11-9.41zm-43.61-70.02l-15.11 9.41 21.8 35.01 15.11-9.41-21.8-35.01m392.51 630.21l-15.11 9.4 11.29 18.13 15.1-9.41-11.28-18.12m328.03-496.31l-15.1 9.41 11.29 18.13 15.1-9.41-11.29-18.13m382 613.31l-15.1 9.41 21.8 35.02 15.11-9.41zm-43.61-70.02l-15.11 9.41 21.81 35.01 15.1-9.41zm-43.61-70.02l-15.11 9.41 21.81 35.01 15.1-9.41zm-43.62-70.02l-15.1 9.41 21.8 35.01 15.11-9.41zm-43.61-70.02l-15.11 9.41 21.81 35.01 15.11-9.41zm-43.61-70.02l-15.1 9.41 21.8 35.01 15.1-9.41zm-43.62-70.03l-15.1 9.41 21.81 35.02 15.1-9.41zm-43.61-70.02l-15.1 9.41 21.81 35.01 15.1-9.41zm-43.61-70.02l-15.1 9.41 21.8 35.01 15.11-9.41-21.81-35.01m392.51 630.2l-15.1 9.41 11.29 18.12 15.1-9.41-11.29-18.12"/></g><g class="F2m6"><path d="M3329.78 6966.06h-350.1l-237.14 237.14h-333.29l-289.08 289.08h-394.09L1437 7203.2H730.352v35.59h691.908l289.08 289.08h423.57l289.08-289.08h333.3l237.13-237.14h320.62l237.14 237.14h501.49v-35.59h-486.75l-237.14-237.14"/><path d="M1419.74 7283.34c-33.49 0-60.73-27.24-60.73-60.72s27.24-60.73 60.73-60.73c33.48 0 60.72 27.25 60.72 60.73s-27.24 60.72-60.72 60.72zm0-142.8c-45.26 0-82.08 36.82-82.08 82.08s36.82 82.07 82.08 82.07 82.08-36.81 82.08-82.07-36.82-82.08-82.08-82.08m996.88 141.18c-33.48 0-60.72-27.24-60.72-60.73s27.24-60.73 60.72-60.73c33.49 0 60.73 27.24 60.73 60.73s-27.24 60.73-60.73 60.73zm0-142.81c-45.26 0-82.07 36.82-82.07 82.08s36.81 82.08 82.07 82.08 82.08-36.82 82.08-82.08-36.82-82.08-82.08-82.08m3098.72 383.02h-423.57l-289.08 289.09H4469.4l-237.14 237.13h-320.61l-237.15-237.13h-501.49v35.59h486.75l237.14 237.14h350.11l237.13-237.14h333.29l289.08-289.09h394.09l289.09 289.09h557.83v-35.59h-543.09l-289.09-289.09"/><path d="M5806.94 7887.91c-33.48 0-60.72-27.24-60.72-60.72s27.24-60.73 60.72-60.73c33.49 0 60.73 27.25 60.73 60.73s-27.24 60.72-60.73 60.72zm0-142.8c-45.26 0-82.08 36.82-82.08 82.08s36.82 82.08 82.08 82.08 82.08-36.82 82.08-82.08-36.82-82.08-82.08-82.08m-996.88 144.43c-33.48 0-60.72-27.25-60.72-60.73s27.24-60.72 60.72-60.72 60.73 27.24 60.73 60.72-27.25 60.73-60.73 60.73zm0-142.81c-45.26 0-82.08 36.82-82.08 82.08s36.82 82.08 82.08 82.08 82.08-36.82 82.08-82.08-36.82-82.08-82.08-82.08m-3744.55-512.47l-24.92 25.41 654.37 641.92h801.2l266.51-307.82h1494.66l369.4-239.27-19.35-29.87-360.57 233.55H2746.4L2479.89 7866h-770.38l-644-631.74"/><path d="M1354.05 7557.77l-313.59 313.58 25.17 25.17 313.59-313.59-25.17-25.16"/></g><g fill="#5a595b"><path d="M1666.47 5364.12c-34.11 0-68.44-9.11-99.31-27.78l-5.78-3.49-6.32-2.35c-1.82-.67-3.24-1.56-4.48-2.8l-383.96-384.09-3.92-4.93-4.73-4.18c-3.42-3.03-6.28-5.69-8.73-8.14-74.93-74.93-74.93-196.86 0-271.79 37.46-37.47 86.69-56.2 135.9-56.21 49.22 0 98.42 18.73 135.9 56.21 2.47 2.46 5.06 5.25 8.16 8.76l4.17 4.7 4.92 3.9 1.06.94 383.02 383.03c1.24 1.23 2.13 2.66 2.81 4.48l2.34 6.32 3.5 5.78c45.83 75.77 34.04 172.49-28.67 235.2-37.16 37.15-86.27 56.44-135.88 56.44zm-381.33-908.05c-85.67 0-171.35 32.61-236.57 97.83-130.433 130.44-130.433 342.68 0 473.13 3.39 3.38 7 6.81 10.96 10.41 2.36 2.73 4.83 5.37 7.35 7.89l383.03 383.03c14.08 14.09 30.49 25.14 48.85 32.92 131.17 76.13 296.56 54.76 404.26-52.94s129.07-273.09 52.94-404.25a153.45 153.45 0 0 0-32.92-48.86l-383.03-383.02a153.58 153.58 0 0 0-7.9-7.37 307.56 307.56 0 0 0-10.41-10.94c-65.22-65.22-150.89-97.83-236.56-97.83"/><path d="M1554.38 4879.57c-34.1 0-68.44-9.11-99.31-27.78l-5.77-3.49-6.33-2.35c-1.81-.67-3.24-1.56-4.47-2.8l-383.96-384.08-3.91-4.92-4.71-4.16c-3.46-3.07-6.33-5.74-8.76-8.17-74.937-74.94-74.937-196.87 0-271.8 37.46-37.47 86.69-56.2 135.9-56.2 49.22-.01 98.42 18.72 135.9 56.2 2.46 2.46 5.05 5.24 8.16 8.76l4.18 4.72 4.94 3.92 1 .89 383.05 383.04c1.22 1.23 2.14 2.69 2.8 4.48l2.34 6.32 3.5 5.78c45.83 75.78 34.04 172.49-28.66 235.2-37.16 37.16-86.27 56.44-135.89 56.44zm-381.32-908.05c-85.68 0-171.35 32.61-236.568 97.83-130.441 130.44-130.441 342.69 0 473.13 3.367 3.37 6.981 6.8 10.946 10.41 2.371 2.73 4.832 5.37 7.363 7.9l383.029 383.02a153.16 153.16 0 0 0 48.85 32.93c131.16 76.13 296.56 54.75 404.25-52.95 107.7-107.7 129.08-273.08 52.95-404.24-7.78-18.37-18.84-34.77-32.93-48.87l-383.03-383.02c-2.52-2.53-5.17-4.99-7.91-7.37-3.6-3.97-7.03-7.58-10.39-10.94-65.22-65.22-150.89-97.83-236.56-97.83"/></g><path d="M4280.78 8899.84h-253.65v35.59h253.65v-35.59m-629.74 1169.56l-64.28 342.4 34.98 6.5 64.27-342.4-34.97-6.5m196.78-44.2l-18.52 30.4 295.39 180 18.52-30.4-295.39-180" class="anaP"/><path d="M3370.04 9268.93l-63.94 31.28 15.64 31.97 63.94-31.28zm95.9-46.92l-63.93 31.28 15.64 31.97 63.94-31.29zm95.91-46.93l-63.93 31.28 15.63 31.97 63.95-31.28zm95.91-46.93l-63.94 31.29 15.64 31.97 63.94-31.29zm83.63-40.91l-51.66 25.27 15.64 31.97 51.66-25.28-15.64-31.96m-196.66 650.82l-21.9 28.05 56.11 43.8 21.9-28.05zm-84.17-65.7l-21.9 28.06 56.11 43.79 21.9-28.05zm-84.17-65.69l-21.9 28.05 56.12 43.8 21.89-28.06-56.11-43.79M2072.45 10402h-35.59v30.6h35.59v-30.6m0-106.8h-35.59v71.2h35.59v-71.2m0-106.7h-35.59v71.1h35.59v-71.1m0-106.8h-35.59v71.2h35.59v-71.2m0-106.78h-35.59v71.18h35.59v-71.18m-35.59-106.78v71.19h35.59v-71.19h-35.59m35.59-106.76h-35.59v71.17h35.59v-71.17m0-106.78h-35.59v71.19h35.59v-71.19m0-106.77h-35.59v71.18h35.59v-71.18m0-106.77h-35.59v71.18h35.59v-71.18m-23.61-144.38l-25.16 25.17 21.6 21.61 25.17-25.17-21.61-21.61m-75.5-75.5l-25.16 25.17 50.33 50.33 25.17-25.16-50.34-50.34m-75.49-75.5l-25.17 25.17 50.33 50.33 25.17-25.16-50.33-50.34m-75.5-75.5l-25.17 25.17 50.33 50.33 25.17-25.16-50.33-50.34m-75.5-75.49l-25.17 25.16 50.33 50.33 25.17-25.16-50.33-50.33m-75.5-75.51l-25.17 25.17 50.34 50.34 25.17-25.17-50.34-50.34m-75.5-75.49l-25.17 25.17 50.34 50.33 25.16-25.17-50.33-50.33m-75.5-75.5l-25.16 25.17 50.33 50.33 25.16-25.17-50.33-50.33m-75.5-75.5l-25.16 25.17 50.33 50.33 25.17-25.17-50.34-50.33m-75.5-75.5l-25.16 25.17 50.33 50.33 25.17-25.16-50.34-50.34m15309.944 1454.046l-30.968 17.709 35.48 61.752 30.866-17.709zm-53.118-92.628l-30.866 17.72 35.378 61.742 30.866-17.709zm-660.178-33.481l-33.224 12.736 21.842 57.096 26.354 8.521 8.409-5.517-8.614-13.054 7.076-2.687zm93.212-15.464l-59.578 39.028 19.586 29.758 59.476-39.028zm513.848-43.663l-30.866 17.699 35.378 61.742 30.866-17.699zm-424.635-14.889l-59.578 39.028 19.586 29.779 59.578-39.039zm-220.675-25.687l-33.224 12.736 25.431 66.469 33.327-12.736zm309.991-32.845l-59.578 39.028 19.586 29.758 59.578-39.028zm282.099-19.206l-30.763 17.709 35.378 61.742 30.866-17.699zm-192.783-39.346l-59.578 39.039 19.483 29.758 59.578-39.028zm-437.453-8.296l-33.327 12.736 25.533 66.459 33.122-12.726zm577.22-44.976l-30.968 17.709 35.48 61.742 30.866-17.699zm-50.554-5.271l-59.476 39.028 19.483 29.758 59.578-39.028zm-564.915-49.457l-33.327 12.726 25.533 66.469 33.224-12.736zm-38.146-99.704l-33.327 12.736 25.533 66.469 33.122-12.746zm-38.249-99.693l-33.327 12.726 25.533 66.469 33.224-12.736zm-38.249-99.714l-33.224 12.736 25.533 66.469 33.122-12.736zm-38.249-99.704l-33.224 12.736 25.533 66.479 33.224-12.746zm-594.14-20.16l-69.32 15.925 7.896 34.691 69.422-15.925zm104.082-23.872l-69.422 15.915 7.998 34.691 69.422-15.915zm104.082-23.872l-69.422 15.905 7.896 34.701 69.422-15.915zm-302.607-11.095l-33.224 12.736 25.431 66.469 33.327-12.746zm406.587-12.787l-69.32 15.915 7.896 34.691 69.422-15.915zm243.85-7.906l-33.224 12.736 25.533 66.459 33.122-12.726zm-139.767-15.966l-69.422 15.925 7.998 34.68 69.422-15.925zm104.082-23.872l-69.32 15.915 7.896 34.691 69.422-15.925zm-653-39.162l-33.224 12.726 25.431 66.469 33.327-12.726zm-38.146-99.704l-33.327 12.736 25.533 66.469 33.224-12.746zm-38.351-99.704l-33.122 12.746 25.431 66.459 33.224-12.726zm-38.146-99.693l-33.224 12.736 25.533 66.469 33.224-12.736zm-38.249-99.693l-33.122 12.726 25.431 66.479 33.224-12.746zm-38.146-99.704l-33.224 12.736 25.431 66.469 33.327-12.746zm-38.249-99.693l-33.224 12.736 25.431 66.459 33.327-12.736-25.533-66.459" class="F2m6"/><path d="M8804.07 2148.54a3348.6 3348.6 0 0 0-207.98 6.45c-252.34 15.68-503.16 59.99-745.48 131.68l15.15 51.19c238.47-70.56 485.31-114.15 733.64-129.59 249.61-15.52 500.89-2.57 746.83 38.48 250.37 41.79 495.79 112.81 729.47 211.11 240.5 101.18 469.8 231.84 681.7 388.37 357.2 264 652.1 590.07 876.4 969.15 216.7 366.15 358.7 766.11 422.1 1188.77 63.5 422.66 45.2 846.69-54.4 1260.32-103.1 428.23-289.2 826.52-553.2 1183.81l42.9 31.72c268.3-363.06 457.5-767.82 562.2-1203.03 101.2-420.35 119.8-851.26 55.3-1280.75-64.4-429.49-208.8-835.93-428.9-1208.03-228-385.26-527.7-716.62-890.7-984.9-215.3-159.04-448.3-291.82-692.7-394.64-237.5-99.9-486.93-172.09-741.39-214.56-181.69-30.32-366.25-45.55-550.94-45.55" class="glJ6"/><path d="M11447.9 7227.89l-56.2 328.27 297.3-150.13z" class="Hl8Q"/><path d="M499.996 8341.91h919.742v1464.91H499.996z" class="BcJX"/><path d="M11522.4 2155.36h-771.9v675.77h771.9v-675.77" fill="#e5e6e7"/><path d="M9341.14 9392.03h-992.49v644.07h992.49v-644.07" class="BcJX"/><g class="hG7C"><path d="M8844.89 9644.33l-496.24 303.9v21.09l496.24-303.75 496.25 303.75v-21.09l-496.25-303.9"/><path d="M8348.65 9392.03v12.75l348.67 344.98 12.75-12.88-348.54-344.85h-12.88m992.49 0h-9.78l-348.54 344.85 12.75 12.88 345.57-341.91v-15.82"/></g><path d="M12865.7 1813.79h-1770.1v570.71h1770.1v-570.71" fill="#e5e6e7"/><path d="M11120.5 1838.7h1720.3v520.88h-1720.3zm1770.1-49.82h-1819.9v620.53h1819.9v-620.53" class="hG7C"/><g class="BcJX"><path d="M8523.36 3439.18l-118.82-693.2c414.85-71.41 825.75-48.15 1209.63 54.79l-181.66 679.6c-288.52-77.38-597.35-94.85-909.15-41.19M6801.6 5980.43c121.59 570.28 461.14 1038.05 912.81 1334.77L7328.23 7903c-600.93-394.78-1052.71-1017.15-1214.49-1775.9-10.14-47.58-19.02-95.13-26.66-142.62l694.47-111.24a2156.08 2156.08 0 0 0 20.05 107.19"/><path d="M7609.47 3831.06l-420.86-563.69a2811.34 2811.34 0 0 1 255.79-170.29l358.54 605.28a2112.81 2112.81 0 0 0-193.47 128.7m-723.04 968.13l-659.81-243.74c141.75-382.62 364.82-731.02 652.75-1019.84l497.67 497.07c-216.41 217.08-384.07 478.93-490.61 766.51m993.78-1140.16l-332.82-619.77c108.73-58.07 222.14-109.45 339.81-153.48l247.95 658.25c-88.27 33-173.36 71.49-254.94 115m118.4-812.3c49.25-16.13 99.16-31.02 149.76-44.56l182.45 679.25a2139.8 2139.8 0 0 0-112.1 33.34l-220.11-668.03"/></g><path d="M9620.35 3540.23l243.73-659.81C10700 3190.1 11372.6 3887.85 11617.4 4802.17l-679.3 182.45c-183.9-687.2-689.5-1211.63-1317.75-1444.39" class="K05R"/><path d="M8760.18 7661.7l-40.55 702.3c-125.88-7.19-250.21-22.76-372.31-46.33l133.03-690.81c91.77 17.72 185.22 29.42 279.83 34.84M6769.22 5784.8l-698.55 82.02c-34.95-294.75-22.76-586.1 31.21-865.69l690.79 133.03c-40.57 210.14-49.72 429.12-23.45 650.64m2557.41 1833.14c624.5-133.15 1126.07-527.68 1414.67-1044.59l616.6 338.42c-383.6 689.8-1052 1216.5-1884.6 1394.02-213.18 45.46-425.85 65.59-634.92 62.5l11.05-703.38c157.14 2.33 316.98-12.81 477.2-46.97m-1285.71-126.68l-278.26 645.99a2846.91 2846.91 0 0 1-333.83-171.07l361.19-603.5c80.61 48.27 164.42 91.24 250.9 128.58M6811.47 5046.85l-684.58-161.88 20.08-79.59 679.59 181.65-15.09 59.82M7872.7 8182.01l250.93-657.11c87.54 33.53 177.52 61.36 269.42 83.16l-161.88 684.59c-122.27-29-242-66.04-358.47-110.64m3841.7-2593.7l-703.3-14.96c2.1-130.63-7.9-263.13-30.7-396.19l693.2-118.81c30.6 177.99 43.8 355.24 40.8 529.96m-715.4 178.5l698.9 79.97c-31.8 289.16-108 568.51-222.9 829.36l-645.3-279.93c87.6-197.83 145.4-409.87 169.3-629.4" class="BcJX"/><path d="M16919.543 7241.892c-180.505 0-326.835-146.319-326.835-326.824s146.33-326.824 326.835-326.824 326.835 146.319 326.835 326.824-146.33 326.824-326.835 326.824" class="glJ6"/><g clip-path="url(#WTB1)"><path d="M16919.563 6588.239h0m-312.96 232.255c0 .093 0 .176-.104.26.104-.083.104-.166.104-.26m-.104.353c-8.615 28.535-13.287 58.731-13.702 89.964h0c.415-31.234 5.086-61.429 13.702-89.964" class="BjKh"/><path d="M16919.563 6588.239h0c-147.709 0-272.374 97.864-312.96 232.255 0 .093 0 .176-.104.26v.093c-8.615 28.535-13.287 58.731-13.702 89.964v8.491c2.18 177.251 145.529 320.506 322.821 322.562h3.944v-653.625" class="aNpf"/></g><path d="M13074.7 6156.02h908.5l454.2 786.8-454.2 786.8h-908.5l-454.3-786.8 454.3-786.8m922.3-24h-936.2l-468.1 810.8 468.1 810.8h936.2l3.5-6 464.7-804.8-468.2-810.8" class="F2m6"/><path d="M13499.5 6237.35l5.5-.14v391.09c-96.4-3.19-192.3-22.02-283.3-56.44 61.2-130.94 155.4-245.66 277.8-334.51m-312 320.73c-61.6-26.38-120.6-60.06-175.5-101.19 108.9-114.68 255.8-192.81 420.4-214.08-106.1 87.39-188.9 194.74-244.9 315.27m19.4 47.46c95.7 36.4 196.6 56.21 298.1 59.45v234.49l-363.5-.17c4.9-103.1 27.3-202.02 65.4-293.77m-66.7 336.92l.2-6.42 364.6.24v236.68c-106.9 3.45-213.1 25.62-313.5 66.61-33.5-93.39-51.3-193.37-51.3-297.11m292.2 699.65c-176.8-22.86-333.2-111.35-444.1-240.24 57-45.99 118.4-83.75 182.6-113.28 55.6 136.06 144.4 257 261.5 353.52m-227.7-368.17c96.2-39.34 197.9-60.74 300.3-64.17v437.91l-5.5-.13c-134.4-97.58-234.8-226.39-294.8-373.61m-101.3-331.48c0 108.88 18.8 213.86 54.2 311.79-67.8 30.93-132.5 70.69-192.5 119.15-92.3-119.31-147.4-268.78-147.4-430.94l.1-6.55 285.8.13c0 2.16-.2 4.27-.2 6.42m1.3-43.18l-285.6-.14c9.6-157.84 71.3-301.76 168.2-414.86 57.9 43.74 120.3 79.52 185.5 107.45-39.9 96.06-63.2 199.61-68.1 307.55m437 746.43v-436.38c100.5.84 200.9 19.01 296.5 54.61-59.2 150.46-160.3 282.19-296.5 381.77m63.2-1404.08c172.9 19.99 327 102.59 438.8 224.65-58.7 42.27-121.8 76.27-187.5 102.05-56.3-125.27-141.4-236.63-251.3-326.7m330.4 700.83l-.1-5.99 293.7.17.2 5.82c0 157.32-51.8 302.77-139.2 420.25-64-49.63-132.9-89.52-204.9-119.69 32.8-94.73 50.3-195.82 50.3-300.56m-65-340.22c69.3-27.23 135.8-63.25 197.6-108.18 92.2 111.76 150.6 252.26 159.8 405.82l-293.6-.15c-4.7-104.18-26.5-204.28-63.8-297.49m-265.4 1041.05c121.1-99.31 212-224.6 267.5-365.75 68.4 28.87 133.9 66.91 194.8 114.12-113.2 136.79-276.9 230.18-462.3 251.63m293.7-700.83c0 100.02-16.7 196.49-47.8 287-99.7-37.09-204.3-56.12-309.1-56.98v-236.2l356.7.19c0 2 .2 3.98.2 5.99m-77.1-361.37c-90.4 31.02-185 46.89-279.8 47.67v-389.57c124 90.7 219.1 207.98 279.8 341.9m75.8 318.61l-355.6-.17v-234.1c99.7-.78 199.1-17.56 294-50.43 35.8 89.21 56.9 185 61.6 284.7" class="BcJX"/><path d="M13872.4 7277.54c-55.5 141.14-146.4 266.45-267.5 365.75 185.4-21.45 349.1-114.84 462.3-251.63-60.9-47.21-126.4-85.25-194.8-114.12m356.7-335.08c0-1.95-.2-3.86-.2-5.83l-293.7-.15c0 2 .1 3.97.1 5.98 0 104.74-17.5 205.83-50.3 300.56 72 30.18 140.9 70.05 204.9 119.69 87.4-117.48 139.2-262.93 139.2-420.25m-161.2-448.4c-61.8 44.93-128.3 80.95-197.6 108.18 37.3 93.21 59.1 193.31 63.8 297.48l293.6.16c-9.2-153.56-67.6-294.07-159.8-405.82m-463-252.43c109.9 90.07 195 201.43 251.3 326.7 65.7-25.78 128.8-59.78 187.5-102.05-111.8-122.06-265.9-204.66-438.8-224.65m-63.2-2.43v389.56c94.8-.78 189.4-16.65 279.8-47.67-60.7-133.92-155.8-251.2-279.8-341.89m0 660.33l355.6.17c-4.7-99.7-25.8-195.49-61.6-284.7-94.9 32.87-194.3 49.65-294 50.43v234.1m0 272.94c104.8.87 209.4 19.9 309.1 56.99 31.1-90.51 47.8-186.98 47.8-287 0-2.01-.2-3.99-.2-5.98l-356.7-.2v236.19m0 473.24c136.2-99.58 237.3-231.31 296.5-381.77-95.6-35.6-196-53.77-296.5-54.61v436.38m-36.7-435.94c-102.4 3.43-204.1 24.84-300.3 64.17 60 147.22 160.4 276.03 294.8 373.61 1.8.07 3.7.09 5.5.13v-437.91m0-273.49l-364.6-.24c0 2.16-.2 4.29-.2 6.42 0 103.74 17.8 203.72 51.3 297.11 100.4-40.99 206.6-63.16 313.5-66.61v-236.68m0-271.29c-101.5-3.24-202.4-23.05-298.1-59.45-38.1 91.76-60.5 190.67-65.4 293.77l363.5.17v-234.49m0-427.78c-1.8.08-3.7.1-5.5.14-122.4 88.85-216.6 203.57-277.8 334.51 91 34.42 186.9 53.25 283.3 56.44v-391.09m-493 219.68c54.9 41.13 113.9 74.81 175.5 101.19 56-120.53 138.8-227.88 244.9-315.27-164.6 21.27-311.5 99.4-420.4 214.08m-24.7 27.39c-96.9 113.1-158.6 257.02-168.2 414.86l285.6.14c4.9-107.94 28.2-211.49 68.1-307.55-65.2-27.93-127.6-63.71-185.5-107.45m-169.6 458.18c0 162.16 55.1 311.63 147.4 430.94 60-48.46 124.7-88.22 192.5-119.15-35.4-97.92-54.2-202.91-54.2-311.79 0-2.15.2-4.26.2-6.42l-285.8-.13c0 2.19-.1 4.34-.1 6.55m614.7 699.66c-117.1-96.53-205.9-217.46-261.5-353.53-64.2 29.53-125.6 67.29-182.6 113.28 110.9 128.89 267.3 217.38 444.1 240.25m119.2 42.08c-.9.64-1.7 1.35-2.6 1.97l-1.3-1.85-24.3.6c-10.8 0-21.5-.35-32.2-.79l-1.4 2.04c-1-.68-2-1.46-2.9-2.17-392.6-19.11-706-344.39-706-741.54 0-397.16 313.4-722.46 706-741.57l2.9-2.17 1.4 2.08c10.7-.45 21.4-.81 32.2-.81 8.1 0 16.2.36 24.3.61l1.3-1.88c.9.65 1.7 1.35 2.6 1.98 396.4 14.92 714.2 341.85 714.2 741.76 0 399.9-317.8 726.8-714.2 741.74" class="hG7C"/><path d="M12606.5 7083.92c-77.9 0-141.1-63.18-141.1-141.11s63.2-141.1 141.1-141.1c78 0 141.1 63.17 141.1 141.1s-63.1 141.11-141.1 141.11" class="Hl8Q"/><g clip-path="url(#BCw1)" class="pSYV"><path d="M12606.5 6801.71c-77.9 0-141.1 63.17-141.1 141.1s63.2 141.11 141.1 141.11v-282.21"/></g><path d="M14451.3 7100.23c-86.9 0-157.4-70.47-157.4-157.41s70.5-157.42 157.4-157.42 157.4 70.48 157.4 157.42-70.5 157.41-157.4 157.41" class="glJ6"/><g clip-path="url(#JxwH)" class="aNpf"><path d="M14451.3 6785.4h0c-85.6 0-155.2 68.29-157.4 153.35v5.75c.9 85.61 70.1 154.82 155.7 155.72h1.7V6785.4"/></g><path d="M13085.8 6301.43c-87 0-157.4-70.47-157.4-157.42 0-86.93 70.4-157.41 157.4-157.41 86.9 0 157.4 70.48 157.4 157.41 0 86.95-70.5 157.42-157.4 157.42" class="glJ6"/><path d="M13076.5 7922.54c-97.5 0-176.6-79.08-176.6-176.62s79.1-176.61 176.6-176.61c97.6 0 176.6 79.07 176.6 176.61s-79 176.62-176.6 176.62" class="anaP"/><g clip-path="url(#GVXl)"><path d="M13076.5 7569.31c-29.8 0-57.9 7.39-82.6 20.46-7.1 3.76-13.9 8-20.4 12.66-44.1 31.73-73 83.33-73.6 141.69v3.59c1 96.3 79 174.15 175.4 174.82h1.2v-353.22" fill="#3d887c"/></g><path d="M13978.9 7849.35c-59.5 0-107.7-48.24-107.7-107.74 0-59.51 48.2-107.75 107.7-107.75s107.8 48.24 107.8 107.75c0 59.5-48.3 107.74-107.8 107.74" class="glJ6"/><g clip-path="url(#xV1A)"><path d="M13872.5 7758.29c8 51.58 52.6 91.06 106.4 91.07v-.01c-53.8 0-98.4-39.47-106.4-91.06" class="BjKh"/><path d="M13978.9 7633.86c-54.6.01-99.7 40.66-106.8 93.35a113.85 113.85 0 0 0-.9 14.4c0 1.86 0 3.7.1 5.54a69.74 69.74 0 0 0 .6 6.47l.3 2.92.3 1.75c8 51.59 52.6 91.06 106.4 91.06v-215.49" class="aNpf"/></g><path d="M13978.9 6023.2c-66.7 0-120.8 54.09-120.8 120.81s54.1 120.81 120.8 120.81c66.8 0 120.8-54.09 120.8-120.81s-54-120.81-120.8-120.81m0 359.14c-131.6 0-238.3-106.7-238.3-238.33s106.7-238.34 238.3-238.34c131.7 0 238.4 106.71 238.4 238.34s-106.7 238.33-238.4 238.33" class="Hl8Q"/><g clip-path="url(#K5HI)" class="pSYV"><path d="M13978.9 5905.69h-2.5c-130.5 1.35-235.8 107.53-235.8 238.32 0 131.63 106.7 238.33 238.3 238.33v-78.86c-88 0-159.4-71.39-159.4-159.47s71.4-159.48 159.4-159.48v-78.84"/></g><g clip-path="url(#clSE)" class="aNpf"><path d="M13085.8 5986.6c-87 0-157.4 70.48-157.4 157.41 0 86.94 70.4 157.42 157.4 157.42V5986.6"/></g><path d="M7746.33 1171.7v578.77h-324.64V1171.7h-152.35L7584.01 857l314.66 314.7h-152.34" class="cAX1"/><path d="M5206.51 2290.48H2156.97v1999.7h3049.54v-1999.7" class="K05R"/><path d="M4942.22 2563.77H2421.26v1453.12h2520.96V2563.77" class="hG7C"/><path d="M3681.74 3141.34H2667.71v564.44h1014.03v-564.44" class="glJ6"/><path d="M4746.15 3546.6h-639.93v356.2h639.93v-356.2" fill="#437c75"/><path d="M4136.45 2033.52h-909.42v256.96h909.42v-256.96" class="F2m6"/><path d="M4403.47 1894.92H2960.01v138.6h1443.46v-138.6" class="K05R"/><path d="M2328.51 2462.02h2706.46v1656.62H2328.51zm2724.26-17.8H2310.71v1692.22h2742.06V2444.22" class="eBOE"/><path d="M4298.53 2703.79H3005.45v719.77h1293.08v-719.77" class="anaP"/><path d="M11896.6 8642.23c-186.7 0-338.1 151.37-338.1 338.09 0 186.73 151.4 338.09 338.1 338.09s338.1-151.36 338.1-338.09c0-186.72-151.4-338.09-338.1-338.09m0 843.36c-279.1 0-505.3-226.21-505.3-505.27 0-279.05 226.2-505.27 505.3-505.27 279 0 505.3 226.22 505.3 505.27 0 279.06-226.3 505.27-505.3 505.27" class="Hl8Q"/><path d="M11896.6 8475.05c-185.1 0-346.9 99.49-434.9 247.91-6.1 10.25-11.8 20.72-17.2 31.41-34 67.99-53.2 144.74-53.2 225.95 0 279.06 226.2 505.27 505.3 505.27v-167.18c-186.7 0-338.1-151.36-338.1-338.09h0c0-186.72 151.4-338.09 338.1-338.09v-167.18" class="pSYV"/><path d="M11192.8 9510.41c-57.7 0-104.4 46.74-104.4 104.4s46.7 104.4 104.4 104.4c57.6 0 104.4-46.74 104.4-104.4s-46.8-104.4-104.4-104.4m0 310.35c-113.8 0-206-92.21-206-205.95 0-113.75 92.2-205.96 206-205.96 113.7 0 205.9 92.21 205.9 205.96 0 113.74-92.2 205.95-205.9 205.95" class="glJ6"/><g clip-path="url(#d2Qy)"><path d="M11192.8 9408.85h0a206.58 206.58 0 0 0-15.2.56 206.58 206.58 0 0 1 15.2-.56h0m-206 205.96h0c0 112.42 90.1 203.79 202 205.91-111.9-2.12-202-93.5-202-205.91" class="BjKh"/><path d="M11192.8 9408.85a206.58 206.58 0 0 0-15.2.56c-106.7 7.77-190.8 96.76-190.8 205.4 0 112.41 90.1 203.79 202 205.91l1.6.03h2.4v-68.13c-76.1 0-137.8-61.7-137.8-137.81s61.7-137.81 137.8-137.81v-68.15" class="aNpf"/></g><path d="M15843.7 2744.81c-66.9 0-121.2 54.22-121.2 121.12 0 66.88 54.3 121.12 121.2 121.12s121.1-54.24 121.1-121.12c0-66.9-54.2-121.12-121.1-121.12m0 360.06c-132 0-239-106.98-239-238.94 0-131.97 107-238.95 239-238.95 131.9 0 238.9 106.98 238.9 238.95 0 131.96-107 238.94-238.9 238.94" class="anaP"/><g clip-path="url(#XOJs)"><path d="M15843.7 2626.98h0c-71 0-134.7 30.92-178.5 80.02h0c43.8-49.1 107.5-80.02 178.5-80.02h0m-201 109.62c-7.4 11.47-13.8 23.61-19.2 36.32 5.4-12.71 11.8-24.85 19.2-36.32h0" class="BjKh"/><path d="M15665.2 2707c-8.2 9.25-15.8 19.15-22.5 29.6h0c6.7-10.45 14.3-20.35 22.5-29.6h0" fill="#444f58"/><path d="M15604.7 2865.93h0c0 118.04 85.6 216.09 198.1 235.46-112.5-19.37-198.1-117.42-198.1-235.46" class="BjKh"/><path d="M15843.7 2626.98c-71 0-134.7 30.92-178.5 80.02-8.2 9.25-15.8 19.15-22.5 29.6-7.4 11.47-13.8 23.61-19.2 36.32-12.1 28.58-18.8 60.02-18.8 93.01 0 118.04 85.6 216.09 198.1 235.46 12.4 2.13 25 3.3 37.9 3.46h3v-79.04c-88.3 0-159.9-71.59-159.9-159.88 0-88.31 71.6-159.9 159.9-159.9v-79.05" fill="#469195"/></g><path d="M12122.5 10318.2c-124.8 0-225.9-101.1-225.9-225.9 0-124.73 101.1-225.87 225.9-225.87s225.9 101.14 225.9 225.87c0 124.8-101.1 225.9-225.9 225.9" class="anaP"/><path d="M10986.8 8641.38c-124.7 0-225.9-101.15-225.9-225.9 0-124.76 101.2-225.9 225.9-225.9 124.8 0 225.9 101.14 225.9 225.9 0 124.75-101.1 225.9-225.9 225.9m1615.1 1244.5c-70.6 0-127.8-57.24-127.8-127.84 0-70.61 57.2-127.85 127.8-127.85s127.9 57.24 127.9 127.85c0 70.6-57.3 127.84-127.9 127.84m187.6-1282.98c-70.6 0-127.8-57.24-127.8-127.85 0-70.6 57.2-127.84 127.8-127.84 70.7 0 127.9 57.24 127.9 127.84 0 70.61-57.2 127.85-127.9 127.85m1563.9-7556.3c-82 0-148.4-66.401-148.4-148.299s66.4-148.399 148.4-148.399c81.9 0 148.3 66.5 148.3 148.399s-66.4 148.299-148.3 148.299" class="K05R"/><path d="M6273.07 8855.3c0-283.54-229.86-513.4-513.4-513.4s-513.39 229.86-513.39 513.4 229.85 513.39 513.39 513.39 513.4-229.85 513.4-513.39" class="anaP"/><path d="M5841.22 8502.3h-163.09v462.78h163.09V8502.3m11.59 630.84c0-51.44-41.7-93.14-93.14-93.14-51.43 0-93.13 41.7-93.13 93.14s41.7 93.13 93.13 93.13c51.44 0 93.14-41.69 93.14-93.13" class="hG7C"/><path d="M5431.15 1575.23c0-81.78-66.3-148.07-148.07-148.07-81.79 0-148.08 66.29-148.08 148.07s66.29 148.08 148.08 148.08c81.77 0 148.07-66.3 148.07-148.08" class="glJ6"/><path d="M5868.04 2276.69c0-81.77-66.29-148.07-148.07-148.07s-148.08 66.3-148.08 148.07c0 81.78 66.3 148.08 148.08 148.08s148.07-66.3 148.07-148.08" class="c6gt"/><path d="M6184.8 1777.89c0-81.78-66.3-148.08-148.08-148.08-81.77 0-148.07 66.3-148.07 148.08s66.3 148.07 148.07 148.07c81.78 0 148.08-66.29 148.08-148.07m8113.3 495.82c28.8-56.21 6.5-125.1-49.7-153.85s-125.1-6.49-153.8 49.72c-28.8 56.21-6.5 125.09 49.7 153.84s125.1 6.5 153.8-49.71" class="glJ6"/><path d="M16430.726 1179.393c0-63.102-51.107-114.299-114.309-114.299-63.102 0-114.309 51.197-114.309 114.299 0 63.163 51.207 114.35 114.309 114.35 63.203 0 114.309-51.187 114.309-114.35" class="anaP"/><path d="M6621.69 2463.73c0-81.78-66.29-148.07-148.07-148.07s-148.07 66.29-148.07 148.07 66.29 148.07 148.07 148.07 148.07-66.29 148.07-148.07" class="c6gt"/><path d="M13162 1669.44l-77.3-77.4-102.9 102.83 77.4 77.39 102.8-102.82" class="Hl8Q"/><path d="M12982.2 1771.92c-97.2-97.15-254.7-97.15-351.9 0-97.2 97.18-97.2 254.71 0 351.88 97.2 97.16 254.7 97.16 351.9 0 97.1-97.17 97.1-254.7 0-351.88zm72.9 424.78c-137.5 137.44-360.3 137.44-497.7 0-137.4-137.43-137.4-360.25 0-497.68s360.2-137.43 497.7 0c137.4 137.43 137.4 360.25 0 497.68m190.2-560.85l-127.1-127.05-58.4 58.42 127.1 127.05 58.4-58.42" class="cAX1"/><path d="M13531.2 1319.14l-96.2-96.22-301.3 301.29 96.2 96.22 301.3-301.29" class="anaP"/><path d="M12806.2 2248.97c-80.4 0-156-31.32-212.9-88.19-117.4-117.41-117.4-308.43 0-425.83 56.9-56.87 132.5-88.2 212.9-88.2 80.5 0 156.1 31.33 212.9 88.2 56.9 56.87 88.2 132.49 88.2 212.91 0 80.43-31.3 156.05-88.2 212.92-56.8 56.87-132.4 88.19-212.9 88.19zm0-620.01c-85.2 0-165.2 33.17-225.5 93.41-124.3 124.33-124.3 326.65 0 450.99 60.3 60.24 140.3 93.41 225.5 93.41s165.3-33.17 225.5-93.41c60.3-60.23 93.4-140.31 93.4-225.5 0-85.18-33.1-165.26-93.4-225.49-60.2-60.24-140.3-93.41-225.5-93.41" class="hG7C"/><path d="M9688.47 2121.14c-46.77 0-84.81 38.05-84.81 84.81 0 46.77 38.04 84.81 84.81 84.81 46.76 0 84.81-38.04 84.81-84.81 0-46.76-38.05-84.81-84.81-84.81zm154.9 56.35h31.57v54.6h-31.57s-10.82 3.54-20.18 21.5a142.18 142.18 0 0 1-4.54 11.29c-7.01 20.51-1.54 31.31-1.54 31.31l22.32 22.31-38.61 38.61-22.32-22.32s-11.24-5.69-32.57 1.99c-1.57.69-3.16 1.36-4.76 2-21.36 9.73-25.4 22.08-25.4 22.08v31.56h-54.61v-31.56s-4.03-12.35-25.4-22.08c-1.63-.65-3.25-1.34-4.86-2.05l-.03-.01-1.33-.59c-20.51-7.01-31.3-1.54-31.3-1.54l-22.32 22.32-38.61-38.61 22.31-22.32s5.7-11.23-1.97-32.56c-.7-1.58-1.38-3.17-2.02-4.78-9.72-21.35-22.07-25.39-22.07-25.39H9502v-54.6h31.56s12.35-4.04 22.08-25.4l2.06-4.87v-.03l.59-1.33c7.01-20.51 1.53-31.3 1.53-31.3l-22.31-22.31 38.61-38.62 22.32 22.32s11.24 5.69 32.56-1.98c3.21-1.42 6.5-2.72 9.83-3.9 17.96-9.36 21.5-20.19 21.5-20.19l-.01-31.56h54.61v31.56s4.63 14.21 30.3 24.15l-.15.06c21.47 7.79 32.78 2.06 32.78 2.06l22.32-22.31 38.61 38.61-22.32 22.31s-6.76 13.32 4.35 38.49l-.53-.22c9.55 19.53 21.08 23.3 21.08 23.3" class="cAX1"/><path d="M10085.1 1910.01c-60.5 27.55-87.38 99.22-59.8 159.78 27.5 60.54 99.2 87.39 159.7 59.84 60.6-27.55 87.4-99.21 59.9-159.77-27.6-60.55-99.2-87.4-159.8-59.85zm233.8-18.29l40.9-18.6 32.1 70.71-40.9 18.59s-11.9 10.95-13.4 39.72c.5 5.78.7 11.54.7 17.3 3.1 30.69 16.5 41.43 16.5 41.43l42 15.75-27.2 72.74-42.1-15.75s-17.9-.75-41 21.76c-1.6 1.82-3.2 3.62-4.9 5.39-22 25.18-19.9 43.55-19.9 43.55l18.6 40.87-70.7 32.17-18.6-40.87s-12.5-13.62-45.9-13.62c-2.5.11-5 .18-7.5.2l-.1.01-2 .02c-30.7 3-41.5 16.45-41.5 16.45l-15.7 42.04-72.8-27.24 15.8-42.05s.7-17.91-21.75-40.99c-1.83-1.64-3.64-3.3-5.41-5.01-25.18-21.91-43.54-19.86-43.54-19.86l-40.87 18.59-32.17-70.7 40.87-18.6s13.61-12.5 13.62-45.89c-.11-2.5-.18-5.01-.21-7.52v-.03l-.02-2.07c-3.01-30.68-16.45-41.44-16.45-41.44l-42.04-15.74 27.24-72.74 42.04 15.75s17.91.75 40.99-21.74c3.33-3.74 6.82-7.36 10.44-10.86 17.76-22.7 15.96-38.79 15.96-38.79l-18.61-40.86 70.71-32.17 18.6 40.87s14.3 15.65 53.4 13.41l-.1.17c32.4-2.56 43.6-16.65 43.6-16.65l15.8-42.04 72.7 27.25-15.7 42.04s-.9 21.24 28.3 47.29l-.8.01c23.8 19.67 41 17.75 41 17.75" class="raN6"/><path d="M2502.34 8611.53c-30.82 0-55.9 25.07-55.9 55.9 0 30.82 25.08 55.9 55.9 55.9 30.83 0 55.91-25.08 55.91-55.9 0-30.83-25.08-55.9-55.91-55.9zm102.11 37.14h20.8v35.99h-20.8s-7.13 2.33-13.3 14.17c-.9 2.53-1.9 5.01-3 7.44-4.62 13.52-1.01 20.63-1.01 20.63l14.71 14.71-25.45 25.45-14.72-14.71s-7.4-3.75-21.46 1.31a86.67 86.67 0 0 1-3.14 1.32c-14.08 6.41-16.74 14.55-16.74 14.55v20.81h-35.99v-20.81s-2.66-8.14-16.74-14.55a90.59 90.59 0 0 1-3.21-1.35l-.02-.01-.88-.39c-13.51-4.62-20.63-1.01-20.63-1.01l-14.71 14.71-25.45-25.45 14.71-14.71s3.76-7.41-1.31-21.46a87.15 87.15 0 0 1-1.32-3.15c-6.41-14.07-14.55-16.74-14.55-16.74h-20.8v-35.99h20.8s8.14-2.66 14.55-16.73c.43-1.09.89-2.16 1.36-3.22v-.02l.39-.88c4.62-13.52 1.01-20.63 1.01-20.63l-14.71-14.7 25.46-25.45 14.7 14.7s7.41 3.76 21.46-1.3c2.12-.94 4.29-1.8 6.49-2.58 11.83-6.16 14.17-13.3 14.17-13.3l-.01-20.8h36v20.8s3.05 9.37 19.96 15.92l-.09.04c14.15 5.14 21.61 1.36 21.61 1.36l14.7-14.71 25.45 25.45-14.7 14.71s-4.46 8.78 2.86 25.37l-.35-.14c6.3 12.86 13.9 15.35 13.9 15.35" class="cAX1"/><path d="M2763.79 8472.36c-39.91 18.16-57.6 65.41-39.45 105.32 18.16 39.9 65.4 57.6 105.31 39.44 39.92-18.16 57.61-65.4 39.46-105.3-18.16-39.92-65.4-57.62-105.32-39.46zm154.09-12.06l26.93-12.25 21.2 46.6-26.93 12.26s-7.86 7.22-8.88 26.18c.33 3.81.5 7.61.5 11.4 1.99 20.23 10.85 27.31 10.85 27.31l27.71 10.38-17.96 47.95-27.72-10.38s-11.8-.5-27.02 14.33a138.2 138.2 0 0 1-3.28 3.56c-14.46 16.59-13.11 28.7-13.11 28.7l12.26 26.95-46.6 21.2-12.26-26.94s-8.24-8.98-30.25-8.98a136.3 136.3 0 0 1-4.95.14h-.03l-1.36.02c-20.23 1.98-27.31 10.84-27.31 10.84l-10.38 27.71-47.95-17.96 10.38-27.71s.5-11.81-14.33-27.02c-1.21-1.08-2.4-2.18-3.57-3.31-16.59-14.44-28.7-13.09-28.7-13.09l-26.93 12.26-21.21-46.61 26.94-12.25s8.98-8.24 8.98-30.25a136.3 136.3 0 0 1-.14-4.95v-.03l-.01-1.36c-1.99-20.22-10.85-27.31-10.85-27.31l-27.71-10.38 17.96-47.94 27.71 10.37s11.81.49 27.02-14.32c2.2-2.47 4.49-4.85 6.88-7.16 11.69-14.96 10.51-25.57 10.51-25.57l-12.26-26.93 46.6-21.2 12.26 26.92s9.47 10.33 35.23 8.85l-.11.11c21.35-1.68 28.79-10.97 28.79-10.97l10.37-27.71 47.95 17.97-10.38 27.7s-.61 14 18.66 31.16l-.55.02c15.74 12.96 27.05 11.69 27.05 11.69" class="raN6"/><path d="M17019.774 3843.659c0 30.82 25.007 55.901 55.922 55.901 30.81 0 55.922-25.08 55.922-55.901s-25.112-55.911-55.922-55.911c-30.915 0-55.922 25.091-55.922 55.911zm37.141-102.105v-20.807h35.98v20.807s2.321 7.143 14.244 13.305c2.532.897 4.959 1.889 7.386 2.997 13.506 4.621 20.575 1.013 20.575 1.013l14.772-14.719 25.429 25.45-14.666 14.719s-3.798 7.407 1.266 21.461c.528 1.045.95 2.079 1.372 3.144 6.331 14.075 14.561 16.734 14.561 16.734h20.786v35.99h-20.786s-8.23 2.669-14.561 16.755c-.422 1.066-.95 2.142-1.372 3.197v.021l-.422.876c-4.537 13.527-.95 20.628-.95 20.628l14.666 14.719-25.429 25.45-14.772-14.709s-7.386-3.767-21.525 1.298c-.95.454-1.899.907-3.06 1.329-14.139 6.405-16.671 14.55-16.671 14.55v20.807h-35.98v-20.807s-2.743-8.146-16.882-14.55c-.95-.433-2.005-.897-3.165-1.351v-.011l-.844-.39c-13.506-4.621-20.681-1.013-20.681-1.013l-14.666 14.709-25.534-25.46 14.772-14.698s3.798-7.396-1.372-21.461c-.844-2.11-1.794-4.273-2.427-6.489-6.225-11.839-13.295-14.16-13.295-14.16h-20.892v-36.001h20.892s9.285-3.049 15.827-19.953v.084c5.276-14.149 1.477-21.609 1.477-21.609l-14.772-14.698 25.429-25.45 14.666 14.698s8.863 4.474 25.429-2.859l-.106.348c12.767-6.289 15.299-13.896 15.299-13.896" class="cAX1"/><path d="M16880.688 3582.233c18.176 39.904 65.455 57.597 105.275 39.441 39.925-18.155 57.681-65.392 39.504-105.307-18.176-39.904-65.35-57.607-105.275-39.462-40.03 18.166-57.681 65.403-39.504 105.328zm-12.082-154.099l-12.188-26.928 46.544-21.192 12.188 26.928s7.355 7.859 26.266 8.878c3.782-.326 7.565-.504 11.347-.504 20.383-1.986 27.317-10.853 27.317-10.853l10.401-27.706 48.015 17.977-10.401 27.706s-.525 11.799 14.289 27.023c1.261 1.072 2.416 2.164 3.572 3.278 16.6 14.457 28.788 13.112 28.788 13.112l26.897-12.261 21.118 46.607-26.897 12.251s-8.931 8.237-8.931 30.259c.105 1.639.105 3.289.21 4.949v1.376c1.891 20.236 10.717 27.317 10.717 27.317l27.737 10.38-17.861 47.952-27.842-10.38s-11.767-.504-27.002 14.331c-.946 1.208-2.101 2.395-3.257 3.562-14.394 16.59-13.133 28.704-13.133 28.704l12.293 26.939-46.649 21.202-12.293-26.939s-8.195-8.983-30.154-8.983l-5.043.147h-1.366c-20.172 1.996-27.317 10.853-27.317 10.853l-10.296 27.716-48.015-17.966 10.401-27.706s.525-11.799-14.289-27.023c-2.522-2.196-4.833-4.486-7.144-6.882-15.024-11.683-25.636-10.496-25.636-10.496l-26.897 12.251-21.223-46.607 26.897-12.251s10.401-9.477 8.931-35.228l.105.105c-1.681-21.349-11.032-28.777-11.032-28.777l-27.632-10.391 17.966-47.941 27.737 10.38s13.974.609 31.099-18.66v.546c12.923-15.739 11.662-27.054 11.662-27.054" class="raN6"/><path d="M10337 9196.72c33 33.07 86.8 33.07 119.9 0s33.1-86.88 0-119.94c-33.1-33.07-86.9-33.07-119.9 0-33.1 33.06-33.1 86.87 0 119.94zm-69.7-149.38l-22.4-22.32 38.7-38.61 22.3 22.32s10.1 5.15 29.4-.93c3.7-1.76 7.5-3.35 11.2-4.77 19.5-9.55 23.3-21.05 23.3-21.05v-31.56h54.6v31.57s3.9 11.96 24.4 21.62a160.97 160.97 0 0 1 4.8 1.95c22 8.22 33.6 2.35 33.6 2.35l22.3-22.32 38.6 38.61-22.3 22.32s-5.9 11.59 2.3 33.57c.7 1.61 1.4 3.25 2 4.89v.03l.5 1.36c9.6 19.46 21.1 23.21 21.1 23.21h31.6v54.61h-31.6s-12 3.92-21.6 24.42c-.7 1.61-1.3 3.22-2 4.8-8.2 21.98-2.3 33.57-2.3 33.57l22.3 22.31-38.6 38.62-22.3-22.32s-11.6-5.88-33.6 2.34c-1.6.7-3.3 1.36-4.9 2v.02l-1.4.51c-19.4 9.55-23.2 21.05-23.2 21.05v31.57h-54.6v-31.57s-3.9-11.97-24.4-21.62c-3.3-1.27-6.6-2.67-9.8-4.19-19.3-6.09-29.4-.93-29.4-.93l-22.3 22.31-38.7-38.61 22.4-22.31s6.7-13.32-4.4-38.5l.2.06c-9.7-20.69-21.8-24.63-21.8-24.63h-31.5v-54.61h31.5s14.2-4.63 24.2-30.3l.2.54c7.1-20.56 1.6-31.38 1.6-31.38" class="cAX1"/><path d="M9907.19 9065.54c62.29 23.33 132.01-8.37 155.31-70.66s-8.4-131.96-70.66-155.3c-62.31-23.33-131.97 8.36-155.31 70.66-23.33 62.29 8.36 131.96 70.66 155.3zm-178.23-152.37l-42.05-15.75 27.26-72.73 42.04 15.74s16.17.69 37.61-18.56c3.73-4.44 7.62-8.7 11.69-12.77 19.57-23.83 17.67-40.93 17.67-40.93l-18.6-40.87 70.7-32.16 18.6 40.86s12.13 13.2 44.37 13.61c2.44-.14 4.88-.24 7.34-.29 33.31-2.29 44.85-16.74 44.85-16.74l15.76-42.04 72.7 27.25-15.7 42.04s-.8 18.47 22.8 42.09c1.9 1.68 3.7 3.41 5.5 5.16v.03l1.5 1.44c23.8 19.58 40.9 17.67 40.9 17.67l40.9-18.59 32.1 70.7-40.8 18.59s-13.2 12.13-13.6 44.37l.2 7.36c2.3 33.3 16.8 44.84 16.8 44.84l42 15.75-27.2 72.74-42.1-15.75s-18.4-.79-42 22.81c-1.7 1.85-3.5 3.67-5.2 5.47v.03l-1.5 1.48c-19.6 23.82-17.7 40.93-17.7 40.93l18.6 40.86-70.7 32.17-18.6-40.87s-12.08-13.19-44.31-13.61c-5 .29-10.02.38-15.05.3-28.61 3.5-38.7 16.15-38.7 16.15l-15.76 42.04-72.73-27.25 15.74-42.04s.92-21.23-28.3-47.27l.23-.01c-24.71-21.1-42.65-19.11-42.65-19.11l-40.86 18.6-32.16-70.71 40.86-18.59s15.66-14.36 13.41-53.44l.6.56c-2.98-30.78-16.46-41.56-16.46-41.56" class="raN6"/><path d="M1714.4 7581.48c-39.43 0-71.41-31.97-71.41-71.41 0-39.43 31.98-71.39 71.41-71.39s71.4 31.96 71.4 71.39c0 39.44-31.97 71.41-71.4 71.41" class="anaP"/><path d="M2126.06 7581.48c-39.44 0-71.41-31.97-71.41-71.41 0-39.43 31.97-71.39 71.41-71.39 39.43 0 71.4 31.96 71.4 71.39 0 39.44-31.97 71.41-71.4 71.41" class="K05R"/><path d="M2754.54 7292.4c-39.44 0-71.41-31.98-71.41-71.41s31.97-71.41 71.41-71.41c39.43 0 71.39 31.98 71.39 71.41s-31.96 71.41-71.39 71.41" class="c6gt"/><g class="K05R"><path d="M2984.31 7055.26c-39.43 0-71.4-31.97-71.4-71.41 0-39.43 31.97-71.4 71.4-71.4 39.44 0 71.41 31.97 71.41 71.4 0 39.44-31.97 71.41-71.41 71.41m332.51 0c-39.43 0-71.4-31.97-71.4-71.41 0-39.43 31.97-71.4 71.4-71.4s71.4 31.97 71.4 71.4c0 39.44-31.97 71.41-71.4 71.41"/><use xlink:href="#k6SK"/><path d="M756.184 7294.01c-39.438 0-71.411-31.96-71.411-71.39 0-39.44 31.973-71.4 71.411-71.4 39.429 0 71.398 31.96 71.398 71.4 0 39.43-31.969 71.39-71.398 71.39"/></g><use xlink:href="#k6SK" x="496.26" class="anaP"/><path d="M5512.29 7611.13c-39.44 0-71.41-31.96-71.41-71.4s31.97-71.4 71.41-71.4c39.43 0 71.39 31.96 71.39 71.4s-31.96 71.4-71.39 71.4" class="K05R"/><path d="M5100.63 7611.13c-39.43 0-71.4-31.96-71.4-71.4s31.97-71.4 71.4-71.4 71.4 31.96 71.4 71.4-31.97 71.4-71.4 71.4" class="c6gt"/><path d="M4472.15 7900.21c-39.43 0-71.4-31.96-71.4-71.4 0-39.43 31.97-71.4 71.4-71.4s71.4 31.97 71.4 71.4c0 39.44-31.97 71.4-71.4 71.4m-229.78 94.34c39.44 0 71.4 31.96 71.4 71.4 0 39.43-31.96 71.4-71.4 71.4s-71.4-31.97-71.4-71.4c0-39.44 31.96-71.4 71.4-71.4" class="K05R"/><path d="M3909.86 8137.35c-39.43 0-71.39-31.97-71.39-71.4 0-39.44 31.96-71.4 71.39-71.4 39.44 0 71.4 31.96 71.4 71.4 0 39.43-31.96 71.4-71.4 71.4" class="c6gt"/><path d="M3669.27 7898.59c-39.43 0-71.4-31.96-71.4-71.4 0-39.43 31.97-71.4 71.4-71.4 39.44 0 71.4 31.97 71.4 71.4 0 39.44-31.96 71.4-71.4 71.4m2652.42 0c-39.43 0-71.4-31.96-71.4-71.4 0-39.43 31.97-71.4 71.4-71.4 39.44 0 71.41 31.97 71.41 71.4 0 39.44-31.97 71.4-71.41 71.4" class="K05R"/><path d="M3173.01 7766.46c-33.48 0-60.72 27.25-60.72 60.73s27.24 60.72 60.72 60.72 60.73-27.24 60.73-60.72-27.25-60.73-60.73-60.73zm0 142.81c-45.26 0-82.08-36.82-82.08-82.08s36.82-82.08 82.08-82.08 82.08 36.82 82.08 82.08-36.82 82.08-82.08 82.08" class="F2m6"/><path d="M1053.05 7294.01c-39.44 0-71.405-31.96-71.405-71.39 0-39.44 31.965-71.4 71.405-71.4 39.43 0 71.4 31.96 71.4 71.4 0 39.43-31.97 71.39-71.4 71.39" class="c6gt"/><path d="M1713.8 7813.8c39.44 0 71.41 31.96 71.41 71.4 0 39.43-31.97 71.4-71.41 71.4-39.43 0-71.4-31.97-71.4-71.4 0-39.44 31.97-71.4 71.4-71.4m766.11 134.69c-39.43 0-71.4-31.97-71.4-71.4s31.97-71.4 71.4-71.4c39.44 0 71.4 31.97 71.4 71.4s-31.96 71.4-71.4 71.4m274.63-295.28c-39.44 0-71.41-31.96-71.41-71.4 0-39.43 31.97-71.4 71.41-71.4 39.43 0 71.39 31.97 71.39 71.4 0 39.44-31.96 71.4-71.39 71.4" class="K05R"/><path d="M4249.45 7521.08c-33.48 0-60.72 27.25-60.72 60.73s27.24 60.72 60.72 60.72c33.49 0 60.73-27.24 60.73-60.72s-27.24-60.73-60.73-60.73zm0 142.81c-45.26 0-82.07-36.82-82.07-82.08s36.81-82.08 82.07-82.08 82.08 36.82 82.08 82.08-36.82 82.08-82.08 82.08" class="F2m6"/><path d="M4617.05 7412.62c-39.43 0-71.4-31.97-71.4-71.4 0-39.44 31.97-71.4 71.4-71.4s71.4 31.96 71.4 71.4c0 39.43-31.97 71.4-71.4 71.4" class="K05R"/><path d="M1050.57 7805.69c39.43 0 71.4 31.97 71.4 71.4s-31.97 71.4-71.4 71.4c-39.44 0-71.398-31.97-71.398-71.4s31.958-71.4 71.398-71.4" class="anaP"/><path d="M13385.3 9486.9v-293.68h-76.4l179.7-199.89 179.7 199.89h-76.4v293.68h-206.6" class="Hl8Q"/><path d="M13159.5 9096.8v-276.31h658.2v276.31h-93.3v-189.06h-471.7v189.06h-93.2" fill="#4f4f50"/><path d="M13428.4 4474.89l-83.1 352.42-83.2-352.42h-128.4l-147.4 624.14h128.4l83.2-353.24 83.1 353.24h128.5l83.2-353.24 83.1 353.24h128.5l-147.4-624.14h-128.5m760 0l-83.1 352.42-83.2-352.42h-128.5l-147.3 624.14h128.4l83.2-353.24 83.1 353.24h128.5l83.2-353.24 83.1 353.24h128.5l-147.4-624.14h-128.5m760 0l-83.2 352.42-83.1-352.42h-128.5l-147.4 624.14h128.5l83.2-353.24 83.1 353.24h128.5l83.1-353.24 83.2 353.24h128.4l-147.3-624.14h-128.5" class="F2m6"/><path d="M15277.9 4497.86l-240.6 181.07c-27.9 20.98-26.2-11.17-26-13.95v-.22l21-297.46c.5-4.77 3.1-22.98 15.8-6.79l69.4 88.95 60.1-110.58 42 22.8-60.3 110.94 112.3 9.9c4.8.49 22.5 2.7 6.3 15.34" class="anaP"/><path d="M3733.45 4829.73H2616v1290.15h1117.45zm-558.72-135.3c-30.32 0-54.88 24.57-54.88 54.88 0 30.3 24.56 54.87 54.88 54.87 30.3 0 54.87-24.57 54.87-54.87 0-30.31-24.57-54.88-54.87-54.88zm-642.56 1512.81V4660.7h1285.11v1546.54H2532.17M3675.1 4889.18H2674.35v1171.24H3675.1zm40.55 1212.9H2633.8V4847.52h1081.85v1254.56" class="K05R"/><path d="M2779.88 5237.44h138.13v-138.12h-138.13zm0 237.65h138.13v-138.13h-138.13zm0 237.64h138.13V5574.6h-138.13zm0 237.65h138.13v-138.13h-138.13zm214.73-712.94h138.13v-138.12h-138.13zm0 237.65h138.13v-138.13h-138.13zm0 237.64h138.13V5574.6h-138.13zm0 237.65h138.13v-138.13h-138.13zm222.1-475.29h138.13v-138.13h-138.13zm0 237.64h138.13V5574.6h-138.13zm0 237.65h138.13v-138.13h-138.13zm214.74-475.29h138.13v-138.13h-138.13zm0 237.64h138.13V5574.6h-138.13zm0 237.65h138.13v-138.13h-138.13zm-757.1-1061.2H3675.1v1171.24H2674.35V4889.18m500.38-85c-30.32 0-54.88-24.57-54.88-54.87 0-30.31 24.56-54.88 54.88-54.88 30.3 0 54.87 24.57 54.87 54.88 0 30.3-24.57 54.87-54.87 54.87m-540.93 1297.9h1081.85V4847.52H2633.8zM2616 4829.73h1117.45v1290.15H2616V4829.73" class="BcJX"/><g class="anaP"><use xlink:href="#toiO"/><use xlink:href="#toiO" x="214.73"/><use xlink:href="#toiO" x="436.83"/><use xlink:href="#toiO" x="651.57"/><use xlink:href="#JI1E"/><use xlink:href="#JI1E" x="214.73"/><use xlink:href="#JI1E" x="436.83"/><use xlink:href="#JI1E" x="651.57"/><use xlink:href="#toiO" y="-475.29"/><use xlink:href="#toiO" x="214.73" y="-475.29"/><use xlink:href="#toiO" x="436.83" y="-475.29"/><use xlink:href="#toiO" x="651.57" y="-475.29"/><path d="M2918.01 5237.44h-138.13v-138.12h138.13v138.12m214.73 0h-138.13v-138.12h138.13v138.12"/></g><path d="M2213.09 1037.9h-418.55v717.29h418.55zm-450 743.31l5.23-766.91h482.61l-5.23 766.91h-482.61m-12.45-784.71l-5.47 802.5h518.2l5.48-802.5zm253.17-93.598c-21.27 0-38.5 17.2-38.5 38.5 0 21.2 17.23 38.5 38.5 38.5 21.26 0 38.5-17.3 38.5-38.5 0-21.3-17.24-38.5-38.5-38.5zm-296.49 950.538V874.5h592.98v978.94h-592.98" class="F2m6"/><path d="M1847.9 1152.3h311.83v-66.1H1847.9zm0 112.18h77.01v-76.98h-77.01zm0 109.55h77.01v-77.02h-77.01zm0 108.6h77.01v-77.01h-77.01zm0 108.61h77.01v-77.02h-77.01zm0 108.59h77.01v-77.01h-77.01zm117.4-435.35h77.02v-76.98h-77.02zm0 109.55h77.02v-77.02h-77.02zm0 108.6h77.02v-77.01h-77.02zm0 108.61h77.02v-77.02h-77.02zm0 108.59h77.02v-77.01h-77.02zm117.41-325.8h77.02v-77.02h-77.02zm0 108.6h77.02v-77.01h-77.02zm0 108.61h77.02v-77.02h-77.02zm0 108.59h77.02v-77.01h-77.02zm-288.17-661.93h418.55v717.29h-418.55V1037.9m209.27-57.998c-21.27 0-38.5-17.3-38.5-38.5 0-21.3 17.23-38.5 38.5-38.5 21.26 0 38.5 17.2 38.5 38.5 0 21.2-17.24 38.5-38.5 38.5" class="BcJX"/><path d="M1924.91 1699.83h-77.01v-77.01h77.01v77.01m117.41 0h-77.02v-77.01h77.02v77.01m117.41 0h-77.02v-77.01h77.02v77.01m-234.82-108.59h-77.01v-77.02h77.01v77.02m117.41 0h-77.02v-77.02h77.02v77.02m117.41 0h-77.02v-77.02h77.02v77.02m-234.82-108.61h-77.01v-77.01h77.01v77.01m117.41 0h-77.02v-77.01h77.02v77.01m117.41 0h-77.02v-77.01h77.02v77.01m-234.82-108.6h-77.01v-77.02h77.01v77.02m117.41 0h-77.02v-77.02h77.02v77.02m-117.41-109.55h-77.01v-76.98h77.01v76.98m117.41 0h-77.02v-76.98h77.02v76.98m117.41 109.55h-77.02v-77.02h77.02v77.02" fill="#7db7c9"/><path d="M2159.73 1152.3H1847.9v-66.1h311.83v66.1" class="K05R"/><path d="M1768.32 1014.3l-5.23 766.91h482.61l5.23-766.91zm-23.15 784.7l5.47-802.5h518.21l-5.48 802.5h-518.2" class="eBOE"/><path d="M4872.6 4753.78c-43.3 43.31-113.41 43.26-156.71-.03-43.21-43.22-43.29-113.35.02-156.66 43.3-43.3 113.46-43.26 156.68-.03 43.29 43.29 43.31 113.42.01 156.72m180.54 182.66c-87.1 87.1-208.94 121.06-329.04 103.7l8.96-151.62c75.45 10.58 151.87-10.94 206.55-65.62 56.74-56.74 77.71-136.86 64.21-214.98l151.29-10.92c20.92 123.45-12.35 249.83-101.97 339.44m180.95 180.94c-138.62 138.62-333.16 191.75-524.2 162.41l8.99-151.66c146.4 22.57 295.49-18.07 401.69-124.27 108.99-109 148.92-263.06 122.38-413.11l151.36-10.86c33.89 195.32-18.38 395.65-160.22 537.49m-298.32 4027.3h-401.38v225.15h401.38v105.65L5154 9257.26l-218.23-218.24v105.66m-626.6 587.89h401.39v-225.14h-401.39v-105.66L4090.94 9620l218.23 218.23v-105.66" class="K05R"/><path d="M3900.25 10072.7l-197.33-104.33-197.34 104.33 197.34 104.3 197.33-104.3" class="Hl8Q"/><path d="M3505.58 10072.7v-213.46l197.34-104.3v213.43l-197.34 104.33" class="BcJX"/><path d="M3899.64 10072.7v-213.46l-197.34-104.3v213.43l197.34 104.33" class="K05R"/><path d="M4043.93 9043.19l-197.34-104.29-197.34 104.29 197.34 104.29 197.34-104.29" class="Hl8Q"/><path d="M3649.25 9043.19v-213.43l197.34-104.3v213.44l-197.34 104.29" class="BcJX"/><path d="M4043.31 9043.19v-213.43l-197.33-104.3v213.44l197.33 104.29" class="K05R"/><path d="M3693.43 10362.2h-178.36v178.4h178.36v-178.4m513.52-218.7H4028.6v178.4h178.35v-178.4m252.19-1315.04h-178.36v178.35h178.36v-178.35" class="F2m6"/><path d="M3448.92 9652.94l-332.84-175.9-332.85 175.9 332.85 175.91 332.84-175.91" class="anaP"/><path d="M2783.24 9652.94v-359.98l332.84-175.91v359.99l-332.84 175.9" class="BcJX"/><path d="M3447.89 9652.94v-359.98l-332.85-175.91v359.99l332.85 175.9" class="K05R"/><path d="M8866.83 8698.04H7462.6v911.32h1404.23v-911.32" class="glJ6"/><g class="hG7C"><path d="M8164.72 9055l-702.12 429.99v29.83l702.12-429.76 702.11 429.76v-29.83L8164.72 9055"/><path d="M7462.6 8698.04v18.03l493.33 488.1 18.03-18.22-493.13-487.91h-18.23m1404.23 0h-13.84l-493.13 487.91 18.04 18.22 488.93-483.75v-22.38"/></g><path d="M7841.27 10093.3c-68.49 0-124-55.5-124-123.98s55.51-124 124-124c68.48 0 124 55.52 124 124s-55.52 123.98-124 123.98" class="K05R"/><g clip-path="url(#Eyyp)"><path d="M7841.27 9845.33h-1.5c-67.3.79-121.7 55.2-122.49 122.49v3c.79 67.28 55.19 121.68 122.49 122.48h1.5v-247.97" fill="#9e9fa1"/></g><path d="M15064.2 2830.77l562.5-1301.84 217 444.18-779.5 857.66" class="BcJX"/><path d="M15064.2 2830.77l-562.5-1301.84h1125l-562.5 1301.84" class="glJ6"/><path d="M13899.6 3584.48l313-724.38 120.7 247.15-433.7 477.23" class="BcJX"/><path d="M13899.6 3584.48l-313-724.38h626l-313 724.38" fill="#437c75"/><path d="M15984.4 987.5c-68.5 0-124-55.5-124-124 0-68.398 55.5-124 124-124 68.4 0 124 55.602 124 124 0 68.5-55.6 124-124 124" class="K05R"/><g clip-path="url(#CYn1)"><path d="M15984.4 739.5c-68.5 0-124 55.602-124 124 0 68.5 55.5 124 124 124v-248" fill="#9e9fa1"/></g><path d="M16082.661 5645.589c-170.349 0-308.619-138.159-308.619-308.599 0-170.429 138.27-308.578 308.619-308.578 170.449 0 308.619 138.149 308.619 308.578 0 170.439-138.169 308.599-308.619 308.599" class="eBOE"/><g clip-path="url(#qH5M)"><path d="M16082.6 5028.39c-170.4 0-308.6 138.15-308.6 308.58 0 164.1 128.1 298.29 289.8 308.02-161.7-9.73-289.8-143.92-289.8-308.02 0-170.43 138.2-308.58 308.6-308.58h0" class="eNnx"/><path d="M16082.6 5028.39c-170.4 0-308.6 138.15-308.6 308.58 0 164.1 128.1 298.29 289.8 308.02 6.2.38 12.5.57 18.8.57v-617.17" class="MToD"/></g><path d="M10053.3 1314.03c-170.45 0-308.6-138.13-308.6-308.53 0-170.5 138.15-308.602 308.6-308.602 170.4 0 308.6 138.102 308.6 308.602 0 170.4-138.2 308.53-308.6 308.53" class="anaP"/><g clip-path="url(#DUWN)"><path d="M10053.3 696.898c-153.49 0-280.8 112.004-304.61 258.704h.01c23.81-146.7 151.11-258.704 304.6-258.704h0M9744.7 1005.5h-.01c0 86.8 35.89 165.3 93.64 221.36v-.01c-57.75-56.05-93.63-134.55-93.63-221.35m143.46 260.68v.01c44.61 28.31 96.97 45.48 153.24 47.62-56.27-2.14-108.63-19.32-153.24-47.63" class="eNnx"/><path d="M9748.7 955.602h-.01c-2.63 16.296-4 32.898-4 49.898h.01c0-17 1.37-33.602 4-49.898m89.63 271.248v.01a310.92 310.92 0 0 0 49.83 39.33v-.01a309.8 309.8 0 0 1-49.83-39.33" fill="#d1d1d0"/><path d="M10053.3 696.898c-153.49 0-280.79 112.004-304.6 258.704-2.63 16.296-4 32.898-4 49.898h0c0 86.8 35.88 165.3 93.63 221.35a309.8 309.8 0 0 0 49.83 39.33c44.61 28.31 96.97 45.49 153.24 47.63 3.9.15 7.9.22 11.9.22V696.898" class="ZWuD"/></g><path d="M2054.65 9496.98c-79.54 0-144.03-64.48-144.03-144.02 0-79.55 64.49-144.02 144.03-144.02s144.03 64.47 144.03 144.02c0 79.54-64.49 144.02-144.03 144.02" class="anaP"/><g clip-path="url(#K1yE)"><path d="M2054.65 9208.93c-26.83 0-51.95 7.33-73.45 20.11h0c21.51-12.77 46.62-20.1 73.45-20.1 79.54 0 144.03 64.47 144.03 144.02h0c0-79.55-64.49-144.03-144.03-144.03m-101.78 42.12c-26.1 26.07-42.25 62.1-42.25 101.91h0c0-39.81 16.15-75.84 42.25-101.91h0" class="eNnx"/><path d="M1981.2 9229.04a144.64 144.64 0 0 0-28.33 22.01h0a145.02 145.02 0 0 1 28.33-22.01h0" fill="#545557"/><path d="M2054.65 9208.94c-26.83 0-51.94 7.33-73.45 20.1a145.02 145.02 0 0 0-28.33 22.01c-26.1 26.07-42.25 62.1-42.25 101.91h288.06c0-79.55-64.49-144.02-144.03-144.02" class="ZWuD"/></g><path d="M2054.65 10559.1c-79.54 0-144.03-64.5-144.03-144.1 0-79.5 64.49-144 144.03-144s144.03 64.5 144.03 144c0 79.6-64.49 144.1-144.03 144.1" class="anaP"/><g clip-path="url(#JevO)"><path d="M2054.65 10271c-79.54 0-144.03 64.5-144.03 144h0c0-79.5 64.49-144 144.03-144s144.03 64.5 144.03 144h0c0-79.5-64.49-144-144.03-144" class="eNnx"/><path d="M2054.65 10271c-79.54 0-144.03 64.5-144.03 144h288.06c0-79.5-64.49-144-144.03-144" class="ZWuD"/></g><path d="M1363.69 8785.41c-79.54 0-144.02-64.48-144.02-144.03 0-79.54 64.48-144.02 144.03-144.02 79.54 0 144.02 64.48 144.02 144.02 0 79.55-64.48 144.03-144.03 144.03" class="anaP"/><g clip-path="url(#FBn6)"><path d="M1419.74 8508.66v.01c51.7 21.86 87.98 73.05 87.98 132.71h0c0-59.66-36.28-110.86-87.98-132.72" class="eNnx"/><path d="M1363.7 8497.35c-79.55 0-144.03 64.49-144.03 144.03h0c0-79.54 64.48-144.02 144.03-144.02 19.87 0 38.81 4.03 56.04 11.31v-.01c-17.23-7.28-36.17-11.31-56.04-11.31" fill="#d1d1d0"/><path d="M1363.7 8497.36c-79.55 0-144.03 64.48-144.03 144.02h288.05c0-59.66-36.28-110.85-87.98-132.71-17.23-7.28-36.17-11.31-56.04-11.31" class="ZWuD"/></g><path d="M6126.89 3716.02c-111.15 0-201.25-90.11-201.25-201.26s90.1-201.26 201.25-201.26c111.16 0 201.26 90.11 201.26 201.26s-90.1 201.26-201.26 201.26" class="eBOE"/><g clip-path="url(#avGF)"><path d="M6126.89 3313.5c-111.15 0-201.25 90.11-201.25 201.26 0 77.79 44.14 145.28 108.74 178.78h0c-64.6-33.5-108.74-100.99-108.74-178.78 0-111.15 90.1-201.26 201.25-201.26h0m-40.85 398.37h0c8.9 1.84 18.01 3.08 27.29 3.7-9.28-.62-18.39-1.86-27.29-3.7" class="eNnx"/><path d="M6126.89 3313.5c-111.15 0-201.25 90.11-201.25 201.26 0 77.79 44.14 145.28 108.74 178.78 16.08 8.34 33.42 14.57 51.66 18.33 8.9 1.84 18.01 3.08 27.29 3.7a202.9 202.9 0 0 0 13.56.45V3313.5" class="MToD"/></g><path d="M5852.82 10241.7c-111.15 0-201.26-90.2-201.26-201.3 0-111.16 90.11-201.27 201.26-201.27s201.25 90.11 201.25 201.27c0 111.1-90.1 201.3-201.25 201.3" class="eBOE"/><g clip-path="url(#uXbE)"><path d="M5852.82 9839.13c-111.15 0-201.27 90.11-201.27 201.27 0 106.8 83.21 194.2 188.34 200.8-105.13-6.6-188.33-94-188.33-200.8 0-111.16 90.11-201.27 201.26-201.27h0" class="eNnx"/><path d="M5852.82 9839.13c-111.15 0-201.26 90.11-201.26 201.27 0 106.8 83.2 194.2 188.33 200.8 4.28.3 8.59.5 12.93.5v-402.57" class="MToD"/></g><path d="M850.266 6433.83c-111.149 0-201.25-90.11-201.25-201.26s90.101-201.25 201.25-201.25c111.156 0 201.264 90.1 201.264 201.25s-90.108 201.26-201.264 201.26" class="eBOE"/><g clip-path="url(#QP7F)"><path d="M850.266 6031.32c-111.149 0-201.254 90.1-201.254 201.25 0 106.59 82.867 193.83 187.691 200.81-104.824-6.98-187.687-94.22-187.687-200.81 0-111.15 90.101-201.25 201.25-201.25h0" class="eNnx"/><path d="M850.266 6031.32c-111.149 0-201.25 90.1-201.25 201.25 0 106.59 82.863 193.83 187.687 200.81 4.481.3 9.004.45 13.563.45v-402.51" class="MToD"/></g><path d="M4683.46 1445.69c-69.17 0-125.25-56.08-125.25-125.25 0-69.18 56.08-125.24 125.25-125.24s125.25 56.06 125.25 125.24c0 69.17-56.08 125.25-125.25 125.25" class="eBOE"/><g clip-path="url(#DcjT)" class="MToD"><path d="M4683.46 1195.2c-69.17 0-125.25 56.06-125.25 125.24 0 69.17 56.08 125.25 125.25 125.25V1195.2"/></g><path d="M1642.41 3548.82c-69.18 0-125.26-56.08-125.26-125.25 0-69.18 56.08-125.26 125.26-125.26 69.17 0 125.25 56.08 125.25 125.26 0 69.17-56.08 125.25-125.25 125.25" class="eBOE"/><g clip-path="url(#qGvv)" class="MToD"><path d="M1642.41 3298.31c-69.18 0-125.26 56.08-125.26 125.26 0 69.17 56.08 125.25 125.26 125.25v-250.51"/></g><path d="M16096.2 4433.29c0 82.71-67.1 149.77-149.8 149.77s-149.8-67.06-149.8-149.77c0-55.92 30.7-104.64 76.1-130.37v132.21h144.4v-133.86c47.1 25.26 79.1 74.89 79.1 132.02m-223.5-193.08v28.6c-62.8 28.23-106.6 91.31-106.6 164.48 0 99.42 80.9 180.29 180.3 180.29s180.3-80.87 180.3-180.29c0-74.32-45.2-138.26-109.6-165.81v-1.86h50c52.1 37.57 86 98.72 86 167.67 0 113.99-92.7 206.71-206.7 206.71s-206.7-92.72-206.7-206.71c0-88.03 55.3-163.34 133-193.08" class="anaP"/><path d="M15978.8 4425.34h-64.8v-32.83h64.8v32.83m262.7-226.28h-64.8v-128.67h32.8v95.83h32v32.84m-.1-385.36h32.9v96.52h-32.9v-96.52m-391.3 131.82v67.19h-32.8v-67.19h32.8m-1.8-.37v-67.2h32.9v67.2h-32.9m65.7-67.2h-32.8v-67.18h32.8v67.18m294.6-64.25v-64.54h-261.8v61.61h-32.8v-93h327.4v95.93h-32.8m-197 451.92v126.89h-32.8v-291.95h32.8v132.21h68.3v32.85h-68.3m262.758-132.212V3910.24h32.814v223.168h-32.814m-194.458 98.472v-127.77h32.9v94.95h63.9v32.82h-96.8m-231.6-155.27h32.9v-108.89h32.8v424.79h-32.8v-283.07h-32.9v31.07h-96.7v-94.96h32.8v62.11h63.9v-31.05m393.2 89.61v-32.83h32.8v32.83h-32.8m-424.2-120.67h-32.9v-32.84h32.9v32.84" fill="#4f4f50"/><path d="M14794.6 8503.5c-14.8 38.03-57.6 56.87-95.6 42.07-38.1-14.79-56.9-57.62-42.1-95.65 14.8-38.04 57.6-56.88 95.7-42.08 38 14.8 56.8 57.62 42 95.66" class="Hl8Q"/><path d="M15086.9 9282.86c-14.8 38.03-57.7 56.87-95.7 42.08-38-14.8-56.9-57.63-42.1-95.66s57.6-56.87 95.7-42.08c38 14.8 56.8 57.63 42.1 95.66m610-126.11c-14.8 38.03-57.6 56.87-95.6 42.07-38.1-14.79-56.9-57.62-42.1-95.65s57.6-56.88 95.6-42.08c38.1 14.8 56.9 57.63 42.1 95.66" class="K05R"/><path d="M16040.1 10035.4c-14.8 38-57.6 56.9-95.6 42.1-38.1-14.8-56.9-57.6-42.1-95.69 14.8-38.03 57.6-56.87 95.6-42.07 38.1 14.79 56.9 57.62 42.1 95.66" class="anaP"/><path d="M16510.627 9732.788c-14.802 38.029-57.586 56.866-95.604 42.064-38.12-14.802-56.876-57.616-42.074-95.655 14.802-38.019 57.586-56.866 95.604-42.074 38.12 14.802 56.876 57.636 42.074 95.665m273.801 463.42c-14.738 38.041-57.509 56.88-95.539 42.081-38.133-14.79-56.891-57.633-42.153-95.642 14.841-38.041 57.612-56.88 95.642-42.081 38.133 14.79 56.891 57.612 42.05 95.642" class="K05R"/><path d="M5372.59 6378.79l-105.7-105.7 114.77-114.77 105.7 105.7c-21.62 15.78-42.31 33.42-61.83 52.94s-37.16 40.21-52.94 61.83" class="Hl8Q"/><path d="M6125.91 6354.61c-91.36-91.36-211.36-137.03-331.36-137.03-120.01 0-240.01 45.67-331.37 137.03-182.71 182.71-182.71 480.01 0 662.73 182.71 182.71 480.01 182.71 662.73 0 182.71-182.72 182.71-480.02 0-662.73zm37.64 700.38c-203.79 203.8-534.22 203.8-738.02 0-184.28-184.28-201.92-472.08-52.94-676.2 15.78-21.62 33.42-42.31 52.94-61.83s40.21-37.16 61.83-52.94c204.12-148.98 491.92-131.34 676.19 52.94 203.81 203.8 203.81 534.23 0 738.03m-108.1-629.91c-144.1-144.1-377.72-144.1-521.81 0-144.09 144.09-144.09 377.71 0 521.79 144.09 144.1 377.71 144.1 521.81 0 144.09-144.08 144.09-377.7 0-521.79zm57.88 579.68c-87.88 87.87-203.35 131.83-318.78 131.83-115.47 0-230.89-43.93-318.79-131.83-175.77-175.78-175.77-461.79 0-637.57 175.78-175.77 461.79-175.77 637.57 0 175.77 175.78 175.77 461.79 0 637.57" class="K05R"/><path d="M6055.45 6946.87c-144.1 144.1-377.72 144.1-521.81 0-144.09-144.08-144.09-377.7 0-521.79 144.09-144.1 377.71-144.1 521.81 0 144.09 144.09 144.09 377.71 0 521.79" class="hG7C"/><path d="M5230.07 6309.91l-86.63-86.63 188.41-188.41 86.63 86.63-188.41 188.41" class="K05R"/><path d="M5171.64 6195.08l-5.34 5.34-446.8-446.8 142.69-142.69 446.79 446.8-137.34 137.35" class="anaP"/><path d="M6113.33 6367.19c-175.78-175.77-461.79-175.77-637.57 0-175.77 175.78-175.77 461.79 0 637.57 87.9 87.9 203.32 131.83 318.79 131.83 115.43 0 230.9-43.96 318.78-131.83 175.77-175.78 175.77-461.79 0-637.57zm12.58 650.15c-182.72 182.71-480.02 182.71-662.73 0-182.71-182.72-182.71-480.02 0-662.73 91.36-91.36 211.36-137.03 331.37-137.03 120 0 240 45.67 331.36 137.03 182.71 182.71 182.71 480.01 0 662.73" class="hG7C"/><path d="M17322.825 8415.439c0-376.213-304.903-681.191-681.223-681.191-376.213 0-681.223 304.977-681.223 681.191 0 376.224 305.009 681.201 681.223 681.201 376.32 0 681.223-304.977 681.223-681.201" class="eBOE"/><path d="M16641.706 8870.901c-251.103 0-455.373-204.292-455.373-455.416 0-251.103 204.271-455.405 455.373-455.405 251.208 0 455.479 204.302 455.479 455.405 0 251.124-204.271 455.416-455.479 455.416zm0-967.777c-282.464 0-512.308 229.855-512.308 512.361 0 282.517 229.844 512.361 512.308 512.361 282.569 0 512.414-229.844 512.414-512.361 0-282.506-229.844-512.361-512.414-512.361" class="hG7C"/><path d="M6571.87 4934.07l-180.13 763.32-180.13-763.32h-278.22l-319.24 1351.86h278.22l180.13-765.1 180.13 765.1h278.22l180.13-765.1 180.13 765.1h278.22l-319.24-1351.86h-278.22m688.39 1351.86h815.04v-271.09h-545.74v-269.3h545.74v-271.08h-545.74v-269.31h545.74v-271.08h-815.04v1351.86m1369.68-1080.78c74.91 0 135.54 58.86 135.54 133.77 0 74.9-60.63 135.54-135.54 135.54h-194.39v-269.31zm-85.6 540.39c74.9 0 135.54 60.64 135.54 133.76 0 74.91-60.64 135.54-135.54 135.54h-108.79v-269.3zm404.84 133.76c0-82.03-24.97-158.72-65.99-222.93 92.74-74.91 151.6-189.05 151.6-317.45 0-222.94-181.91-404.85-404.85-404.85h-463.7v1351.86h378.1c224.71 0 404.84-181.91 404.84-406.63m176.55 0c0 224.72 181.91 406.63 404.84 406.63 156.94 0 301.41-53.5 415.55-142.67l-194.4-194.4c-62.42 41.02-139.11 65.98-221.15 65.98-74.9 0-135.54-60.63-135.54-135.54 0-32.1 12.48-62.42 32.1-87.39 42.81-48.15 112.36-57.07 180.13-60.64 221.15-10.69 390.58-164.07 390.58-392.35 0-222.94-181.91-404.85-404.85-404.85-181.91 0-345.99 71.34-467.26 187.26l190.83 190.83c73.12-67.77 169.43-108.79 276.43-108.79 73.13 0 133.76 60.64 133.76 135.55 0 41.01-16.05 82.03-53.5 103.43-64.21 37.46-171.21 26.76-238.98 42.81-176.57 44.58-308.54 203.31-308.54 394.14m963.07 406.63h269.3V4934.07h-269.3v1351.86m1011.2-271.09V4934.07h-271.1v1080.77H10449v271.09h1030.9v-271.09H11100m470.8 271.09h815v-271.09h-545.7v-269.3h545.7v-271.08h-545.7v-269.31h545.7v-271.08h-815v1351.86" class="F2m6"/><path d="M16189.5 8697.95l-194.1 112.07-194.1-112.07 194.1-112.06 194.1 112.06" class="anaP"/><path d="M15801.3 8697.95v-1995.1l194.1-112.07v1995.11l-194.1 112.06" class="K05R"/><path d="M15995.4 8585.89V6590.78l194.1 112.07v1995.1l-194.1-112.06" class="BcJX"/><path d="M15898.4 7781.45l-194.1 112.06-194.1-112.06 194.1-112.07 194.1 112.07" class="anaP"/><path d="M15510.2 7781.45V6524.89l194.1-112.07v1256.56l-194.1 112.07" class="K05R"/><path d="M15704.3 7669.38V6412.82l194.1 112.07v1256.56l-194.1-112.07" class="BcJX"/><path d="M15607.2 8183.54l-194.1 112.06-194.1-112.06 194.1-112.08 194.1 112.08" class="anaP"/><path d="M15219 8183.54v-1836.6l194.1-112.07v1836.59l-194.1 112.08" class="K05R"/><path d="M15413.1 8071.46V6234.87l194.1 112.07v1836.6l-194.1-112.08" class="BcJX"/><path d="M15316.1 7425.54L15122 7537.6l-194.1-112.06 194.1-112.07 194.1 112.07" class="anaP"/><path d="M14927.9 7425.54V6168.99l194.1-112.07v1256.55l-194.1 112.07" class="K05R"/><path d="M15122 7313.47V6056.92l194.1 112.07v1256.55l-194.1-112.07" class="BcJX"/></g></svg>