<svg xmlns="http://www.w3.org/2000/svg" xmlns:xlink="http://www.w3.org/1999/xlink" viewBox="0 0 1168.175 540.43"><style><![CDATA[.B{fill:#eeeeec}.C{stroke:#3465a4}.D{fill:#fff}.E{fill:#d3d7cf}.F{fill:#8f5902}.G{fill:#6b6f57}.H{fill:#555753}.I{fill:url(#c)}.J{fill:url(#d)}.K{fill:url(#e)}.L{fill:#d7e0b1}.M{fill:#bfcd82}]]></style><defs><linearGradient id="A" x1="835.22" x2="837.38" y1="1146" y2="1352.1" xlink:href="#z"><stop stop-color="#99bdd8" offset="0"/><stop stop-color="#778a96" offset="1"/></linearGradient><linearGradient id="B" xlink:href="#z"><stop stop-color="#fff" offset="0"/><stop stop-color="#d4e7f7" stop-opacity="0" offset="1"/></linearGradient><linearGradient id="C" x2="0" y1="1609.1" y2="883.09" xlink:href="#z"><stop stop-color="#555753" offset="0"/><stop stop-color="#a4cded" offset="1"/></linearGradient><linearGradient id="D" xlink:href="#z"><stop stop-color="#729fcf" offset="0"/><stop offset="1"/></linearGradient><linearGradient id="E" xlink:href="#z"><stop stop-color="#8a9da5" offset="0"/><stop stop-color="#74848a" offset="1"/></linearGradient><linearGradient id="F" x2="0" y1="-989.64" y2="-329.5" xlink:href="#z"><stop offset="0"/><stop stop-color="#204a87" offset="1"/></linearGradient><linearGradient id="G" xlink:href="#z"><stop stop-color="#898e79" offset="0"/><stop stop-color="#a8ad9b" offset="1"/></linearGradient><linearGradient id="H" x2="0" y1="1349.1" y2="1435.1" xlink:href="#z"><stop stop-color="#50653b" offset="0"/><stop stop-color="#73d216" offset="1"/></linearGradient><linearGradient id="I" xlink:href="#z"><stop stop-color="#8a9da5" offset="0"/><stop offset="1"/></linearGradient><linearGradient id="J" xlink:href="#z"><stop stop-color="#fff" offset="0"/><stop stop-color="#fff" stop-opacity="0" offset="1"/></linearGradient><linearGradient id="K" xlink:href="#z"><stop stop-color="#448552" offset="0"/><stop stop-color="#8f5902" offset="1"/></linearGradient><linearGradient id="L" x1="1193.005" x2="1242.43" y1="907.236" y2="1582.99" xlink:href="#z"><stop stop-color="#93c3ea" offset="0"/><stop stop-color="#93c3ea" stop-opacity="0" offset="1"/></linearGradient><linearGradient id="M" x1="1173.066" x2="1246.286" y1="949.786" y2="1114.263" xlink:href="#B"/><linearGradient id="N" x1="1143.113" x2="1228.567" y1="1022.869" y2="1100.881" xlink:href="#B"/><linearGradient id="O" x1="1481.3" x2="1536.4" y1="897.09" y2="1096.7" xlink:href="#B"/><linearGradient id="P" x1="1434.7" x2="1518.5" y1="975.09" y2="1078.5" xlink:href="#B"/><linearGradient id="Q" x1="-1194.8" x2="-1282" y1="348.36" y2="-265.64" gradientTransform="matrix(2.4737 0 0 .49686 1954 -155.14)" xlink:href="#G"/><linearGradient id="R" x1="-1128.117" x2="-1215.317" y1="321.808" y2="-133.866" xlink:href="#G"/><linearGradient id="S" x1="-961.44" x2="-1006.2" y1="-638.85" y2="-926.54" xlink:href="#G"/><linearGradient id="T" x1="-1194.8" x2="-1282" y1="348.36" y2="-265.64" xlink:href="#G"/><linearGradient id="U" x1="-593.991" x2="-589.954" y1="75.076" y2="143.837" xlink:href="#I"/><linearGradient id="V" x1="-864.364" x2="-857.653" y1="75.076" y2="143.837" xlink:href="#I"/><linearGradient id="W" x1="-878" x2="-857.25" y1="264.52" y2="481.36" xlink:href="#E"/><linearGradient id="X" x1="-1161.375" x2="-1152.389" y1="-22.065" y2="46.482" xlink:href="#D"/><linearGradient id="Y" x1="-590.94" x2="-585.98" y1="76.555" y2="122.36" gradientTransform="matrix(2.5064 0 0 1.4965 319.3 -102.63)" xlink:href="#D"/><linearGradient id="Z" x1="-878" x2="-857.25" y1="264.52" y2="481.36" gradientTransform="matrix(2.3394 0 0 1.1064 1777.2 -807.77)" xlink:href="#E"/><linearGradient id="a" x1="841.401" x2="856.28" y1="933.707" y2="1041.763" xlink:href="#J"/><linearGradient id="b" x1="74" x2="90.008" y1="362.36" y2="439.21" gradientTransform="matrix(.88792 -.06452 .07248 .99737 749.08 603.17)" xlink:href="#B"/><linearGradient id="c" x1="629" x2="644.77" y1="1312.4" y2="1221.1" xlink:href="#K"/><linearGradient id="d" x1="647.6" x2="682.03" y1="1236.9" y2="1170.9" xlink:href="#K"/><linearGradient id="e" x2="0" y1="1130.2" y2="1229.2" xlink:href="#K"/><linearGradient id="f" x1="62" x2="69.008" y1="330.36" y2="439.21" gradientTransform="matrix(-.57969 -.04212 -.04212 .57969 720.38 971.12)" xlink:href="#J"/><path id="g" d="M-1183.7-233.64h8.55v40h-8.55v-40z"/><path id="h" d="M-574.815 146.58h4v292.94h-4z"/><path id="i" d="M-915.7 106.25h113.14v9.192H-915.7z"/><path id="j" d="M-1225 40.46h20.577v38.1H-1225z"/><path id="k" d="M-1211.7 42.7h5.002v10.17l-5.002-10.17z"/><path id="l" d="M-1205.7 72.34v5.002h-17.593l17.593-5.002z"/><path id="m" d="M-1204.423 40.46h20.577v38.1h-20.577z"/><path id="n" d="M-360.6-691.75H-95.9v9.192H-360.6z"/><path id="o" d="M-113.664-354.07h16.97v28.99h-16.97z"/><path id="p" d="M858.143 1272.792c12.808 6.65 21.04 16.994 21.04 28.6 0 13.53-11.16 25.334-27.723 31.588-12.808-6.65-21.04-16.994-21.04-28.6 0-13.53 11.16-25.334 27.723-31.588z"/><path id="q" d="M836.25 1303.078l15.046 18.973 1.933-1.67-16.98-17.303z"/><path id="r" d="M869.858 1300.652l-15.592 14.685-2.003-1.293 17.595-13.392z"/><path id="s" d="M1562.733 1284.782c12.808 6.65 18.72 34.4 18.72 46.026 0 13.53-8.84 7.918-25.4 14.172-12.808-6.65-22.783-1.9-22.783-13.516 0-13.53 12.903-40.428 29.465-46.682z"/><path id="t" d="M1558.814 1301.693l-6.966 60.334h8.708l-1.742-60.334z"/><path id="u" d="m647.27 1250.2-12 103.93h15l-3-103.93z"/><path id="v" d="M751.5 874.36c-35.07 0-59.5 22.446-59.5 41.5s35.43 24.5 70.5 24.5c23.646-7.6 28.454 19.25 51.5 21 19.33 0 35-9.402 35-21 1.966-19.66-30.337-15.033-30-24.5 0-19.054-32.43-41.5-67.5-41.5z"/><path id="w" d="M757.88 891.36c-27.008 0-45.822 17.286-45.822 31.96s27.285 18.868 54.293 18.868c18.2-5.86 21.913 14.825 39.66 16.172 14.886 0 26.954-7.24 26.954-16.172 1.514-15.14-23.363-11.577-23.103-18.868 0-14.674-24.975-31.96-51.983-31.96z"/><path id="x" d="M801.96 935.2l-46.918 27.47-2.33-10.667L801.96 935.2z"/><path id="y" d="M724.07 924.12l27.358 34.34 2.95-8.95-30.308-25.388z"/><linearGradient id="z" gradientUnits="userSpaceOnUse"/></defs><g transform="translate(-660.38 -844.96)"><path d="M662.38 844.96h1160.2v532.35H662.38z" fill="url(#L)"/><path d="M799.87 1126.1v17.248h-9.486v208.7h94v-208.7h-11.21V1126.1H799.87z" fill="url(#A)"/><path d="M1172.8 988.5c-17.13 2.368-30.182 17.95-32.683 34.57-5.826 5.456-12.195 10.41-19.628 4.597-11.558-2.2-24.074 4.423-28.89 15.13-14.058-4.583-30.58 10.94-24.17 25.163 4.27 10.648 18.746 14.88 28.422 9.09 9.22 12.304 29.83 13.62 40.074 1.92 9.428 4.457 21.55 9.953 30.915 2.34 8.848-5.67 20.067-.778 28.845-6.208 7.348-6.324 15.02-9.022 24.23-5.993 10.458-.223 20.604-6.972 24.46-16.763 8.81 9.6 26.523 6.295 31.65-5.58 6.535 1.795 13.28 9.074 21.287 4.407 14.993-6.205 15.947-29.864 2.047-37.81-8.15-5.59-20.543-2.758-24.715 6.467-4.667 3.096-8.353-7.435-15.056-5.22-8.695-1.627-.948-14.122-8.373-18.92-5.857-8.483-18.76-10.803-26.604-3.71-6.13 4.532-4.923 24.504-14.912 13.273-6.086-8.818-15.058-15.21-25.8-16.68-3.666-.6-7.427-.64-11.1-.073z" fill="url(#M)"/><path d="M1179.8 1017.4c-11.378 1.573-20.048 11.923-21.7 22.963-3.87 3.624-8.1 6.914-13.038 3.053-7.678-1.46-15.99 2.938-19.19 10.05-9.338-3.045-20.312 7.267-16.055 16.714 2.836 7.073 12.452 9.884 18.88 6.04 6.125 8.173 19.814 9.046 26.62 1.275 6.263 2.96 14.315 6.612 20.536 1.554 5.877-3.766 13.33-.516 19.16-4.124 4.88-4.2 9.978-5.993 16.095-3.98 6.947-.148 13.686-4.63 16.247-11.135 5.852 6.383 17.618 4.18 21.023-3.707 4.34 1.192 8.82 6.027 14.14 2.928 9.96-4.122 10.593-19.837 1.36-25.114-5.413-3.714-13.646-1.832-16.417 4.296-3.1 2.057-5.548-4.94-10-3.467-5.775-1.08-.63-9.38-5.562-12.567-3.9-5.635-12.462-7.176-17.672-2.465-4.073 3-3.27 16.277-9.906 8.817-4.043-5.857-10.002-10.104-17.138-11.08-2.435-.398-4.933-.426-7.373-.05z" fill="url(#N)"/><path d="M1474.4 941.1c-19.887-.24-37.402 15.245-43.094 33.72-7.56 5.207-15.652 9.75-23.11 1.866-12.77-4.482-28.138.906-35.45 12.26-15.204-7.62-36.653 7.205-31.8 24.48 3.033 12.842 18.772 20.135 30.768 15.21 8.38 15.574 31.593 20.6 45.25 9.047 9.96 6.684 22.806 15.012 34.76 7.956 11.034-4.933 22.956 2.553 33.87-2.12 9.44-5.933 18.63-7.688 28.585-2.665 11.933 1.537 24.628-4.4 30.69-14.875 8.373 12.438 29.088 11.703 36.953-.925 7.125 3.16 13.548 12.595 23.456 8.66 18.115-4.49 23.253-31.233 8.805-42.65-8.3-7.755-22.892-6.656-29.217 3.12-5.84 2.722-8.226-9.887-16.23-8.516-9.6-3.34 1.34-16.224-6.282-22.95-5.208-10.652-19.487-15.5-29.622-8.778-7.75 4.104-9.797 27.027-19.234 12.542-5.41-11.072-14.52-19.88-26.486-23.392-4.066-1.3-8.337-2-12.61-1.984z" fill="url(#O)"/><path d="M1477.3 975.1c-13.2-.16-24.844 10.126-28.625 22.398-5.023 3.46-10.397 6.476-15.352 1.24-8.482-2.977-18.69.602-23.55 8.143-10.1-5.062-24.347 4.786-21.123 16.26 2.014 8.53 12.47 13.375 20.438 10.103 5.566 10.345 20.986 13.683 30.057 6 6.616 4.44 15.15 9.972 23.1 5.285 7.33-3.277 15.25 1.696 22.498-1.408 6.27-3.94 12.375-5.107 18.988-1.77 7.926 1.02 16.36-2.923 20.386-9.88 5.562 8.262 19.322 7.774 24.546-.615 4.733 2.1 9 8.366 15.58 5.752 12.033-2.982 15.446-20.747 5.85-28.33-5.52-5.15-15.206-4.42-19.408 2.073-3.88 1.808-5.464-6.567-10.78-5.657-6.384-2.218.89-10.777-4.173-15.245-3.46-7.076-12.944-10.296-19.677-5.83-5.148 2.726-6.508 17.953-12.776 8.33-3.594-7.355-9.645-13.205-17.594-15.538-2.7-.87-5.538-1.33-8.377-1.318z" fill="url(#P)"/><path d="M1272.4 941.1v40h-20v292h-24v-172h-96v92h-14v-214h-88v150h-26v64h-2v80h-44v-158h-2v72l2 160h806v-4h2v-234h-52v-154h-34v154h-16v160h-16v-162h-58v-71.062l-100-32.938v60h-84v136h-46v-218h-16v-40h-72z" fill="url(#C)"/><path d="M1321.25 1148.828h145.472v193.83H1321.25v-193.83z" fill="#349ba4"/><path d="M1322.878 1156.638v13.57h7.94v-13.57h-7.94zm10.338 0v13.57h7.94v-13.57h-7.94zm10.323 0v13.57h7.955v-13.57h-7.955zm10.338 0v13.57h7.94v-13.57h-7.94zm10.338 0v13.57h7.94v-13.57h-7.94zm10.323 0v13.57h7.955v-13.57h-7.955zm10.338 0v13.57h7.94v-13.57h-7.94zm10.338 0v13.57h7.94v-13.57h-7.94zm10.323 0v13.57h7.955v-13.57h-7.955zm10.338 0v13.57h7.94v-13.57h-7.94zm10.338 0v13.57h7.94v-13.57h-7.94zm10.323 0v13.57h7.955v-13.57h-7.955zm10.338 0v13.57h7.94v-13.57h-7.94zm10.338 0v13.57h7.94v-13.57h-7.94z" fill="#72cccf"/><path d="M-14-727.2v29H2.97v-29H-14zm22.094 0v29h16.97v-29H8.094zm22.062 0v29h17v-29h-17zm22.094 0v29h16.97v-29H52.25zm22.094 0v29h16.97v-29h-16.97zm22.062 0v29h17v-29h-17zm22.094 0v29h16.97v-29H118.5zm22.094 0v29h16.97v-29h-16.97zm22.062 0v29h17v-29h-17zm22.094 0v29h16.97v-29h-16.97zm22.094 0v29h16.97v-29h-16.97zm22.062 0v29h17v-29h-17zm22.094 0v29h16.97v-29H251zm22.094 0v29h16.97v-29h-16.97zm-287.1 36.25v29h16.97v-29h-16.97zm22.094 0v29h16.97v-29H8.098zm22.062 0v29h17v-29h-17zm22.094 0v29h16.97v-29h-16.97zm22.094 0v29h16.97v-29h-16.97zm22.062 0v29h17v-29h-17zm22.094 0v29h16.97v-29h-16.97zm22.094 0v29h16.97v-29h-16.97zm22.062 0v29h17v-29h-17zm22.094 0v29h16.97v-29h-16.97zm22.094 0v29h16.97v-29h-16.97zm22.062 0v29h17v-29h-17zm22.094 0v29h16.97v-29h-16.97zm22.094 0v29h16.97v-29h-16.97zm-287.1 36.25v29h16.97v-29h-16.97zm22.094 0v29h16.97v-29H8.102zm22.062 0v29h17v-29h-17zm22.094 0v29h16.97v-29h-16.97zm22.094 0v29h16.97v-29h-16.97zm22.062 0v29h17v-29h-17zm22.094 0v29h16.97v-29h-16.97zm22.094 0v29h16.97v-29h-16.97zm22.062 0v29h17v-29h-17zm22.094 0v29h16.97v-29h-16.97zm22.094 0v29h16.97v-29h-16.97zm22.062 0v29h17v-29h-17zm22.094 0v29h16.97v-29h-16.97zm22.094 0v29h16.97v-29h-16.97zm-287.1 36.25v29H2.98v-29h-16.97zm22.094 0v29h16.97v-29H8.106zm22.062 0v29h17v-29h-17zm22.094 0v29h16.97v-29h-16.97zm22.094 0v29h16.97v-29h-16.97zm22.062 0v29h17v-29h-17zm22.094 0v29h16.97v-29h-16.97zm22.094 0v29h16.97v-29h-16.97zm22.062 0v29h17v-29h-17zm22.094 0v29h16.97v-29h-16.97zm22.094 0v29h16.97v-29h-16.97zm22.062 0v29h17v-29h-17zm22.094 0v29h16.97v-29h-16.97zm22.094 0v29h16.97v-29h-16.97zm-287.1 36.25v29h16.97v-29h-16.97zm22.094 0v29h16.97v-29H8.1zm22.062 0v29h17v-29h-17zm22.094 0v29h16.97v-29h-16.97zm22.094 0v29h16.97v-29H74.36zm22.062 0v29h17v-29h-17zm22.094 0v29h16.97v-29h-16.97zm22.094 0v29h16.97v-29H140.6zm22.062 0v29h17v-29h-17zm22.094 0v29h16.97v-29h-16.97zm22.094 0v29h16.97v-29h-16.97zm22.062 0v29h17v-29h-17zm22.094 0v29h16.97v-29h-16.97zm22.094 0v29h16.97v-29H273.1zm-287.1 36.25v29H2.99v-29h-16.97zm22.094 0v29h16.97v-29H8.114zm22.062 0v29h17v-29h-17zm22.094 0v29h16.97v-29H52.27zm22.094 0v29h16.97v-29h-16.97zm22.062 0v29h17v-29h-17zm22.094 0v29h16.97v-29h-16.97zm22.094 0v29h16.97v-29h-16.97zm22.062 0v29h17v-29h-17zm22.094 0v29h16.97v-29h-16.97zm22.094 0v29h16.97v-29h-16.97zm22.062 0v29h17v-29h-17zm22.094 0v29h16.97v-29h-16.97zm22.094 0v29h16.97v-29h-16.97zm-287.1 36.25v29h16.97v-29h-16.97zm22.094 0v29h16.97v-29H8.118zm22.062 0v29h17v-29h-17zm22.094 0v29h16.97v-29h-16.97zm22.094 0v29h16.97v-29h-16.97zm22.062 0v29h17v-29h-17zm22.094 0v29h16.97v-29h-16.97zm22.094 0v29h16.97v-29h-16.97zm22.062 0v29h17v-29h-17zm22.094 0v29h16.97v-29h-16.97zm22.094 0v29h16.97v-29h-16.97zm22.062 0v29h17v-29h-17zm22.094 0v29h16.97v-29h-16.97zm22.094 0v29h16.97v-29h-16.97zm-287.1 36.25v29h16.97v-29h-16.97zm22.094 0v29h16.97v-29H8.122zm22.062 0v29h17v-29h-17zm22.094 0v29h16.97v-29h-16.97zm22.094 0v29h16.97v-29h-16.97zm22.062 0v29h17v-29h-17zm22.094 0v29h16.97v-29h-16.97zm22.094 0v29h16.97v-29h-16.97zm22.062 0v29h17v-29h-17zm22.094 0v29h16.97v-29h-16.97zm22.094 0v29h16.97v-29h-16.97zm22.062 0v29h17v-29h-17zm22.094 0v29h16.97v-29h-16.97zm22.094 0v29h16.97v-29h-16.97zm-287.1 36.25v29H3v-29h-16.97zm22.094 0v29h16.97v-29H8.126zm22.062 0v29h17v-29h-17zm22.094 0v29h16.97v-29h-16.97zm22.094 0v29h16.97v-29h-16.97zm22.062 0v29h17v-29h-17zm22.094 0v29h16.97v-29h-16.97zm22.094 0v29h16.97v-29h-16.97zm22.062 0v29h17v-29h-17zm22.094 0v29h16.97v-29h-16.97zm22.094 0v29h16.97v-29h-16.97zm22.062 0v29h17v-29h-17zm22.094 0v29H268v-29h-16.97zm22.094 0v29h16.97v-29h-16.97zm-287.1 36.25v71.438h16.97v-71.438h-16.97zm22.094 0v71.438H25.1v-71.438H8.13zm22.062 0v71.438h17v-71.438h-17zm22.094 0v71.438h16.97v-71.438h-16.97zm22.094 0v71.438h16.97v-71.438H74.38zm22.062 0v71.438h17v-71.438h-17zm22.094 0v71.438h16.97v-71.438h-16.97zm22.094 0v71.438h16.97v-71.438h-16.97zm22.062 0v71.438h17v-71.438h-17zm22.094 0v71.438h16.97v-71.438h-16.97zm22.094 0v71.438h16.97v-71.438h-16.97zm22.062 0v71.438h17v-71.438h-17zm22.094 0v71.438h16.97v-71.438h-16.97zm22.094 0v71.438h16.97v-71.438h-16.97z" fill="url(#F)" transform="matrix(.46792 0 0 .46792 1329.4 1496.9)"/><path d="M660.38 1356.3l313-24 345.97 4.672.025 5.21 190.05-2.36 234.95 4.367 16.054-6.845 68.122 6.956v41.137H664.35l-4-29.137z" fill="url(#H)"/><g transform="matrix(.83336 0 0 .35622 2064.2 1262.8)"><path d="m-1162.3-364.64h160.72v316h-160.72z" fill="url(#Q)"/><g transform="matrix(-1 0 0 1 -2166.5 0)"><path d="m-1193.1-249.64h64.973v472h-64.973z" fill="url(#R)"/><g class="G"><use xlink:href="#g"/><use xlink:href="#g" y="50"/><use xlink:href="#g" y="100"/><use xlink:href="#g" y="150.002"/><use xlink:href="#g" y="200.002"/><use xlink:href="#g" y="250.002"/><use xlink:href="#g" y="300.002"/><use xlink:href="#g" x="25.99" y="-118"/><use xlink:href="#g" x="25.99" y="-68"/><use xlink:href="#g" x="38.99" y="-118"/><use xlink:href="#g" x="38.99" y="-68"/><use xlink:href="#g" x="13"/><use xlink:href="#g" x="13" y="50"/><use xlink:href="#g" x="13" y="100"/><use xlink:href="#g" x="13" y="150.002"/><use xlink:href="#g" x="13" y="200.002"/><use xlink:href="#g" x="13" y="250.002"/><use xlink:href="#g" x="13" y="300.002"/><use xlink:href="#g" x="26"/><use xlink:href="#g" x="26" y="50"/><use xlink:href="#g" x="26" y="100"/><use xlink:href="#g" x="26" y="150.002"/><use xlink:href="#g" x="26" y="200.002"/><use xlink:href="#g" x="26" y="250.002"/><use xlink:href="#g" x="26" y="300.002"/><use xlink:href="#g" x="39"/><use xlink:href="#g" x="39" y="50"/><use xlink:href="#g" x="39" y="100"/><use xlink:href="#g" x="39" y="150.002"/><use xlink:href="#g" x="39" y="200.002"/><use xlink:href="#g" x="39" y="250.002"/><use xlink:href="#g" x="39" y="300.002"/></g></g><path d="m-994.78-999.64h33.342v298h-33.342z" fill="url(#S)" transform="translate(-104.3 16)"/><g class="G"><use xlink:href="#g" x="89.92" y="-690"/><use xlink:href="#g" x="89.92" y="-640"/><use xlink:href="#g" x="89.92" y="-590"/><use xlink:href="#g" x="89.92" y="-540"/><use xlink:href="#g" x="102.92" y="-690"/><use xlink:href="#g" x="102.92" y="-640"/><use xlink:href="#g" x="102.92" y="-590"/><use xlink:href="#g" x="102.92" y="-540"/></g><path d="m-1259.8-421.64h64.973v636h-64.973z" fill="url(#T)" transform="translate(143.63 -322)"/><g class="G"><use xlink:href="#g" x="76.93" y="-480"/><use xlink:href="#g" x="76.93" y="-430"/><use xlink:href="#g" x="76.93" y="-380"/><use xlink:href="#g" x="76.93" y="-330"/><use xlink:href="#g" x="76.93" y="-280"/><use xlink:href="#g" x="76.93" y="-230"/><use xlink:href="#g" x="76.93" y="-179.998"/><use xlink:href="#g" x="76.93" y="-129.998"/><use xlink:href="#g" x="76.93" y="-79.998"/><use xlink:href="#g" x="76.93" y="-29.998"/><use xlink:href="#g" x="89.93" y="-480"/><use xlink:href="#g" x="89.93" y="-430"/><use xlink:href="#g" x="89.93" y="-380"/><use xlink:href="#g" x="89.93" y="-330"/><use xlink:href="#g" x="89.93" y="-280"/><use xlink:href="#g" x="89.93" y="-230"/><use xlink:href="#g" x="89.93" y="-179.998"/><use xlink:href="#g" x="89.93" y="-129.998"/><use xlink:href="#g" x="89.93" y="-79.998"/><use xlink:href="#g" x="89.93" y="-29.998"/><use xlink:href="#g" x="102.93" y="-480"/><use xlink:href="#g" x="102.93" y="-430"/><use xlink:href="#g" x="102.93" y="-380"/><use xlink:href="#g" x="102.93" y="-330"/><use xlink:href="#g" x="102.93" y="-280"/><use xlink:href="#g" x="102.93" y="-230"/><use xlink:href="#g" x="102.93" y="-179.998"/><use xlink:href="#g" x="102.93" y="-129.998"/><use xlink:href="#g" x="102.93" y="-79.998"/><use xlink:href="#g" x="102.93" y="-29.998"/><use xlink:href="#g" x="115.93" y="-480"/><use xlink:href="#g" x="115.93" y="-430"/><use xlink:href="#g" x="115.93" y="-380"/><use xlink:href="#g" x="115.93" y="-330"/><use xlink:href="#g" x="115.93" y="-280"/><use xlink:href="#g" x="115.93" y="-230"/><use xlink:href="#g" x="115.93" y="-179.998"/><use xlink:href="#g" x="115.93" y="-129.998"/><use xlink:href="#g" x="115.93" y="-79.998"/><use xlink:href="#g" x="115.93" y="-29.998"/></g><path d="M-1128.2-525.64h90.62v750h-90.62z" fill="#bbc0b1"/><g class="G"><use xlink:href="#g" x="65" y="-248"/><use xlink:href="#g" x="65" y="-248"/><use xlink:href="#g" x="65" y="-198"/><use xlink:href="#g" x="65" y="-148"/><use xlink:href="#g" x="65" y="-98"/><use xlink:href="#g" x="65" y="-48"/><use xlink:href="#g" x="65" y="2"/><use xlink:href="#g" x="65" y="52"/><use xlink:href="#g" x="65" y="102"/><use xlink:href="#g" x="65" y="152.002"/><use xlink:href="#g" x="65" y="202.002"/><use xlink:href="#g" x="65" y="252.002"/><use xlink:href="#g" x="65" y="302.002"/><use xlink:href="#g" x="78" y="-248"/><use xlink:href="#g" x="78" y="-198"/><use xlink:href="#g" x="78" y="-148"/><use xlink:href="#g" x="78" y="-98"/><use xlink:href="#g" x="78" y="-48"/><use xlink:href="#g" x="78" y="2"/><use xlink:href="#g" x="78" y="52"/><use xlink:href="#g" x="78" y="102"/><use xlink:href="#g" x="78" y="152.002"/><use xlink:href="#g" x="78" y="202.002"/><use xlink:href="#g" x="78" y="252.002"/><use xlink:href="#g" x="78" y="302.002"/><use xlink:href="#g" x="91" y="-248"/><use xlink:href="#g" x="91" y="-198"/><use xlink:href="#g" x="91" y="-148"/><use xlink:href="#g" x="91" y="-98"/><use xlink:href="#g" x="91" y="-48"/><use xlink:href="#g" x="91" y="2"/><use xlink:href="#g" x="91" y="52"/><use xlink:href="#g" x="91" y="102"/><use xlink:href="#g" x="91" y="152.002"/><use xlink:href="#g" x="91" y="202.002"/><use xlink:href="#g" x="91" y="252.002"/><use xlink:href="#g" x="91" y="302.002"/><use xlink:href="#g" x="104" y="-248"/><use xlink:href="#g" x="104" y="-198"/><use xlink:href="#g" x="104" y="-148"/><use xlink:href="#g" x="104" y="-98"/><use xlink:href="#g" x="104" y="-48"/><use xlink:href="#g" x="104" y="2"/><use xlink:href="#g" x="104" y="52"/><use xlink:href="#g" x="104" y="102"/><use xlink:href="#g" x="104" y="152.002"/><use xlink:href="#g" x="104" y="202.002"/><use xlink:href="#g" x="104" y="252.002"/><use xlink:href="#g" x="104" y="302.002"/><use xlink:href="#g" x="117" y="-248"/><use xlink:href="#g" x="117" y="-198"/><use xlink:href="#g" x="117" y="-148"/><use xlink:href="#g" x="117" y="-98"/><use xlink:href="#g" x="117" y="-48"/><use xlink:href="#g" x="117" y="2"/><use xlink:href="#g" x="117" y="52"/><use xlink:href="#g" x="117" y="102"/><use xlink:href="#g" x="117" y="152.002"/><use xlink:href="#g" x="117" y="202.002"/><use xlink:href="#g" x="117" y="252.002"/><use xlink:href="#g" x="117" y="302.002"/><use xlink:href="#g" x="130" y="-248"/><use xlink:href="#g" x="130" y="-198"/><use xlink:href="#g" x="130" y="-148"/><use xlink:href="#g" x="130" y="-98"/><use xlink:href="#g" x="130" y="-48"/><use xlink:href="#g" x="130" y="2"/><use xlink:href="#g" x="130" y="52"/><use xlink:href="#g" x="130" y="102"/><use xlink:href="#g" x="130" y="152.002"/><use xlink:href="#g" x="130" y="202.002"/><use xlink:href="#g" x="130" y="252.002"/><use xlink:href="#g" x="130" y="302.002"/></g><path d="m-1193.1-249.64h64.973v472h-64.973z" fill="url(#R)"/><g class="G"><use xlink:href="#g"/><use xlink:href="#g" y="50"/><use xlink:href="#g" y="100"/><use xlink:href="#g" y="150.002"/><use xlink:href="#g" y="200.002"/><use xlink:href="#g" y="250.002"/><use xlink:href="#g" y="300.002"/><use xlink:href="#g" x="25.99" y="-118"/><use xlink:href="#g" x="25.99" y="-68"/><use xlink:href="#g" x="38.99" y="-118"/><use xlink:href="#g" x="38.99" y="-68"/><use xlink:href="#g" x="13"/><use xlink:href="#g" x="13" y="50"/><use xlink:href="#g" x="13" y="100"/><use xlink:href="#g" x="13" y="150.002"/><use xlink:href="#g" x="13" y="200.002"/><use xlink:href="#g" x="13" y="250.002"/><use xlink:href="#g" x="13" y="300.002"/><use xlink:href="#g" x="26"/><use xlink:href="#g" x="26" y="50"/><use xlink:href="#g" x="26" y="100"/><use xlink:href="#g" x="26" y="150.002"/><use xlink:href="#g" x="26" y="200.002"/><use xlink:href="#g" x="26" y="250.002"/><use xlink:href="#g" x="26" y="300.002"/><use xlink:href="#g" x="39"/><use xlink:href="#g" x="39" y="50"/><use xlink:href="#g" x="39" y="100"/><use xlink:href="#g" x="39" y="150.002"/><use xlink:href="#g" x="39" y="200.002"/><use xlink:href="#g" x="39" y="250.002"/><use xlink:href="#g" x="39" y="300.002"/></g></g><g transform="matrix(1.0148 0 0 1.0148 2179.4 896.05)"><path d="m-622.76 66.92h65.66v30.305h-65.66z" fill="url(#U)"/><path d="m-634.38 94.738h88.893v345.47h-88.893z" fill="#8a9da5"/><g class="H"><use xlink:href="#h"/><use xlink:href="#h" x="11.41"/><use xlink:href="#h" x="-11.41"/><use xlink:href="#h" x="-22.82"/><use xlink:href="#h" x="-34.23"/><use xlink:href="#h" x="-45.63"/></g><path d="M-596.58 44.735h2.828V68.07h-2.828zm12.5-40.305h2.828v62.932h-2.828z"/></g><g transform="matrix(.82538 0 0 .82538 2396.3 981.07)"><path d="m-912.26 66.92h109.16v30.305h-109.16z" fill="url(#V)"/><path d="M-923.7 91.788h132.9v345.47h-132.9z" fill="url(#W)"/><g class="H"><use xlink:href="#i"/><use xlink:href="#i" y="21.12"/><use xlink:href="#i" y="147.85"/><use xlink:href="#i" y="168.95"/><use xlink:href="#i" y="190.07"/><use xlink:href="#i" y="211.19"/><use xlink:href="#i" y="232.31"/><use xlink:href="#i" y="253.43"/><use xlink:href="#i" y="274.55"/><use xlink:href="#i" y="295.67"/><path d="M-914.3 423.04h113.14v9.192H-914.3z"/><use xlink:href="#i" y="42.25"/><use xlink:href="#i" y="63.35"/><use xlink:href="#i" y="84.48"/><use xlink:href="#i" y="105.6"/><use xlink:href="#i" y="126.72"/></g></g><g transform="matrix(.64148 0 0 .64148 1733 1072)"><path d="M-1207.1-32.648h104.3V6.657h-104.3z" fill="url(#X)"/><use xlink:href="#j" stroke-width="1.559" class="B C"/><use xlink:href="#k" class="D"/><use xlink:href="#l" class="E"/><use xlink:href="#j" class="B C"/><use xlink:href="#k" class="D"/><use xlink:href="#l" class="E"/><use xlink:href="#j" y="38.11" class="B C"/><use xlink:href="#k" y="38.12" class="D"/><use xlink:href="#l" y="38.11" class="E"/><use xlink:href="#j" y="76.22" class="B C"/><use xlink:href="#k" y="76.23" class="D"/><use xlink:href="#l" y="76.22" class="E"/><use xlink:href="#j" y="114.33" class="B C"/><use xlink:href="#k" y="114.34" class="D"/><use xlink:href="#l" y="114.33" class="E"/><use xlink:href="#j" y="152.44" class="B C"/><use xlink:href="#k" y="152.45" class="D"/><use xlink:href="#l" y="152.44" class="E"/><use xlink:href="#j" y="190.55" class="B C"/><use xlink:href="#k" y="190.56" class="D"/><use xlink:href="#l" y="190.55" class="E"/><use xlink:href="#j" y="228.66" class="B C"/><use xlink:href="#k" y="228.67" class="D"/><path d="M-1205.7 301v5.002h-17.593L-1205.7 301z" class="E"/><use xlink:href="#j" y="266.77" class="B C"/><use xlink:href="#k" y="266.78" class="D"/><use xlink:href="#l" y="266.76" class="E"/><use xlink:href="#j" y="304.88" class="B C"/><use xlink:href="#k" y="304.9" class="D"/><use xlink:href="#l" y="304.88" class="E"/><use xlink:href="#j" y="342.99" class="B C"/><use xlink:href="#k" y="343" class="D"/><use xlink:href="#l" y="342.99" class="E"/><use xlink:href="#m" class="B C"/><use xlink:href="#k" x="20.577" class="D"/><use xlink:href="#l" x="20.577" class="E"/><use xlink:href="#m" y="38.11" class="B C"/><use xlink:href="#k" x="20.577" y="38.12" class="D"/><use xlink:href="#l" x="20.577" y="38.11" class="E"/><use xlink:href="#m" y="76.22" class="B C"/><use xlink:href="#k" x="20.577" y="76.23" class="D"/><use xlink:href="#l" x="20.577" y="76.22" class="E"/><use xlink:href="#m" y="114.33" class="B C"/><use xlink:href="#k" x="20.577" y="114.34" class="D"/><use xlink:href="#l" x="20.577" y="114.33" class="E"/><use xlink:href="#m" y="152.44" class="B C"/><use xlink:href="#k" x="20.577" y="152.45" class="D"/><use xlink:href="#l" x="20.577" y="152.44" class="E"/><use xlink:href="#m" y="190.55" class="B C"/><use xlink:href="#k" x="20.577" y="190.56" class="D"/><use xlink:href="#l" x="20.577" y="190.55" class="E"/><use xlink:href="#m" y="228.66" class="B C"/><use xlink:href="#k" x="20.577" y="228.67" class="D"/><use xlink:href="#l" x="20.577" y="228.66" class="E"/><use xlink:href="#m" y="266.77" class="B C"/><use xlink:href="#k" x="20.577" y="266.78" class="D"/><use xlink:href="#l" x="20.577" y="266.76" class="E"/><use xlink:href="#m" y="304.88" class="B C"/><use xlink:href="#k" x="20.577" y="304.9" class="D"/><use xlink:href="#l" x="20.577" y="304.88" class="E"/><use xlink:href="#m" y="342.99" class="B C"/><use xlink:href="#k" x="20.577" y="343" class="D"/><use xlink:href="#l" x="20.577" y="342.99" class="E"/><use xlink:href="#m" x="20.578" class="B C"/><use xlink:href="#k" x="41.155" class="D"/><use xlink:href="#l" x="41.155" class="E"/><use xlink:href="#m" x="20.578" y="38.11" class="B C"/><use xlink:href="#k" x="41.155" y="38.12" class="D"/><use xlink:href="#l" x="41.155" y="38.11" class="E"/><use xlink:href="#m" x="20.578" y="76.22" class="B C"/><use xlink:href="#k" x="41.155" y="76.23" class="D"/><use xlink:href="#l" x="41.155" y="76.22" class="E"/><use xlink:href="#m" x="20.578" y="114.33" class="B C"/><use xlink:href="#k" x="41.155" y="114.34" class="D"/><use xlink:href="#l" x="41.155" y="114.33" class="E"/><use xlink:href="#m" x="20.578" y="152.44" class="B C"/><use xlink:href="#k" x="41.155" y="152.45" class="D"/><use xlink:href="#l" x="41.155" y="152.44" class="E"/><use xlink:href="#m" x="20.578" y="190.55" class="B C"/><use xlink:href="#k" x="41.155" y="190.56" class="D"/><use xlink:href="#l" x="41.155" y="190.55" class="E"/><use xlink:href="#m" x="20.578" y="228.66" class="B C"/><use xlink:href="#k" x="41.155" y="228.67" class="D"/><use xlink:href="#l" x="41.155" y="228.66" class="E"/><use xlink:href="#m" x="20.578" y="266.77" class="B C"/><use xlink:href="#k" x="41.155" y="266.78" class="D"/><use xlink:href="#l" x="41.155" y="266.76" class="E"/><use xlink:href="#m" x="20.578" y="304.88" class="B C"/><use xlink:href="#k" x="41.155" y="304.9" class="D"/><use xlink:href="#l" x="41.155" y="304.88" class="E"/><use xlink:href="#m" x="20.578" y="342.99" class="B C"/><use xlink:href="#k" x="41.155" y="343" class="D"/><use xlink:href="#l" x="41.155" y="342.99" class="E"/><use xlink:href="#m" x="41.155" class="B C"/><use xlink:href="#k" x="61.732" class="D"/><use xlink:href="#l" x="61.732" class="E"/><use xlink:href="#m" x="41.155" y="38.11" class="B C"/><use xlink:href="#k" x="61.732" y="38.12" class="D"/><use xlink:href="#l" x="61.732" y="38.11" class="E"/><use xlink:href="#m" x="41.155" y="76.22" class="B C"/><use xlink:href="#k" x="61.732" y="76.23" class="D"/><use xlink:href="#l" x="61.732" y="76.22" class="E"/><use xlink:href="#m" x="41.155" y="114.33" class="B C"/><use xlink:href="#k" x="61.732" y="114.34" class="D"/><use xlink:href="#l" x="61.732" y="114.33" class="E"/><use xlink:href="#m" x="41.155" y="152.44" class="B C"/><use xlink:href="#k" x="61.732" y="152.45" class="D"/><use xlink:href="#l" x="61.732" y="152.44" class="E"/><use xlink:href="#m" x="41.155" y="190.55" class="B C"/><use xlink:href="#k" x="61.732" y="190.56" class="D"/><use xlink:href="#l" x="61.732" y="190.55" class="E"/><use xlink:href="#m" x="41.155" y="228.66" class="B C"/><use xlink:href="#k" x="61.732" y="228.67" class="D"/><use xlink:href="#l" x="61.732" y="228.66" class="E"/><use xlink:href="#m" x="41.155" y="266.77" class="B C"/><use xlink:href="#k" x="61.732" y="266.78" class="D"/><use xlink:href="#l" x="61.732" y="266.76" class="E"/><use xlink:href="#m" x="41.155" y="304.88" class="B C"/><use xlink:href="#k" x="61.732" y="304.9" class="D"/><use xlink:href="#l" x="61.732" y="304.88" class="E"/><use xlink:href="#m" x="41.155" y="342.99" class="B C"/><use xlink:href="#k" x="61.732" y="343" class="D"/><use xlink:href="#l" x="61.732" y="342.99" class="E"/><use xlink:href="#m" x="61.733" class="B C"/><use xlink:href="#k" x="82.31" class="D"/><use xlink:href="#l" x="82.31" class="E"/><use xlink:href="#m" x="61.733" y="38.11" class="B C"/><use xlink:href="#k" x="82.31" y="38.12" class="D"/><use xlink:href="#l" x="82.31" y="38.11" class="E"/><use xlink:href="#m" x="61.733" y="76.22" class="B C"/><use xlink:href="#k" x="82.31" y="76.23" class="D"/><use xlink:href="#l" x="82.31" y="76.22" class="E"/><use xlink:href="#m" x="61.733" y="114.33" class="B C"/><use xlink:href="#k" x="82.31" y="114.34" class="D"/><use xlink:href="#l" x="82.31" y="114.33" class="E"/><use xlink:href="#m" x="61.733" y="152.44" class="B C"/><use xlink:href="#k" x="82.31" y="152.45" class="D"/><use xlink:href="#l" x="82.31" y="152.44" class="E"/><use xlink:href="#m" x="61.733" y="190.55" class="B C"/><use xlink:href="#k" x="82.31" y="190.56" class="D"/><use xlink:href="#l" x="82.31" y="190.55" class="E"/><use xlink:href="#m" x="61.733" y="228.66" class="B C"/><use xlink:href="#k" x="82.31" y="228.67" class="D"/><use xlink:href="#l" x="82.31" y="228.66" class="E"/><use xlink:href="#m" x="61.733" y="266.77" class="B C"/><use xlink:href="#k" x="82.31" y="266.78" class="D"/><use xlink:href="#l" x="82.31" y="266.76" class="E"/><use xlink:href="#m" x="61.733" y="304.88" class="B C"/><use xlink:href="#k" x="82.31" y="304.9" class="D"/><use xlink:href="#l" x="82.31" y="304.88" class="E"/><use xlink:href="#m" x="61.733" y="342.99" class="B C"/><use xlink:href="#k" x="82.31" y="343" class="D"/><use xlink:href="#l" x="82.31" y="342.99" class="E"/><use xlink:href="#m" x="82.309" class="B C"/><use xlink:href="#k" x="102.886" class="D"/><use xlink:href="#l" x="102.886" class="E"/><use xlink:href="#m" x="82.309" y="38.11" class="B C"/><use xlink:href="#k" x="102.886" y="38.12" class="D"/><use xlink:href="#l" x="102.886" y="38.11" class="E"/><use xlink:href="#m" x="82.309" y="76.22" class="B C"/><use xlink:href="#k" x="102.886" y="76.23" class="D"/><use xlink:href="#l" x="102.886" y="76.22" class="E"/><use xlink:href="#m" x="82.309" y="114.33" class="B C"/><use xlink:href="#k" x="102.886" y="114.34" class="D"/><use xlink:href="#l" x="102.886" y="114.33" class="E"/><use xlink:href="#m" x="82.309" y="152.44" class="B C"/><use xlink:href="#k" x="102.886" y="152.45" class="D"/><use xlink:href="#l" x="102.886" y="152.44" class="E"/><use xlink:href="#m" x="82.309" y="190.55" class="B C"/><use xlink:href="#k" x="102.886" y="190.56" class="D"/><use xlink:href="#l" x="102.886" y="190.55" class="E"/><use xlink:href="#m" x="82.309" y="228.66" class="B C"/><use xlink:href="#k" x="102.886" y="228.67" class="D"/><use xlink:href="#l" x="102.886" y="228.66" class="E"/><use xlink:href="#m" x="82.309" y="266.77" class="B C"/><use xlink:href="#k" x="102.886" y="266.78" class="D"/><use xlink:href="#l" x="102.886" y="266.76" class="E"/><use xlink:href="#m" x="82.309" y="304.88" class="B C"/><use xlink:href="#k" x="102.886" y="304.9" class="D"/><use xlink:href="#l" x="102.886" y="304.88" class="E"/><use xlink:href="#m" x="82.309" y="342.99" class="B C"/><use xlink:href="#k" x="102.886" y="343" class="D"/><use xlink:href="#l" x="102.886" y="342.99" class="E"/><use xlink:href="#m" x="102.887" class="B C"/><use xlink:href="#k" x="123.464" class="D"/><use xlink:href="#l" x="123.464" class="E"/><use xlink:href="#m" x="102.887" y="38.11" class="B C"/><use xlink:href="#k" x="123.464" y="38.12" class="D"/><use xlink:href="#l" x="123.464" y="38.11" class="E"/><use xlink:href="#m" x="102.887" y="76.22" class="B C"/><use xlink:href="#k" x="123.464" y="76.23" class="D"/><use xlink:href="#l" x="123.464" y="76.22" class="E"/><use xlink:href="#m" x="102.887" y="114.33" class="B C"/><use xlink:href="#k" x="123.464" y="114.34" class="D"/><use xlink:href="#l" x="123.464" y="114.33" class="E"/><use xlink:href="#m" x="102.887" y="152.44" class="B C"/><use xlink:href="#k" x="123.464" y="152.45" class="D"/><use xlink:href="#l" x="123.464" y="152.44" class="E"/><use xlink:href="#m" x="102.887" y="190.55" class="B C"/><use xlink:href="#k" x="123.464" y="190.56" class="D"/><use xlink:href="#l" x="123.464" y="190.55" class="E"/><use xlink:href="#m" x="102.887" y="228.66" class="B C"/><use xlink:href="#k" x="123.464" y="228.67" class="D"/><use xlink:href="#l" x="123.464" y="228.66" class="E"/><use xlink:href="#m" x="102.887" y="266.77" class="B C"/><use xlink:href="#k" x="123.464" y="266.78" class="D"/><use xlink:href="#l" x="123.464" y="266.76" class="E"/><use xlink:href="#m" x="102.887" y="304.88" class="B C"/><use xlink:href="#k" x="123.464" y="304.9" class="D"/><use xlink:href="#l" x="123.464" y="304.88" class="E"/><use xlink:href="#m" x="102.887" y="342.99" class="B C"/><use xlink:href="#k" x="123.464" y="343" class="D"/><use xlink:href="#l" x="123.464" y="342.99" class="E"/><path d="M-1225.1 1.352h144.3v39.305h-144.3z" fill="url(#Y)"/></g><g transform="matrix(.38243 0 0 .38243 997.42 1466.7)"><path d="M-383.7-706.2h310.9v382.24h-310.9z" fill="url(#Z)"/><g class="H"><use xlink:href="#n"/><use xlink:href="#n" y="21.12"/><use xlink:href="#n" y="147.85"/><use xlink:href="#n" y="168.95"/><use xlink:href="#n" y="190.07"/><use xlink:href="#n" y="211.19"/><use xlink:href="#n" y="232.31"/><use xlink:href="#n" y="253.43"/><use xlink:href="#n" y="274.55"/><use xlink:href="#n" y="295.67"/><use xlink:href="#n" y="316.79"/><use xlink:href="#n" y="42.25"/><use xlink:href="#n" y="63.35"/><use xlink:href="#n" y="84.48"/><use xlink:href="#n" y="105.6"/><use xlink:href="#n" y="126.72"/></g><path d="M-322.3-705.638h5.615v346h-5.615zm182.426 4.586h5.615v346h-5.615zm-121.636-2.464h5.615v346h-5.615zm60.8-1.414h5.615v346h-5.615z" fill="#8a9da5"/><g class="H"><use xlink:href="#o"/><use xlink:href="#o" x="-123.029"/><use xlink:href="#o" x="-143.546"/><use xlink:href="#o" x="-164.038"/><use xlink:href="#o" x="-184.556"/><use xlink:href="#o" x="-205.071"/><use xlink:href="#o" x="-225.566"/><use xlink:href="#o" x="-246.081"/><use xlink:href="#o" x="-266.574"/><use xlink:href="#o" x="20.494"/><use xlink:href="#o" x="-20.516"/><use xlink:href="#o" x="-41.009"/><use xlink:href="#o" x="-61.536"/><use xlink:href="#o" x="-82.019"/><use xlink:href="#o" x="-102.536"/></g></g><path d="M797.1 910.64c-19.727 1.394-26.35 30.202-12.087 42.283 4.563 10.36-11.263 21.602-19.497 12.785-14.002-5.044-31.067 2.083-37.45 15.497-15.618-8.335-34.484 6.298-35.33 22.75-2.748 16.672 9.695 36.94 28.022 35.777 11.48.875 17.73-17.442 29.88-6.888 12.846 4.5 24.865-13.304 34.99-2.385 10.968 5.614 25.472 4.254 34.564-4.313 12.676 7.63 29.63-6.978 40.27 6.426 19.266 12.768 49.23 7.79 61.188-12.575 10.312-1.347 16.098 16.127 28.89 12 10.21 2.967 19.694-11.382 25.69-8.913 11.923 11.8 34.598 4.4 37.81-11.96 5.002-15.686-8.834-35.45-25.984-32.533-14.765 8.563-18.838-18.85-34.726-15.253-4-5.056 5.996-16.617-.43-24.432-4.052-12.15-19.266-19.254-30.604-12.513-5.404 5.82-10.848 19.035-19.128 7.992-11.994-8.67-28.67-1.164-39.417-3.494-12.336-11.514-31.37-15.892-47.195-9.507-3.937-6.672-11.57-11.422-19.455-10.743z" fill="url(#a)"/><path d="M824.37 946.2c-11.916.84-15.764 20.338-7.078 28.606 2.813 7.05-6.69 14.588-11.716 8.564-8.5-3.496-18.766 1.245-22.553 10.306-9.484-5.736-20.81 4.085-21.232 15.237-1.57 11.3 6.058 25.1 17.13 24.41 6.943.655 10.622-11.732 18.023-4.5 7.788 3.114 14.957-8.887 21.135-1.43 6.66 3.866 15.418 3.022 20.868-2.74 7.703 5.243 17.87-4.572 24.374 4.574 11.714 8.762 29.798 5.547 36.915-8.198 6.225-.858 9.817 11.022 17.527 8.292 6.188 2.067 11.842-7.612 15.48-5.906 7.27 8.06 20.935 3.177 22.79-7.906 2.94-10.61-5.53-24.086-15.88-22.2-8.878 5.727-11.487-12.884-21.07-10.53-2.445-3.45 3.535-11.236-.39-16.57-2.515-8.26-11.748-13.16-18.565-8.65-3.235 3.918-6.454 12.85-11.518 5.317-7.296-5.944-17.334-.943-23.843-2.58-7.518-7.874-19.047-10.945-28.577-6.7-2.416-4.545-7.054-7.808-11.817-7.4z" fill="url(#b)"/><path d="M923.364 1274.47c-12.808 7.32-21.04 18.704-21.04 31.487 0 14.89 11.16 27.882 27.723 34.766 12.808-7.32 21.04-18.704 21.04-31.487 0-14.89-11.16-27.882-27.723-34.766z" fill="#5c8c2e"/><g class="F"><path d="M927.283 1293.082l8.127 83.016h-8.708l.58-83.016z"/><path d="M945.256 1307.798L930.2 1328.68l-1.933-1.84 16.98-19.044zm-33.606-2.664l15.592 16.16 2.003-1.423-17.595-14.738z"/></g><use xlink:href="#p" fill="#70781d"/><g class="F"><path d="M854.224 1289.703l-8.127 75.428h8.708l-.58-75.428z"/><use xlink:href="#q"/><use xlink:href="#r"/></g><use xlink:href="#s" fill="#9cb13c"/><g class="F"><use xlink:href="#t"/><path d="M1540.84 1315.03l15.046 18.974 1.933-1.67-16.98-17.303zm33.6-2.4l-15.592 14.684-2.003-1.293 17.594-13.392z"/></g><g transform="matrix(.58053 0 0 .58053 634.24 595.46)"><use xlink:href="#u" class="F"/><path d="M654.03 1221.1c22.063 11.458 32.245 59.273 32.245 79.282 0 23.307-15.226 13.64-43.755 24.412-22.063-11.457-39.245-3.273-39.245-23.282 0-23.307 22.226-69.64 50.755-80.412z" class="I"/><path d="M655.28 1170.9c18.304 9.505 26.75 49.174 26.75 65.773 0 19.336-12.632 11.316-36.3 20.253-18.304-9.505-32.558-2.716-32.558-19.315 0-19.336 18.44-57.774 42.107-66.71z" class="J"/><path d="M656.76 1130.2c13.417 6.967 19.61 36.044 19.61 48.212 0 14.173-9.26 8.294-26.608 14.845-13.417-6.967-23.865-1.99-23.865-14.158 0-14.173 13.516-42.348 30.864-48.9z" class="K"/></g><use xlink:href="#s" x="-433.975" y="11.171" fill="#448552"/><g class="F"><use xlink:href="#t" x="-433.974" y="11.171"/><use xlink:href="#q" x="270.617" y="23.162"/><use xlink:href="#r" x="270.615" y="23.161"/></g><path d="M1211.958 1274.572c-20.36 0-34.542 13.03-34.542 24.092s20.568 14.223 40.927 14.223c13.727-4.418 16.518 11.176 29.897 12.19 11.222 0 20.32-5.458 20.32-12.19 1.142-11.413-17.612-8.727-17.416-14.223 0-11.06-18.827-24.092-39.186-24.092z" class="L"/><path d="M1215.662 1284.44c-15.68 0-26.6 10.035-26.6 18.554s15.84 10.953 31.52 10.953c10.57-3.402 12.72 8.606 23.024 9.388 8.642 0 15.648-4.203 15.648-9.388.88-8.79-13.563-6.72-13.412-10.953 0-8.52-14.5-18.554-30.178-18.554z" class="M"/><g class="F"><path d="M1211.668 1289.085l8.127 88.24h-8.708l.58-88.24z"/><path d="M1241.252 1309.897l-27.237 15.948-1.352-6.193 28.59-9.755z"/><path d="M1196.034 1303.46l15.882 19.935 1.712-5.196-17.595-14.738z"/></g><g transform="matrix(-.58053 0 0 .46246 2166.1 879.95)"><use xlink:href="#v" class="L"/><use xlink:href="#w" class="M"/><g class="F"><path d="m751 899.36 14 152h-15l1-152z"/><use xlink:href="#x"/><use xlink:href="#y"/></g></g><g transform="matrix(-.77637 0 0 .58053 1846.5 584.82)"><use xlink:href="#u" class="F"/><path d="M654.03 1221.1c22.063 11.458 32.245 59.273 32.245 79.282 0 23.307-15.226 13.64-43.755 24.412-22.063-11.457-39.245-3.273-39.245-23.282 0-23.307 22.226-69.64 50.755-80.412z" class="I"/><path d="M655.28 1170.9c18.304 9.505 26.75 49.174 26.75 65.773 0 19.336-12.632 11.316-36.3 20.253-18.304-9.505-32.558-2.716-32.558-19.315 0-19.336 18.44-57.774 42.107-66.71z" class="J"/><path d="M656.76 1130.2c13.417 6.967 19.61 36.044 19.61 48.212 0 14.173-9.26 8.294-26.608 14.845-13.417-6.967-23.865-1.99-23.865-14.158 0-14.173 13.516-42.348 30.864-48.9z" class="K"/></g><g transform="matrix(-.77637 0 0 .58053 1276.5 592.82)"><use xlink:href="#u" class="F"/><path d="M654.03 1221.1c22.063 11.458 32.245 59.273 32.245 79.282 0 23.307-15.226 13.64-43.755 24.412-22.063-11.457-39.245-3.273-39.245-23.282 0-23.307 22.226-69.64 50.755-80.412z" class="I"/><path d="M655.28 1170.9c18.304 9.505 26.75 49.174 26.75 65.773 0 19.336-12.632 11.316-36.3 20.253-18.304-9.505-32.558-2.716-32.558-19.315 0-19.336 18.44-57.774 42.107-66.71z" class="J"/><path d="M656.76 1130.2c13.417 6.967 19.61 36.044 19.61 48.212 0 14.173-9.26 8.294-26.608 14.845-13.417-6.967-23.865-1.99-23.865-14.158 0-14.173 13.516-42.348 30.864-48.9z" class="K"/></g><g transform="matrix(1.1554 0 0 1.1554 669.16 169.42)"><use xlink:href="#s" x="-1216.4" y="-310.73" fill="#9cb13c"/><g class="F"><use xlink:href="#t" x="-1216.4" y="-310.73"/><path d="M324.44 1004.3l15.046 18.974 1.933-1.67-16.98-17.303zm33.6-2.4l-15.592 14.684-2.003-1.293 17.594-13.392z"/></g></g><use xlink:href="#p" x="566.01" y="-4" fill="#70781d"/><g class="F"><path d="M1420.234 1285.703l-8.127 75.428h8.708l-.58-75.428z"/><use xlink:href="#q" x="566.01" y="-4"/><use xlink:href="#r" x="566.01" y="-4"/></g><g transform="matrix(-.73331 0 0 .58417 2033.8 759.99)"><use xlink:href="#v" class="L"/><use xlink:href="#w" class="M"/><g class="F"><path d="m751 899.36 14 152h-15l1-152z"/><use xlink:href="#x"/><use xlink:href="#y"/></g></g><g transform="matrix(-.50167 0 0 .37513 1601.9 844.96)"><use xlink:href="#u" class="F"/><path d="M654.03 1221.1c22.063 11.458 32.245 59.273 32.245 79.282 0 23.307-15.226 13.64-43.755 24.412-22.063-11.457-39.245-3.273-39.245-23.282 0-23.307 22.226-69.64 50.755-80.412z" class="I"/><path d="M655.28 1170.9c18.304 9.505 26.75 49.174 26.75 65.773 0 19.336-12.632 11.316-36.3 20.253-18.304-9.505-32.558-2.716-32.558-19.315 0-19.336 18.44-57.774 42.107-66.71z" class="J"/><path d="M656.76 1130.2c13.417 6.967 19.61 36.044 19.61 48.212 0 14.173-9.26 8.294-26.608 14.845-13.417-6.967-23.865-1.99-23.865-14.158 0-14.173 13.516-42.348 30.864-48.9z" class="K"/></g><path d="M695.4 1146.6c-4.272-.01-8.316 2.655-10.462 6.3-7.313-2.95-15.797-1.937-22.574 1.963v60.205c6.082-3.106 14.19 2.513 20.477-1.272 5.284 4.98 13.7 5.76 20.076 2.498 5.885-6.346 12.877 3.993 20.344 1.383 7.062-6.134 10.682 4.524 17.354 4.015 10.652.676 17.903-11.1 16.306-20.8-.492-9.563-11.467-18.072-20.544-13.228-3.71-7.796-13.633-11.944-21.77-9.012-4.786 5.125-13.984-1.407-11.332-7.428 8.3-7.022 4.44-23.772-7.027-24.582-.286-.025-.563-.044-.848-.045z" fill="url(#f)"/></g></svg>