<svg xmlns="http://www.w3.org/2000/svg" xmlns:xlink="http://www.w3.org/1999/xlink" width="1122.52" height="793.701" viewBox="0 0 297 210"><style><![CDATA[.B{opacity:.1}.C{fill:#fdb797}.D{opacity:.6}.E{fill:#72351c}.F{stroke-miterlimit:10}.G{stroke-width:1.192}.H{fill:#f55f44}]]></style><defs><linearGradient id="A" gradientUnits="userSpaceOnUse"><stop offset="0" stop-color="gray" stop-opacity=".25"/><stop offset=".54" stop-color="gray" stop-opacity=".12"/><stop offset="1" stop-color="gray" stop-opacity=".1"/></linearGradient><linearGradient id="B" x1="438.37" y1="495.2" x2="438.37" y2="0" xlink:href="#A"/><linearGradient id="C" x1="1105.774" y1="-783.625" x2="1105.774" y2="-1277.759" xlink:href="#A"/><linearGradient id="D" x1="770.815" y1="-1066.792" x2="770.815" y2="-1134.5" xlink:href="#A"/><linearGradient xlink:href="#A" id="E" x1="637.414" y1="-727.283" x2="637.414" y2="-1008.37"/><path id="F" d="M1129.174-1156.657s-16.386 6.215-25.55 16.578c0 0-44.583 18.646-57.044 16.578s-13.11-5.53-15.736-11.01l-28.197-53.834s-11.8-44.902 0-40.07 15.097 31.81 15.097 31.81 22.297 46.97 36.06 46.285l37.336-18.744s8.524-13.128 12.46-12.43 25.572 24.837 25.572 24.837z"/><path id="G" d="M1102.255-1182.12l-13.076 10.816s6.538 18.022 4.9 24.335 26.153-9.9 26.153-9.9l-11.44-27.04z"/><path id="H" d="M1136.723-1041.502s1.556 22.463-4.123 28.36c-.403.397-.6.973-.532 1.55s.396 1.083.88 1.362l16.886 9.482 15.097-30.392z"/><path id="I" d="M1105.402-1175.927s-13.6-1.31-17.536 16.652 30.194 29.01 30.194 29.01l18.36-26.917z"/><path id="J" d="M765.6-1114.618a.383.404 0 0 0 .302.404 6.016 6.338 0 0 1 2.323 1.224c1.277 1.052-1.36-2.105-1.36-2.105l-.883.208-.36.343z"/><path id="K" d="M781.348-1114.973l-.325 5.445s-.197 7.634-1.08 9.568c0 0 .244 5.36-2.125 5.224s.395-5.86.395-5.86 1.266-5.958.615-7.842l-.615-6.534z"/><path id="L" d="M777.887-1117.444a5.191 5.469 0 0 1 0 2.276s-.197 1.982.116 2.324"/><path id="M" d="M765.6-1093.207l1.347-.06 1.16.196h-.406z"/><path id="N" d="M774.682-1100.07h1.347l1.16.122h-.406z"/><path id="O" d="M765.6-1092.07h1.347l1.16.148h-.406z"/><path id="P" d="M774.763-1100.07h1.347l1.16.122h-.383z"/></defs><g transform="matrix(.264583 0 0 .264583 -26.885217 394.0182)"><path d="M1154.735-834.84c-1.997-8.687-8.56-15.233-13.4-22.586a58.066 61.175 0 0 1-3.565-62.068c4.645-9.31 11.927-18.94 9.29-29.107-1.765-6.84-7.63-11.526-13.4-15.196a131.032 138.047 0 0 0-72.664-19.686c-31.286 1.346-62.467 14.51-93.15 7.99-29.88-6.374-55.197-22.158-86.46-24.03-23.354-1.395-46.453.17-69.853-2.52a1035.664 1091.115 0 0 0-174.116-4.38 1035.664 1091.115 0 0 0-174.105 4.38c-23.343 2.692-46.453 1.126-69.853 2.52-31.356 1.86-56.614 17.667-86.507 24.03-30.694 6.533-61.863-6.644-93.15-7.99a131.032 138.047 0 0 0-72.664 19.686c-5.807 3.67-11.613 8.357-13.4 15.196-2.625 10.155 4.645 19.784 9.29 29.107a58.066 61.175 0 0 1-3.542 62.068c-4.83 7.34-11.393 13.9-13.4 22.586-4.018 17.472 12.1 32.863 27.872 39.8 43.027 18.952 95.356 9.788 134.713 36.18 17.64 11.843 33.074 30.857 53.978 31.566 14.133.477 26.99-7.794 39.334-15.073a377.138 397.331 0 0 1 57.729-27.614c17.42-6.533 35.873-11.77 54.257-9.604 28.07 3.267 149.404 65.03 204.102 28.532 37.464-25.02 66.683-25.23 94.822-28.544 18.384-2.166 36.825 3.07 54.257 9.604a377.138 397.331 0 0 1 57.729 27.614c12.333 7.28 25.2 15.55 39.334 15.073 20.904-.7 36.338-19.723 53.978-31.566 39.334-26.403 91.65-17.227 134.713-36.18 15.69-6.962 31.82-22.304 27.8-39.788z" opacity=".5" fill="url(#E)"/><path d="M1149.045-835.196c-1.974-8.564-8.466-15.073-13.24-22.34a57.474 60.551 0 0 1-3.484-61.383c4.645-9.213 11.8-18.732 9.198-28.777-1.754-6.766-7.55-11.403-13.24-15.024a129.592 136.53 0 0 0-71.862-19.478c-30.937 1.32-61.77 14.352-92.127 7.892-29.567-6.29-54.582-21.925-85.554-23.773-23.1-1.37-45.988.17-69.075-2.447a1024.283 1079.125 0 0 0-172.2-4.331 1024.283 1079.125 0 0 0-172.2 4.331c-23.087 2.667-45.977 1.113-69.075 2.447-30.96 1.835-55.987 17.472-85.554 23.773-30.345 6.46-61.2-6.57-92.127-7.892a129.592 136.53 0 0 0-71.862 19.478c-5.7 3.67-11.485 8.26-13.24 15.024-2.6 10.045 4.645 19.576 9.198 28.777a57.474 60.551 0 0 1-3.484 61.383c-4.785 7.268-11.265 13.74-13.24 22.34-4.076 17.276 11.87 32.496 27.442 39.3 42.562 18.732 94.31 9.666 133.203 35.775 17.42 11.71 32.714 30.526 53.42 31.224 13.936.477 26.7-7.708 38.904-14.914a372.992 392.963 0 0 1 57.102-27.321c17.246-6.472 35.478-11.648 53.665-9.507 27.872 3.28 147.836 64.32 201.884 28.226 37.058-24.74 65.95-24.947 93.776-28.226 18.186-2.14 36.43 3.034 53.665 9.507a372.992 392.963 0 0 1 57.102 27.321c12.205 7.194 24.922 15.38 38.904 14.914 20.67-.697 35.943-19.503 53.42-31.224 38.904-26.11 90.653-17.043 133.203-35.775 15.515-6.803 31.46-22.023 27.477-39.3z" fill="teal"/><path d="M156.744-1205.597c3.32-1.224 6.852-2.386 10.324-1.75 5.807 1.064 9.883 6.864 11.613 12.822s1.672 12.235 2.776 18.352 3.74 12.443 8.942 15.367 11.346 1.774 17.118 1.064a108.096 113.883 0 0 1 22.797-.22c6.364.65 13.843 2.912 15.713 9.36 1.533 5.26-1.5 10.632-3.484 15.7-3.786 9.494-4.088 20.714.244 29.94s13.11 16.1 16.78 25.84a12.124 12.773 0 0 1 .883 7.794 13.495 14.217 0 0 1-2.625 5.016c-2.88 3.903-6.318 7.34-8.942 11.452-5.47 8.564-6.968 19.21-7.595 29.498a204.16 215.091 0 0 0 .163 30.379c-7.13-2.447-15.004-.27-22.355-1.872-15.643-3.4-25.4-22.904-41.343-24.09-7.537-.563-15.643 3.18-22.367-.452a16.886 17.79 0 0 1-7.154-8.564 28.847 30.392 0 0 1-1.835-20.433c1.16-4.723 3.484-9.347 3.03-14.205-.383-4.16-2.752-7.83-5.47-10.877-7.746-8.662-18.988-13.96-24.55-24.323a26.304 27.712 0 0 1 3.124-31.187 77.692 81.852 0 0 0 5.632-6.448c2.67-3.964 3.484-8.968 3.844-13.826.766-11.635-1.16-23.956 2.45-35.26 3.24-10.228 13.135-15.66 22.286-19.086z" fill="#0f0" class="D"/><g fill="none" stroke="#535461" class="F G"><path d="M156.907-1205.255s31.716 185.568 72.896 207.7" class="D"/><path d="M245.144-1153.892s-33.97 4.894-67.902 41.66m5.968 21.558s-26.14-26.917-66.985-22.353m143.877 34.062s-47.707 4.27-65.37 23.565m7.14 17.972s-26.7-4.894-51.365 11.685" class="D"/></g><path d="M1138.628-1351.365c-5.33-1.994-10.986-3.818-16.55-2.802-9.29 1.713-15.84 11.012-18.58 20.543s-2.683 19.698-4.448 29.486-5.992 19.93-14.33 24.63-18.186 2.84-27.442 1.713a173.28 182.558 0 0 0-36.512-.404c-10.208 1.04-22.18 4.674-25.177 15-2.45 8.442 2.415 17.03 5.667 25.167 6.074 15.208 6.562 33.206-.395 47.998-7.072 15.05-21.02 25.816-26.896 41.415-1.486 3.964-2.427 8.356-1.417 12.48a21.635 22.794 0 0 0 4.216 8.051c4.645 6.264 10.127 11.782 14.33 18.352 8.768 13.703 11.15 30.783 12.17 47.276a327.26 344.782 0 0 1-.255 48.683c11.427-3.964 24.063-.428 35.838-2.986 25.073-5.445 40.727-36.705 66.265-38.613 12.078-.893 25.073 5.1 35.85-.734 5.25-2.84 8.977-8.136 11.474-13.777a46.244 48.72 0 0 0 2.775-32.668c-1.893-7.573-5.574-14.975-4.854-22.77.616-6.668 4.4-12.553 8.768-17.422 12.415-13.887 30.438-22.378 39.357-38.98 8.362-15.563 6.248-36.62-5.005-49.992-2.95-3.51-6.457-6.52-9.035-10.34-4.285-6.35-5.656-14.376-6.167-22.157-1.22-18.658 1.79-38.393-3.937-56.514-5.226-16.493-21.078-25.216-35.71-30.636z" fill="#0f0" class="D"/><g fill="none" stroke="#535461" class="F G"><path d="M1138.326-1350.875s-50.83 297.444-116.852 332.914" class="D"/><path d="M996.888-1268.546s54.443 7.88 108.84 66.8m-9.57 34.54s41.912-43.177 107.364-35.836m-230.545 54.604s76.46 6.84 104.774 37.78m-11.497 28.803s42.84-7.904 82.338 18.72" class="D"/></g><path fill="url(#B)" transform="matrix(1.161319 0 0 1.223498 116.16769 -1473.8125)" d="M74.9 495.2h726.93V0H74.9v25z"/><path fill="#fff" d="M215.68-1446.32h822.736v567.42H215.68z"/><path fill="#eee" d="M215.68-1473.31h822.736v41.746H215.68z"/><ellipse cx="246.99" cy="-1453.074" fill="#ff5252" rx="9.604" ry="10.118"/><ellipse cx="273.41" cy="-1453.074" fill="#ff0" rx="9.604" ry="10.118"/><ellipse cx="299.83" cy="-1453.074" fill="#69f0ae" rx="9.604" ry="10.118"/><path opacity=".5" d="M233.134-1082.333h306.588v15.352H233.134zm4.692-117.027h306.588v13.458H237.826zm9.384-111.507h306.6v13.458H247.2zm105.68 26.917h200.9v13.458H352.9zm-105.68 26.917h161.423v13.458H247.2zm87.1 26.917h124.26v13.458H334.3zm260.145-40.376h361.17v219.006h-361.17z" fill="#6c63ff"/><path fill="#e4ffff" d="M637.414-1249.692h361.17v219.006h-361.17z"/><path d="M1215.727-1047.644a5.47 5.763 0 0 0 1.161-3.536v-.097c0-.025.07-.257.103-.38v-.16a3.345 3.524 0 0 0 0-.355v-.148a2.323 2.447 0 0 0 0-.44c-.685-4.894-28.3-36.778-35.188-75.673a65.278 68.773 0 0 0-3.403-12.394 16.258 17.129 0 0 0-.372-5.995c-1.16-4.98-3.484-10.033-2.323-15a11.497 12.113 0 0 1 .639-1.896 70.364 74.132 0 0 0 3.983-6.962 15.957 16.811 0 0 0 1.161-2.447c4.24-11.77-8.884-23.92-6.47-36.203 1.045-5.322 4.96-9.972 4.854-15.392-.127-6.203-5.54-11.012-11.16-13.312s-11.81-2.96-17.327-5.53c-12.09-5.64-18.71-19.258-29.74-26.83-14.017-9.604-32.308-7.892-49.112-5.408a3.403 3.585 0 0 0-2.578 2.006h0-.163c-.128.39-.28.77-.44 1.15-2.323 4.172-6.236 7.34-10.103 10.265-4.715 3.5-9.767 6.95-12.647 12.137-.43.77-.8 1.505-1.103 2.215-6.27 11.782 1.266 16.872 10.452 19.698a28.917 30.465 0 0 0-.418 5.102c0 17.13 13.6 31.114 30.357 31.114a31.437 33.12 0 0 0 3.96-.269l.975.673h.22c3.112 2.36 5.807 5.322 6.968 8.846l-9.732 7.83.976 2.8-38.254 18.573c-14.493.7-37.952-47.386-37.952-47.386s-3.484-27.578-15.875-32.533c-3.74-1.493-5.226 1.627-5.482 6.717-5.54 6.118 3.763 40.473 3.763 40.473l29.672 55.168c2.764 5.652 3.484 9.188 16.56 11.317 10.765 1.737 44.304-10.816 55.976-15.367l.546 4.894a27.21 28.667 0 0 0-1.765 11.709c0 9.017 3.82 22.133 22.472 32.582 0 0 19.255 26.22 17.118 50.97 0 0 .93 1.028 2.416 2.373-.21 6.974-1.16 15.575-4.494 18.928a1.777 1.872 0 0 0-.523 1.737 1.684 1.774 0 0 0 .813 1.896l-24.306 44.84-2.764 3.67a124.598 131.269 0 0 1-14.969 16.823c-4.053 3.805-8.27 7.965-9.105 9.52-1.29 2.447-4.53 10.34-3.16 16.86a83.615 88.092 0 0 1 2.16 24.152l-3.147 58.006a143.609 151.298 0 0 1-4.355 19.148h-.476s-11.73 14.853-30.357 18.352-17.942 13.458-12.426 14.853 72.455-1.42 72.455-1.42 2.532-5.2 1.835-9.947l50.97-5.836s4.053-10.265-1.835-14.743a13.75 14.486 0 0 1-4.715-7.06l-1.103-5.224c-.092-.918-.092-1.48-.092-1.48h-.197c-1.034-5.47-1.858-11.33-1.382-14.4 1.73-8.136 6.213-55.168-4.83-68.6-5.017-6.118-4.332-13.067-2.102-18.866 13.25-9.14 31.785-28.8 42.504-40.694.604.526 1.16 1.052 1.684 1.578l.348.355s36.477-19.025 36.628-52.6a49.135 51.766 0 0 0-5.783-24.727zm-116.84 236.918a18.744 19.747 0 0 1 .128-3.67l-1.16-.135c.674-5.334 2.323-11.305 6.016-15.428a124.377 131.037 0 0 0 13.285-38.76l6.7 26.71s.674 5.53.86 11.38h-.117s-9.35 14.058-25.712 19.906z" opacity=".5" fill="url(#C)"/><use xlink:href="#F" class="C"/><use xlink:href="#F" x="0.001" opacity=".05"/><use xlink:href="#G" fill="#f9ce43"/><use xlink:href="#G" y="0.002" opacity=".05"/><path d="M1079.68-1194.158s29.172 10.02 15.736 27.627l41.958-21.4s-17.698 1.383-28.847-26.917zm55.07 180.295l-36.06 68.38 24.272 99.42s2.625 22.1-1.312 24.176h27.535s-5.307-19.576-3.937-26.244c1.638-7.94 5.9-53.834-4.645-67s5.25-30.392 5.25-30.392l31.472-52.5z" class="C"/><path d="M1134.75-1013.863l-36.06 68.38 24.272 99.42s2.625 22.11-1.312 24.176h27.535s-4.912-19.686-3.937-26.244 5.9-53.834-4.645-67 5.25-30.392 5.25-30.392l31.472-52.5z" opacity=".05"/><path d="M1123.658-834.902s-9.987 15.502-27.407 20.42-16.003 14.51-10.673 15.44 68.518-7.133 68.518-7.133 3.844-10.02-1.742-14.4-5.62-13.458-5.62-13.458z" fill="#0d134d"/><use xlink:href="#H" class="B"/><path d="M1136.723-1042.187s1.556 22.463-4.123 28.36a1.719 1.811 0 0 0 .349 2.912l16.886 9.482 15.097-30.39z" fill="#e23553"/><use xlink:href="#H" y="0.539" class="B"/><path d="M1137.373-997.982s-9.743 6.852-30.194 35.053a120.417 126.864 0 0 1-14.226 16.431c-3.844 3.67-7.85 7.782-8.652 9.3-1.23 2.337-4.31 10.106-2.996 16.468a83.917 88.41 0 0 1 2.056 23.589l-2.985 56.66s-3.937 25.56-9.174 28.324l26.884 4.894s-1.963-17.96 5.9-26.917c0 0 18.36-33.157 13.773-70.46 0 0-1.963-16.578 15.736-25.56s53.77-52.5 53.77-52.5z" class="C"/><path d="M1075.742-821.835s-11.15 14.51-28.847 17.96-17.048 13.128-11.8 14.51 68.843-1.383 68.843-1.383 4.645-9.666-.65-14.51-3.937-13.813-3.937-13.813z" fill="#0d134d"/><path d="M1153.77-1034.59s-8 28.312-18.14 36.558c-.383.302-.578.8-.507 1.3s.394.916.844 1.087c8.385 3.218 35.327 14.058 44.688 23.92l.325.343s56.057-30.05 25.897-81.167z" class="B"/><path d="M1153.77-1035.274s-8.002 28.312-18.14 36.558a1.301 1.37 0 0 0 .337 2.386c8.385 3.218 35.327 14.058 44.688 23.92l.325.343s56.057-30.05 25.897-81.167z" fill="#e23553"/><path d="M1107.737-1175.658c-4.166 2.952-8.72 5.244-13.518 6.803l4.506 42.247s-10.533 24.837 19.59 42.186c0 0 18.29 25.608 16.258 49.784 0 0 9.813 11.085 16.375 8.332s.65 1.383 1.963.697 3.925 5.542 24.26.06 34.84-19.93 34.154-24.776-26.792-35.995-33.26-74.01-45.082-65.053-45.082-65.053-1.277.746-3.484 1.737c-7.548 3.375-14.826 7.384-21.763 12z" class="B"/><path d="M1135.12-997.774c-.05.6.3 1.18.848 1.383 7.223 2.777 28.22 11.207 39.88 19.796-10.092-8.6-31.565-17.508-40.727-21.18zm71.758-55.46l-1.16.416c25.77 47.46-22.762 76.126-27 78.512.732.636 1.394 1.223 1.997 1.896l.325.343s56-30.05 25.84-81.167z" class="B"/><path d="M1177.37-1026.99c-20.323 5.53-22.948-.685-24.26 0s4.645-3.45-1.963-.685-16.386-8.295-16.386-8.295c.092-1.224.14-2.36.14-3.548.07-23.1-16.584-46.187-16.584-46.187-30.194-17.264-19.673-42.137-19.673-42.137l-1.23-11.33-3.38-30.906a51.237 53.981 0 0 0 13.495-6.827 153.503 161.722 0 0 1 21.728-12.039c2.218-1.003 3.484-1.75 3.484-1.75s38.684 26.917 45.29 64.93 32.784 69.08 33.435 73.91-13.773 19.33-34.096 24.862z" fill="#00f"/><path d="M1109.177-1214.186l-28.847 20.726c3.976 1.453 7.758 3.44 11.253 5.91 9.825-1.456 15.84-8.87 19.893-17.998-1.58-2.667-.883-5.053-2.3-8.638z" class="B"/><ellipse cx="1086.891" cy="-1218.322" rx="28.847" ry="30.392" class="C"/><path d="M1181.957-1030.44c-20.323 5.53-22.948-.685-24.26 0s4.645-3.45-1.963-.685-16.386-8.295-16.386-8.295a46 46 0 0 0 .139-3.548c.08-23.063-16.537-46.187-16.537-46.187-30.194-17.264-19.673-42.137-19.673-42.137l-1.22-11.342-3.194-29.254c-1.543.733-3.14 1.334-4.773 1.8l3.32 30.918 1.243 11.33s-10.452 24.874 19.673 42.137c0 0 16.618 23.124 16.537 46.187 0 1.223 0 2.36-.14 3.548 0 0 9.836 11.01 16.386 8.295s.65 1.383 1.963.685 3.937 5.53 24.26 0c9.22-2.513 17.86-6.97 25.398-13.104-6.393 4.364-13.407 7.622-20.776 9.653z" class="B"/><path d="M1127.537-1150.638s-16.386 6.215-25.55 16.578c0 0-44.583 18.646-57.044 16.58s-13.11-5.53-15.736-11.012l-28.197-53.834s-11.8-44.902 0-40.07 15.097 31.81 15.097 31.81 22.297 46.97 36.06 46.285l37.348-18.768s8.524-13.128 12.46-12.43 25.56 24.86 25.56 24.86z" class="C"/><use xlink:href="#I" class="B"/><use xlink:href="#I" x="0.662" fill="#00f"/><g class="B"><path d="M1100.513-1172.734c-2.058 1.093-4.213 1.97-6.434 2.618l.116 1.04a66.82 66.82 0 0 0 6.318-3.658zm110.953 120.88c-.65-4.894-26.885-35.922-33.434-73.912s-45.3-64.93-45.3-64.93-1.277.746-3.484 1.75a154.18 154.18 0 0 0-17.164 9.115q5.516-3.06 11.265-5.653c2.218-1.003 3.484-1.75 3.484-1.75s38.684 26.917 45.3 64.93 32.784 69.08 33.434 73.912c.418 3.047-5.168 9.935-14.447 16.003 12.74-6.668 20.846-15.82 20.346-19.466z"/><path d="M1113.857-1175.646s16.955 8.846 20.15 25.852" fill="none" stroke="#000" class="F G"/><path d="M1072.398-1220.034c2.706.636 5.725 1.53 7.06 4.086.964 1.86.8 4.197 1.73 6.117 2.416 4.796 9.5 3.144 13.936 5.958 8.13 5.163 2.822 21.264 10.916 26.452 1.52.98 3.32 1.37 4.89 2.263 6.84 3.94 5.876 14.364 4.645 22.476s.232 19.21 7.955 20.36c4.25.624 9.023-2.337 12.6.147 1.87 1.297 2.717 3.67 4.285 5.396 2.2 2.313 5.495 3.03 8.385 1.823 2.625-1.15 4.518-3.78 7.247-4.625 4.4-1.358 9.29 2.386 13.518.66s5.19-8.16 4.1-13.018-3.32-9.788-2.16-14.682c.964-4.038 4.1-7.12 5.47-11.01 4.018-11.49-8.443-23.357-6.143-35.36 1-5.2 4.715-9.788 4.645-15.037-.116-6.117-5.26-10.755-10.614-13.006s-11.23-2.887-16.468-5.396c-11.485-5.506-17.768-18.817-28.267-26.207-4.702-3.233-10.002-5.377-15.55-6.29-14.483-2.456-29.268 1.78-40.576 11.623-1.034.88-2.1 1.713-3.16 2.52-4.483 3.414-9.29 6.778-12.02 11.843-9.964 18.28 12.925 20.37 23.575 22.904z"/></g><path d="M1073.21-1221.76c2.706.636 5.725 1.53 7.06 4.087.964 1.86.8 4.197 1.73 6.117 2.416 4.796 9.5 3.144 13.936 5.958 8.13 5.163 2.822 21.264 10.916 26.452 1.522.98 3.322 1.37 4.89 2.263 6.84 3.94 5.876 14.364 4.645 22.476s.232 19.21 7.955 20.36c4.25.624 9.023-2.337 12.6.148 1.87 1.297 2.717 3.67 4.285 5.396a7.804 8.222 0 0 0 8.385 1.823c2.625-1.15 4.517-3.78 7.247-4.625 4.4-1.358 9.29 2.386 13.518.66s5.19-8.16 4.1-13.018-3.32-9.788-2.16-14.682c.964-4.037 4.1-7.12 5.47-11.012 4.018-11.49-8.443-23.357-6.143-35.36 1-5.2 4.715-9.788 4.645-15.037-.116-6.117-5.26-10.755-10.614-13.006s-11.23-2.887-16.468-5.396c-11.485-5.505-17.768-18.817-28.266-26.207a38.904 40.987 0 0 0-14.052-5.995 51.017 53.748 0 0 0-42.109 11.354c-1.022.87-2.08 1.7-3.124 2.447-4.483 3.414-9.29 6.778-12.02 11.843-9.964 18.328 12.937 20.432 23.575 22.953z" fill="#a00"/><path d="M839.483-1030.686h-202.07v-40.118c49.368-24.31 125.33-37.965 202.07 40.118z" fill="#a40"/><path d="M996.262-1036.424v5.738H744.256v-1.223s124.006-127.207 252.006-4.515z" class="B"/><path d="M998.584-1036.425v5.738H746.578v-1.224s124.006-127.207 252.006-4.515z" fill="#ffca63"/><ellipse cx="679.221" cy="-1210.54" fill="#ff0" rx="18.581" ry="19.576"/><path d="M837.416-1225.345l-6.1.134a7.432 7.83 0 0 0-2.114.453l-10.928 4.135c8.826.233 18.035.16 27.082.085l50.726-.416c5.18 0 10.614-.097 14.923-.416 2.892-.22 5.017-.538 7.688-.783 9.604-.905 23.598-.734 36.105-.685s27.605-.294 32.006-1.615h-26.85c-2.892 0-5.934 0-8.5-.148-2.985-.183-4.808-.526-7.432-.77-4.343-.392-10.336-.44-15.9-.465-30.6-.134-60.818.624-90.7.5zm30.054 23.712h-1.324a1.614 1.701 0 0 0-.465.097l-2.323.893h5.865l10.986-.085 3.228-.085c.627 0 1.092-.122 1.66-.17 2.08-.196 5.1-.16 7.827-.148a42.644 44.927 0 0 0 6.968-.355h-7.64c-.546 0-1.045-.1-1.614-.17-.94-.085-2.24-.1-3.484-.1l-19.684.122zm-77.807 34.258h-1.324a1.614 1.701 0 0 0-.465.097l-2.323.893h5.865l10.986-.085 3.228-.085c.627 0 1.092-.122 1.66-.17 2.08-.196 5.1-.16 7.827-.148a42.644 44.927 0 0 0 6.968-.355h-7.64c-.546 0-1.045-.1-1.614-.17-.94-.085-2.24-.097-3.484-.097l-19.684.122z" fill="#f4f4f4"/><path d="M746.01-1041.54h-8.733s-2.73-100.62 8.733-131.673h2.183s-7.64 113.847-2.183 131.673z" fill="#483e37"/><path d="M740.005-1178.387s-7.096 20.7-3.82 29.902c0 0 4.912-18.977 10.638-21.852s11.73 21.852 11.73 21.852 3.275-15.526-2.73-28.14c0 0 12.008 6.9 18.012 20.127 0 0 1.092-8.564-13.1-26.452 0 0 12.554 3.45 20.74 11.5 0 0 2.73-6.326-14.19-16.676 0 0 2.183-7.476 15.283-4.025 0 0 0-9.788-20.74-8.05 0 0 0-6.325 13.645-5.176 0 0 0-8.05-15.83-5.175 0 0 3.275-5.175 5.458-6.325a10.974 11.562 0 0 0-7.641 2.3s.546-10.35-7.64-14.376l-1.092 14.376s-9.174-11.39-7.096-9.2c.546.575 2.183 7.476 1.637 10.926 0 0-9.29-8.05-20.74.575 0 0 14.19 1.15 16.375 6.325 0 0-12.008-2.3-14.737-.575 0 0 9.29 3.45 8.733 5.75 0 0-16.375 0-18.58 6.325 0 0 16.92 2.3 18.012 4.025 0 0-19.65 14.95-20.74 18.976 0 0 20.195-12.65 23.47-12.65s-14.737 18.352-13.645 23.002c.046-.037 14.83-18.438 18.593-17.288z" fill="#63ff6e"/><path d="M853.72-1045.307h6.666s2.1-76.872-6.666-100.596h-1.672s5.853 86.954 1.672 100.596z" fill="#784421"/><path d="M858.308-1149.855s5.423 15.82 2.915 22.842c0 0-3.75-14.498-8.13-16.688s-8.965 16.688-8.965 16.688-2.497-11.855 2.1-21.52a36.245 38.185 0 0 0-13.762 15.379s-.836-6.595 10.01-20.212c0 0-9.592 2.63-15.84 8.785 0 0-2.1-4.833 10.847-12.737 0 0-1.672-5.714-11.67-3.07 0 0 0-7.463 15.84-6.117 0 0 0-4.833-10.452-3.952 0 0 0-6.117 12.09-3.952 0 0-2.497-3.952-4.17-4.833a8.385 8.834 0 0 1 5.807 1.762s-.418-7.904 5.807-11.01l.836 11.01s6.968-8.7 5.423-7.023a18.291 19.27 0 0 0-1.254 8.344s7.084-6.117 15.84.44c0 0-10.847.88-12.507 4.833 0 0 9.174-1.762 11.253-.44 0 0-7.084 2.63-6.666 4.392 0 0 12.507 0 14.18 4.833 0 0-12.925 1.762-13.762 3.07 0 0 15.016 11.427 15.84 14.498 0 0-15.422-9.666-17.93-9.666s11.253 14.058 10.452 17.57c.058-.05-11.195-14.082-14.122-13.226z" fill="#81ff63"/><path d="M933.54-1060.33h4.134s1.29-47.606-4.134-62.3h-1.034s3.612 53.895 1.034 62.3z" fill="#784421"/><path d="M936.384-1125.08s3.356 9.788 1.812 14.144c0 0-2.323-8.98-5.04-10.34s-5.55 10.34-5.55 10.34-1.545-7.34 1.29-13.336a22.448 23.65 0 0 0-8.524 9.519s-.51-4.087 6.2-12.516a26.199 27.602 0 0 0-9.813 5.445s-1.29-2.998 6.712-7.892c0 0-1.034-3.536-7.235-1.91 0 0 0-4.625 9.813-3.805 0 0 0-2.998-6.457-2.447 0 0 0-3.805 7.49-2.447a11.346 11.954 0 0 0-2.578-2.998 5.191 5.469 0 0 1 3.612 1.089s-.255-4.894 3.612-6.803l.51 6.803s4.343-5.383 3.356-4.356a11.323 11.929 0 0 0-.778 5.163 8.048 8.479 0 0 1 9.813.269s-6.712.538-7.746 2.997c0 0 5.68-1.09 6.968-.27 0 0-4.4 1.627-4.134 2.716 0 0 7.746 0 8.78 2.998 0 0-8 1.09-8.524 1.91 0 0 9.29 7.072 9.813 8.98 0 0-9.558-5.983-11.102-5.983s6.968 8.71 6.457 10.877c.023.017-6.956-8.7-8.756-8.15z" fill="#85ff63"/><path d="M782.567-1114.165h0l-.87-4.894a2.52 2.655 0 0 0-.79-1.921l-4.03-2.08a4.564 4.808 0 0 1-.72-1.224l.07-.11a2.416 2.545 0 0 0 .465-.991 1.603 1.688 0 0 0 0-.281h.058a1.498 1.578 0 0 0 1.661-1.224v-.11a1.498 1.578 0 0 1-1.359 1.223 4.111 4.331 0 0 0 1.823-3.597v-.183a1.486 1.566 0 0 0 .685-1.052v-.11a1.486 1.566 0 0 1-.708.979 4.088 4.307 0 0 0-.255-1.224h.105a1.498 1.578 0 0 0 1.498-1.578v-.11a1.498 1.578 0 0 1-1.486 1.468h-.186v-.073a2.45 2.582 0 0 0 1.719-2.092v-.11a1.486 1.566 0 0 1-.302.844 1.498 1.578 0 0 0-2.95-.465l-.267-.16a1.498 1.578 0 0 1 1.347-1.15h-.105a1.498 1.578 0 0 0-1.428 1.064 4.111 4.331 0 0 0-5.179 1.566c-.314.245-.72.6-.708.906a2.845 2.998 0 0 0-.36.465 5.69 5.995 0 0 0-.465 3.267 3.287 3.462 0 0 1-1.068 2.997 1.417 1.493 0 0 0 1.092 0 4.204 4.429 0 0 0 .964-.599 2.16 2.276 0 0 0 .685-.697v-.06a3.391 3.573 0 0 0 .615.342c.08.734.105 1.578-.21 1.86h0l.058-.134a3.774 3.976 0 0 1-2.613.783 3.263 3.438 0 0 0-2.706 1.835l-1.266 5.567v.195a.406.428 0 0 0 .302.306l.395.11a8.199 8.638 0 0 1-.267 2.826 22.913 24.14 0 0 0-.453 4.16c.093.697.255 4.33.337 6.056a17.025 17.936 0 0 0-.337 1.786l-1.87 11.82s-1.394 9.458-1.324 12.32l-.244 1.652s-3.798 5.016-2.683 5.726 2.834 1.015 4.47-1.652a4.099 4.319 0 0 1 1.045-1.652 1.533 1.615 0 0 0 .523-1.382l-.116-1.224.197.074h.116s1.87-6.472 1.66-11.012c0 0 3.484-12.994 6.097-15.037v-.085l.244-.122.557 12.6-.57 13.874-.128.832s-3.798 5.016-2.683 5.726 2.834 1.015 4.47-1.652a4.099 4.319 0 0 1 1.045-1.652 1.533 1.615 0 0 0 .523-1.383l-.174-1.835c.65-2.337 2.323-9.066 1.637-12.97l1.16-8.295c1.16-1.382 1-4.894 1-4.894.917-2.02 1.16-9.935 1.16-9.935l.232-3.915a3.089 3.255 0 0 1 .523 0h.186v-.074a.348.367 0 0 0 .081-.111h.07v-.097zm-3.252 7.953a12.06 12.06 0 0 0-.348-.807h-.093v-.097a.453.477 0 0 1 0-.098v-.097a3.205 3.377 0 0 0 .139-.404 1.452 1.529 0 0 0 .221-.844 7.595 8.002 0 0 1 .081 2.349zm-.348-3.352l-.232-2.618.07-.208.314 3.328zm-11.01.355a.871.918 0 0 0-.209.71v.085a2.822 2.973 0 0 0 .105.783l-.36 1.64v-3.132a6.573 6.925 0 0 0 .627-1.052 1.626 1.713 0 0 1-.163.966z" fill="url(#D)"/><path d="M770.304-1129.422a5.481 5.775 0 0 0-.453 3.145 3.17 3.34 0 0 1-1.034 2.887 1.37 1.444 0 0 0 1.057 0 4.053 4.27 0 0 0 .929-.575 2.079 2.19 0 0 0 .662-.673 2.462 2.594 0 0 0 .151-1.333 13.425 14.144 0 0 1 .197-2.386c.07-.49.51-1.823 0-2.08s-1.29.648-1.5 1.015z" class="E"/><path d="M762.627-1077.412l-.36 2.447s-3.658 4.894-2.578 5.518 2.73.98 4.308-1.6a3.948 4.16 0 0 1 .999-1.591h0a1.475 1.554 0 0 0 .499-1.334l-.36-3.732zm11 .967l-.36 2.447s-3.658 4.894-2.578 5.518 2.73.98 4.308-1.6a3.948 4.16 0 0 1 .999-1.591h0a1.475 1.554 0 0 0 .499-1.333l-.36-3.732z" fill="#333"/><path d="M767.935-1105.7s-1.72 1.31-2.323 5.86l-1.8 11.39s-1.52 10.326-1.243 12.31l3.043 1.1s1.8-6.24 1.603-10.583c0 0 3.658-13.727 6.225-14.682l.546 12.125-.58 13.642 2.6.55s2.636-8.687 1.8-13.287l1.36-9.788s1.556-5.224-.604-9.788z" fill="#4d8af0"/><path d="M773.172-1100.12v-.208c-2.567.967-6.225 14.682-6.225 14.682a40.45 40.45 0 0 1-1.568 10.473l.325.122s1.8-6.24 1.603-10.583c-.012.012 3.333-12.467 5.865-14.486zm5.493-6.668h-.348a15.21 15.21 0 0 1 .581 9.702l-1.36 9.788c.8 4.356-1.533 12.37-1.777 13.214l.337.073s2.636-8.687 1.8-13.287l1.36-9.788s1.568-5.2-.592-9.702z" class="B"/><use xlink:href="#J" class="H"/><use xlink:href="#J" class="B"/><path d="M778.166-1111.828a8.129 8.564 0 0 1 3.623-1.505.337.355 0 0 0 .337-.355h0s-3.043-1.26-3.96 1.86z" class="H"/><path d="M782.126-1113.7s-3.043-1.224-3.96 1.86c0 0 2.24-1.81 3.798-1.517" class="B"/><ellipse cx="774.635" cy="-1128.444" rx="3.96" ry="4.172" class="E"/><path d="M771.906-1125.52s.557 2.447 0 2.95-1.684 1.43-.836 2.153 3.88 1.945 4.89 1.346 2.16-.416 1.88-1.64-2.485-.966-2.52-7.047z" class="C"/><path d="M766.297-1115.352a14.493 15.269 0 0 1-.244 3.964 22.065 23.246 0 0 0-.441 4.001c.116.88.36 6.705.36 6.705s-.44 5.102 1.916 4.637-.36-5.824-.36-5.824l.116-6.962a6.167 6.497 0 0 0 1.161-3.12c.174-1.676-2.508-3.4-2.508-3.4z" class="B"/><path d="M766.262-1115.352a14.493 15.269 0 0 1-.244 3.964 22.065 23.246 0 0 0-.441 4.001c.116.88.36 6.705.36 6.705s-.44 5.102 1.916 4.637-.36-5.824-.36-5.824l.116-6.962a6.167 6.497 0 0 0 1.161-3.12c.163-1.676-2.508-3.4-2.508-3.4z" class="C"/><use xlink:href="#K" class="B"/><use xlink:href="#K" x="0.035" class="C"/><path d="M773.706-1120.246s1.916.93 2.96-1.835l3.9 2.006a2.427 2.557 0 0 1 .755 1.86l.836 4.723s-2.845-1.015-3.728 1.774l.244 2.655a2.717 2.863 0 0 1-.128 1.982.418.44 0 0 0 0 .355 1.231 1.297 0 0 1-1.161 1.688 23.61 24.874 0 0 0-3.124.257c-.836.257-3.368-.502-4.204 0s-2.6-.38-2.6-.38l.476-2.153s-.325-1.052.08-1.432.163-3.67-.197-4.6c0 0-1.44-1.43-2.323-1.224l1.16-5.445a3.136 3.303 0 0 1 2.601-1.774 3.647 3.842 0 0 0 2.52-.758s-.87 2.007 1.94 2.3z" class="B"/><path d="M773.904-1120.344c.523.148 1.916.306 2.752-1.91l3.9 2.007a2.427 2.557 0 0 1 .755 1.86l.836 4.723s-2.845-1.015-3.728 1.774l.244 2.655.163.526a1.428 1.505 0 0 1-.197 1.346.453.477 0 0 0-.081.489 1.231 1.297 0 0 1-1.161 1.688 23.61 24.874 0 0 0-3.124.257c-.836.257-3.368-.502-4.204 0s-2.6-.38-2.6-.38l.476-2.153s-.325-1.052.08-1.432.163-3.67-.197-4.6c0 0-1.44-1.43-2.323-1.224l1.16-5.445a3.136 3.303 0 0 1 2.601-1.774 3.647 3.842 0 0 0 2.52-.759s-.94 1.81 1.533 2.203z" class="B"/><path d="M773.904-1120.258c.523.148 1.916.306 2.752-1.91l3.9 2.007a2.427 2.557 0 0 1 .755 1.86l.836 4.723s-2.845-1.015-3.728 1.774l.244 2.655a2.717 2.863 0 0 1-.128 1.982.418.44 0 0 0 0 .355 1.231 1.297 0 0 1-1.161 1.689 23.61 24.874 0 0 0-3.124.257c-.836.257-3.368-.502-4.204 0s-2.6-.38-2.6-.38l.476-2.153s-.325-1.052.08-1.432.163-3.67-.197-4.6c0 0-1.44-1.432-2.323-1.224l1.16-5.445a3.136 3.303 0 0 1 2.601-1.774 3.647 3.842 0 0 0 2.52-.759s-.94 1.81 1.533 2.202z" class="H"/><path d="M775.38-1127.538l-3.403 2.24a11.056 11.648 0 0 1 .197 1.224 3.275 3.45 0 0 0 1.219.245 3.484 3.67 0 0 0 2.207-1.052 13.227 13.936 0 0 1-.221-2.655z" class="B"/><ellipse cx="773.323" cy="-1127.563" rx="3.287" ry="3.462" class="C"/><g class="E"><ellipse cx="778.166" cy="-1131.735" rx="1.44" ry="1.517"/><path d="M778.444-1130.132a1.44 1.517 0 0 1-1.44-1.407v.11a1.44 1.517 0 1 0 2.88 0v-.11a1.44 1.517 0 0 1-1.44 1.407z"/><path d="M777.62-1128.688a1.44 1.517 0 0 1-1.161-1.664v.098a1.441 1.518 0 1 0 2.834.551v-.1a1.44 1.517 0 0 1-1.672 1.126zm-1.115 3.67a1.44 1.517 0 0 1-1.161-1.664v.097a1.441 1.518 0 0 0 2.834.551v-.1a1.44 1.517 0 0 1-1.672 1.126zm1.94-5.922a1.44 1.517 0 0 1-1.44-1.419v.1a1.44 1.517 0 1 0 2.88 0v-.1a1.44 1.517 0 0 1-1.44 1.419zm-2.01-.82a1.44 1.517 0 0 1 1.359-1.505h-.105a1.44 1.517 0 0 0 0 3.034h.105a1.44 1.517 0 0 1-1.359-1.53z"/></g><use xlink:href="#L" class="B"/><use xlink:href="#L" x="-9.732" y="0.464" class="B"/><path d="M768.074-1108.843a1.428 1.505 0 0 0 .964 0 1.997 2.104 0 0 1 1.161 0m-1.637-2.985a8.303 8.748 0 0 0 3.321-.551s4.088 1.052 5.25.294" class="B"/><rect x="765.589" y="-1093.647" width="2.52" height="1.639" rx=".778" ry=".82" class="C"/><g fill="#f0e4e4"><use xlink:href="#M"/><use xlink:href="#N"/><use xlink:href="#N" y="0.293"/><use xlink:href="#N" y="0.6"/><use xlink:href="#N" y="0.892"/><use xlink:href="#O"/><use xlink:href="#O" y="-0.146"/><use xlink:href="#O" y="-0.293"/><use xlink:href="#O" y="-0.44"/><use xlink:href="#M" y="-0.22"/><use xlink:href="#M" y="-0.477"/></g><path d="M773.88-1129.777a7.943 8.369 0 0 0 .465 3.817 4.308 4.539 0 0 1-.174 3.671 1.161 1.223 0 0 0 1.022-.269 3.96 4.172 0 0 0 .743-.918 2.323 2.447 0 0 0 .453-.954 3.588 3.781 0 0 0-.232-1.615 19.742 20.799 0 0 1-.488-2.851c-.07-.587 0-2.276-.627-2.447s-1.045 1.077-1.16 1.566z" class="B"/><path d="M773.962-1129.814a7.943 8.369 0 0 0 .465 3.817 4.308 4.539 0 0 1-.174 3.671 1.161 1.223 0 0 0 1.022-.269 3.96 4.172 0 0 0 .743-.918 2.323 2.447 0 0 0 .453-.954 3.588 3.781 0 0 0-.232-1.615 19.742 20.799 0 0 1-.488-2.851c-.07-.588 0-2.276-.627-2.447s-1.045 1.064-1.16 1.566z" class="E"/><path d="M772.545-1128.908c.28.306.337.76.57 1.1a2.056 2.166 0 0 0 1.626.685.917.967 0 0 1 .476.111c.255.17.267.563.43.832a.929.979 0 0 0 1.359 0 2.241 2.361 0 0 0 .523-1.505 8.942 9.421 0 0 0 0-1.823 2.648 2.79 0 0 0-.732-1.86 3.089 3.255 0 0 0-1.289-.587 3.821 4.025 0 0 0-1.986-.16 3.577 3.768 0 0 0-.906.477q-.592.404-1.16.82c-.43.318-1.243.954-.453 1.297.5.245 1.126.134 1.545.612z" class="B"/><path d="M772.626-1128.957c.28.306.337.76.57 1.1a2.056 2.166 0 0 0 1.626.685.917.967 0 0 1 .476.111c.255.17.267.563.43.832a.929.979 0 0 0 1.359 0 2.241 2.361 0 0 0 .523-1.505 8.942 9.421 0 0 0 0-1.823 2.648 2.79 0 0 0-.732-1.86 3.089 3.255 0 0 0-1.289-.587 3.821 4.025 0 0 0-1.986-.16 3.577 3.768 0 0 0-.906.477q-.592.404-1.16.82c-.43.318-1.243.954-.453 1.297.5.245 1.16.148 1.545.612z" class="E"/><g fill="#f0e4e4"><use xlink:href="#P"/><use xlink:href="#P" y="0.293"/><use xlink:href="#P" y="0.6"/><use xlink:href="#P" y="0.892"/><use xlink:href="#N" x="-0.5" y="17.128"/><use xlink:href="#N" x="-0.5" y="17.434"/><use xlink:href="#N" x="-0.5" y="17.728"/><use xlink:href="#N" x="-0.5" y="18.02"/></g><text xml:space="preserve" transform="matrix(1.161319 0 0 1.223498 259.28699 -1882.902)" font-size="40" font-family="sans-serif" fill="#000"><tspan x="158.182" y="441.327">Website start up</tspan></text></g></svg>