<svg xmlns="http://www.w3.org/2000/svg" width="565.625" height="322.654" viewBox="0 0 149.655 85.369" xmlns:v="https://vecta.io/nano"><path d="M.003 84.387l61.143-.191-2.3-4.01.541-5.277-.406-16.779-.271-2.436-1.083-4.33 1.488-26.387c1.055-7.619 3.659-14.929 6.495-22.192-.403 6.592-1.84 13.357-.271 19.621 7.036-2.687 14.073-2.317 21.109.406 1.879-7.249.13-12.943-.271-19.215 5.13 7.702 4.925 14.811 7.172 22.192l.677 8.39 1.353 17.05-1.083 3.654-.541 12.043.135 13.667-1.759 3.604 57.517-.191" fill="none" stroke="#000" stroke-width="1.965"/></svg>